<?xml version="1.0" encoding="UTF-8" standalone="no"?><!DOCTYPE svg PUBLIC "-//W3C//DTD SVG 1.1//EN" "http://www.w3.org/Graphics/SVG/1.1/DTD/svg11.dtd"><svg width="100%" height="100%" viewBox="0 0 3196 834" version="1.1" xmlns="http://www.w3.org/2000/svg" xmlns:xlink="http://www.w3.org/1999/xlink" xml:space="preserve" xmlns:serif="http://www.serif.com/" style="fill-rule:evenodd;clip-rule:evenodd;stroke-linejoin:round;stroke-miterlimit:2;"><rect id="Artboard1" x="0" y="0" width="3193.32" height="829.242" style="fill:none;"/><g id="Layer-1" serif:id="Layer 1"><path id="path964" d="M346.354,802.571c-40.562,-11.125 -66.279,-20.513 -97.146,-35.463c-43.483,-21.066 -80.062,-46.133 -109.908,-75.316c-28.1,-27.48 -46.125,-52.859 -59.087,-83.204c-3.146,-7.363 -6.555,-17.096 -10.967,-31.317l-3.021,-9.754l-0.592,-218.746c-0.329,-120.308 -0.595,-233.967 -0.6,-252.571l-0.008,-33.825l571.6,0l-0.008,35.017c-0.005,19.258 -0.275,132.962 -0.6,252.666l-0.592,217.65l-4.129,13.017c-6.459,20.379 -9.529,28.221 -16.4,41.925c-12.221,24.379 -27.25,44.258 -51.417,67.996c-17.079,16.779 -34.579,30.862 -55.896,44.971c-46.175,30.562 -96.108,52.55 -148.116,65.225c-10.771,2.625 -10.154,2.541 -13.113,1.729Zm0,-12.434l0,-130.358l-4.571,-0.383c-2.512,-0.213 -4.712,-0.529 -4.883,-0.7c-0.171,-0.171 0.913,-1.579 2.408,-3.125c3.692,-3.829 5.855,-7.233 5.855,-9.217c-0,-1.366 -0.259,-1.65 -1.513,-1.65c-0.829,0 -2.833,0.671 -4.45,1.492c-1.617,0.821 -3.937,1.487 -5.154,1.487c-1.875,0 -2.654,-0.45 -5.054,-2.941c-1.729,-1.796 -3.088,-3.863 -3.471,-5.3c-0.713,-2.638 -2.604,-4.188 -5.733,-4.692c-3.08,-0.5 -4.038,0.608 -3.571,4.129c0.458,3.484 -0.546,4.2 -3.592,2.563c-3.2,-1.725 -5.296,-5.284 -5.412,-9.2c-0.055,-1.834 -0.121,-3.567 -0.146,-3.85c-0.079,-0.817 -10.279,-0.104 -12.271,0.854c-1.421,0.687 -1.825,1.304 -1.967,2.996c-0.216,2.587 1.125,4.121 2.563,2.925c0.491,-0.409 0.896,-1.263 0.896,-1.9c-0,-0.913 0.345,-1.117 1.637,-0.971c1.358,0.158 1.671,0.517 1.825,2.096c0.571,5.912 -6.85,7.383 -11.75,2.329c-2.362,-2.442 -3.142,-5.396 -2.167,-8.233c1.796,-5.225 7.921,-10.255 13.613,-11.18c1.875,-0.308 3.679,-0.72 4,-0.92c1.108,-0.684 0.596,-3.18 -0.888,-4.346c-1.9,-1.496 -2.883,-4.017 -2.125,-5.434c0.446,-0.833 1.65,-1.154 5.513,-1.475c8.671,-0.72 17.379,-3.291 20.746,-6.125c2.171,-1.825 2.237,-2.916 0.291,-4.72c-2.77,-2.567 -1.737,-3.925 3.567,-4.696c6.788,-0.988 8.571,-3.784 10.942,-17.159c0.625,-3.52 1.041,-6.404 0.925,-6.404c-0.117,0 -2.109,2.834 -4.434,6.296c-6.82,10.167 -8.425,11.4 -26.412,20.317c-12.3,6.096 -15.533,8.45 -14.992,10.916c0.846,3.85 -3.391,3.692 -5.696,-0.208c-3.091,-5.242 -10.387,-3.825 -13.695,2.662c-1.775,3.484 -1.584,4.334 0.875,3.871c2.512,-0.471 3.179,0.396 1.558,2.017c-0.863,0.858 -1.996,1.217 -3.875,1.217c-3.233,-0 -8.308,1.821 -11.492,4.125c-3.241,2.35 -5.816,3.62 -7.333,3.62c-4.992,0 -9.267,-8.587 -5.933,-11.92c1.8,-1.8 4.066,-1.575 4.508,0.45c0.617,2.816 0.792,3.129 1.758,3.129c1.417,-0 3.792,-2.871 4.204,-5.084c0.542,-2.879 0.121,-4.195 -1.254,-3.945c-0.646,0.116 -3.05,0.245 -5.341,0.283c-6.867,0.108 -11.217,-3.054 -9.25,-6.733c0.904,-1.692 2.362,-1.338 3.583,0.875c0.758,1.379 1.467,1.829 3.079,1.966c3.313,0.284 4.658,-2.812 1.638,-3.775c-0.625,-0.196 -1.138,-0.583 -1.138,-0.862c0,-0.917 3.829,-3.759 7.154,-5.304c2.825,-1.317 3.934,-1.5 8.046,-1.334c11.4,0.463 11.092,0.488 12.3,-1.125c0.613,-0.816 1.683,-3.366 2.383,-5.662c1.063,-3.492 1.263,-5.625 1.234,-13.075c-0.042,-10.225 0.012,-10.404 5.004,-15.792l3.346,-3.617l-3.492,-0.004c-4.696,0 -7.579,-0.887 -10.096,-3.096c-5.404,-4.745 -5.079,-10.404 0.946,-16.429c1.363,-1.366 3.396,-2.812 4.517,-3.216c1.121,-0.409 2.037,-1.067 2.037,-1.471c0,-0.925 -3.804,-4.084 -6.416,-5.321c-1.867,-0.888 -2.138,-0.871 -4.288,0.25c-1.258,0.654 -2.45,1.033 -2.65,0.837c-0.854,-0.854 -0.229,-3.037 1.283,-4.479c2.3,-2.196 4.725,-2.971 7.909,-2.533c2.65,0.367 2.758,0.317 4.187,-1.9c0.863,-1.333 2.034,-2.354 2.834,-2.467c1.241,-0.175 1.354,0.017 1.229,2.113c-0.075,1.271 0.062,2.633 0.308,3.025c0.783,1.271 4.221,0.841 5.679,-0.713c1.588,-1.687 5.304,-2.741 9.709,-2.746c7.962,-0.012 15.32,-2.358 15.375,-4.904c-0,-0.241 -1.938,-0.279 -4.313,-0.079c-7.704,0.65 -10.954,-1.817 -10.45,-7.925c0.429,-5.142 2.383,-5.962 8.033,-3.375l2.267,1.038l-2.171,0.204c-3.95,0.379 -5.612,4.316 -1.825,4.316c3.75,0 11.513,-7.341 12.388,-11.72c0.6,-2.98 -0.95,-3.98 -5.438,-3.496c-4.121,0.441 -7.171,-0.467 -9.808,-2.921c-2.013,-1.871 -3.783,-2.725 -5.65,-2.725c-1.458,-0 -1.533,0.137 -1.167,2.087c0.504,2.688 -0.446,2.742 -3.925,0.221c-2.437,-1.766 -2.616,-1.808 -3.366,-0.779c-1.359,1.854 -0.934,3.863 1.254,5.925c2.266,2.142 4.608,2.838 6.762,2.021c1.608,-0.613 2.513,-0.263 2.513,0.971c-0,2.146 -5.542,2.75 -10.304,1.129c-4.851,-1.654 -8.255,-7.133 -7.046,-11.342c1.791,-6.25 8.391,-11.866 15.266,-12.991c1.846,-0.305 2.988,-0.088 5.067,0.966c2.204,1.121 3.004,2.021 4.504,5.067c3.525,7.15 5.596,7.854 10.046,3.408c2.917,-2.921 4.117,-5.796 3.183,-7.633c-0.491,-0.958 -1.021,-1.067 -3.716,-0.75c-4.25,0.5 -5.046,-0.413 -2.992,-3.438c1.871,-2.758 1.95,-6.179 0.275,-12.212c-1.583,-5.721 -2.671,-7.733 -4.563,-8.454c-2.345,-0.892 -5.42,0.358 -6.858,2.791c-1.262,2.142 -1.675,2.371 -2.608,1.438c-1.538,-1.533 -7.742,5.054 -15.196,16.142c-7.654,11.387 -10.175,18.391 -8.071,22.458c1.192,2.304 1.192,2.512 0.021,2.512c-0.517,0 -1.725,-0.783 -2.683,-1.741c-1.346,-1.346 -1.742,-2.284 -1.742,-4.138c-0,-1.316 -0.292,-2.575 -0.65,-2.796c-0.921,-0.57 -5.279,3.888 -7.688,7.859c-1.633,2.7 -2.037,3.991 -2.062,6.608c-0.025,2.604 0.221,3.454 1.221,4.267c1.587,1.287 2.008,2.483 1.329,3.8c-0.742,1.446 -1.879,1.304 -4.013,-0.488c-2.475,-2.087 -4.3,-1.758 -4.983,0.896c-1.083,4.192 0.467,7.296 4.033,8.096c4.217,0.942 4.225,0.95 2.634,1.829c-2.975,1.65 -5.892,0.729 -9.459,-2.979c-1.129,-1.175 -2.425,-2.138 -2.883,-2.138c-0.458,0 -1.917,0.93 -3.242,2.063c-1.829,1.562 -3.508,2.308 -6.941,3.071c-4.175,0.929 -4.784,1.266 -7.829,4.346c-3.121,3.145 -7.15,8.612 -7.15,9.695c-0,0.717 4.045,0.605 5.462,-0.154c0.663,-0.354 1.733,-1.833 2.375,-3.283c0.642,-1.45 1.833,-3.075 2.654,-3.613c3.567,-2.337 9.517,2.067 14.638,10.834c3.825,6.554 5.037,10.433 4.171,13.329c-0.621,2.067 -6.755,9.608 -7.813,9.608c-0.258,0 -0.662,-2.187 -0.896,-4.858c-0.233,-2.671 -0.675,-5.521 -0.979,-6.329l-0.558,-1.467l-1.929,1.571c-1.059,0.867 -2.8,2.021 -3.871,2.567c-1.809,0.925 -2.142,0.929 -4.767,0.016c-4.271,-1.483 -7.7,-1.779 -12.958,-1.108c-10.304,1.308 -14.421,3.879 -16.096,10.058c-0.508,1.884 -1.204,4.459 -1.55,5.729c-0.342,1.267 -1.329,2.963 -2.196,3.763c-1.425,1.321 -1.608,1.987 -1.892,6.933c-0.175,3.013 -0.52,5.792 -0.77,6.175c-0.25,0.384 -1.792,1.142 -3.43,1.688c-3.408,1.133 -3.67,1.958 -1.779,5.658c2.213,4.342 1.021,7.154 -3.033,7.154c-1.246,0 -2.663,0.417 -3.183,0.934c-1.317,1.316 -0.334,2.904 3.129,5.033c6.337,3.904 6.887,4.908 3.233,5.921c-2.862,0.796 -9.933,0.8 -12.783,0.008c-4.875,-1.354 -8.921,-9.221 -8.984,-17.462c-0.05,-6.125 0.909,-8.909 4.088,-11.892c1.475,-1.379 4.004,-4.425 5.621,-6.763c2.966,-4.283 7.737,-13.495 7.737,-14.937c0,-1.721 -2.366,-0.688 -4.021,1.754l-1.72,2.533l-4.588,-0.17c-4.862,-0.175 -4.708,-0.263 -5.437,3.045l-0.371,1.684l-11.517,-0.388l-0.625,2.154c-1.679,5.763 -6.1,6.055 -12.1,0.796c-3.646,-3.196 -3.546,-3.525 -1.987,6.588l1.1,7.154l-4.142,-4.471c-8.075,-8.712 -9.413,-13.279 -5.754,-19.654c2.258,-3.942 10.608,-12.354 12.808,-12.904c1.363,-0.342 2.621,-0.075 6.608,1.412c0.405,0.15 0.005,-1.029 -0.895,-2.621c-1.492,-2.645 -1.63,-3.42 -1.621,-9.15c0.008,-7.641 0.729,-9.275 5.196,-11.82c5.008,-2.85 13.587,-6.184 14.987,-5.83c0.721,0.184 1.888,1.505 2.713,3.071c2.425,4.609 8.366,8.888 14.45,10.421c5.27,1.329 11.6,-2.25 21.65,-12.229c7.733,-7.683 14.854,-16.242 20.47,-24.592c4.7,-6.996 6.609,-10.854 8.175,-16.537c0.721,-2.621 1.671,-5.638 2.109,-6.696c1.746,-4.233 -1.354,-3.846 -8.784,1.096c-1.92,1.275 -3.825,2.321 -4.233,2.321c-1.687,0.004 -0.517,-1.888 3.275,-5.3c3.375,-3.034 3.8,-3.617 2.646,-3.63c-3.096,-0.02 -5.438,-2.625 -4.288,-4.766c0.55,-1.034 1.063,-1.142 4.042,-0.859c5.825,0.555 8.004,-1.62 15.75,-15.729c2.392,-4.362 6.113,-10.296 8.263,-13.187c4.491,-6.042 6.812,-10.834 8.029,-16.571c2.083,-9.838 0.046,-14.233 -10.088,-21.754l-4.833,-3.584l-0.404,8.567c-0.709,14.967 -3.242,32.825 -6.5,45.788c-1.734,6.891 -3.525,10.437 -3.525,6.97c-0,-0.912 0.683,-4.633 1.521,-8.27c2.654,-11.517 5.033,-32.05 5.033,-43.4c0,-4.43 -0.825,-8.317 -1.771,-8.317c-0.687,-0 -1.208,3.233 -1.208,7.504c-0,5.283 -1.492,15.546 -3.896,26.788c-2.3,10.741 -4.283,17.058 -6.613,21.033c-2.354,4.012 -10.583,12.296 -15.462,15.558c-3.642,2.434 -8.2,4.221 -8.925,3.496c-0.113,-0.112 0.708,-2.633 1.825,-5.604c3.183,-8.471 5.308,-21.854 7.425,-46.721c1.408,-16.533 2.154,-32.058 1.517,-31.467c-0.659,0.609 -2.284,8.934 -5.709,29.259c-5.862,34.812 -12.691,63.791 -15.225,64.621c-0.946,0.308 -0.112,-4.409 3.004,-17.03c6.384,-25.825 12.309,-61.079 12.217,-72.683l-0.042,-5.183l-1.454,3.762c-1.55,4.004 -3.358,13.354 -5.962,30.809c-0.884,5.9 -1.809,11.266 -2.059,11.92c-0.416,1.075 -0.754,0.884 -3.495,-2.004c-3.271,-3.441 -3.521,-3.383 -2.155,0.488c1.9,5.391 2.246,9.633 1.259,15.371c-1.946,11.275 -11.013,39.891 -15.888,50.137c-3.862,8.125 -6.975,12.371 -13.933,19.025c-6.213,5.942 -7.879,6.671 -8.475,3.708c-0.517,-2.591 -1.604,-2.212 -3.863,1.338c-6.229,9.8 -18.329,17.467 -25.704,16.287c-4.579,-0.733 -12.987,-5.858 -14.546,-8.87c-0.975,-1.888 -0.291,-3.392 1.542,-3.392c3.35,-0 10.167,-7.025 17.088,-17.608c9.712,-14.85 24.083,-44.834 24.083,-50.255c0,-2.533 2.579,-10.829 8.142,-26.204c6.808,-18.825 11.996,-34.216 12.441,-36.933l0.367,-2.217l-1.2,1.792c-0.658,0.983 -4.542,9.567 -8.625,19.071c-12.9,30.025 -18.575,41.654 -28.558,58.516c-9.129,15.421 -18.7,27.134 -28.121,34.409c-8.704,6.725 -9.354,6.979 -4.613,1.829c2.405,-2.613 5.396,-6.496 6.65,-8.625c1.255,-2.133 4.117,-5.992 6.359,-8.579c7.529,-8.688 10.521,-12.546 14.829,-19.138c13.483,-20.633 24.967,-45.179 34.654,-74.075c1.788,-5.337 3.158,-10.166 3.042,-10.729c-0.384,-1.879 -3.442,4.3 -6.738,13.621c-4.691,13.258 -11.55,26.192 -15.271,28.8c-1.308,0.912 -1.454,0.912 -2.15,-0.038c-0.408,-0.562 -0.75,-1.841 -0.754,-2.841c-0.021,-3.996 -1.046,-3.467 -1.808,0.933c-1.9,10.992 -9.921,27.817 -16.979,35.633c-2.575,2.85 -4.075,3.075 -5.267,0.8l-0.858,-1.637l-0.446,2.375c-0.338,1.787 -1.271,3.183 -3.788,5.658c-6.129,6.025 -14.941,10.046 -22.529,10.271c-3.537,0.108 -4.491,-0.104 -6.925,-1.529c-5.412,-3.171 -10.887,-12.083 -8.5,-13.833c0.696,-0.505 1.579,-0.525 3.288,-0.067c3.208,0.854 6.258,-0.588 10.362,-4.904c6.192,-6.509 16.121,-21.104 25.604,-37.65c18.138,-31.642 40.509,-78.638 37.434,-78.638c-0.821,0 -3.167,3.575 -10.163,15.496c-16.487,28.088 -33.129,52.158 -42.646,61.675c-2.3,2.304 -6.591,5.817 -9.533,7.813c-5.533,3.745 -16.887,10.066 -17.317,9.641c-0.537,-0.537 13.467,-12.771 18.038,-15.762c2.683,-1.754 6.392,-4.863 8.242,-6.904c12.8,-14.121 38.604,-53.759 43.504,-66.821c2.966,-7.913 0.479,-5.559 -9.925,9.391c-14.913,21.425 -20.784,27.788 -25.642,27.788c-1.217,-0 -1.887,0.45 -2.529,1.692c-1.779,3.437 -11.1,6.383 -18.796,5.937c-8.458,-0.487 -17.221,-6.017 -18.25,-11.508c-0.596,-3.171 0.079,-8.379 1.371,-10.596c1.533,-2.638 3.442,-2.8 5.567,-0.475c0.954,1.046 2.27,1.837 3.054,1.833c7.146,-0.033 26.012,-17.312 41.304,-37.841c3.958,-5.317 15.017,-21.505 17.308,-25.334c0.292,-0.491 -3.987,3.35 -9.512,8.538c-14.492,13.612 -25.554,21.904 -36.709,27.521c-8.645,4.354 -13.341,5.32 -16.858,3.47l-1.908,-1.004l1.491,-0.425c0.817,-0.237 2.505,-0.458 3.742,-0.487c2.9,-0.079 5.513,-1.188 8.929,-3.796c1.504,-1.15 5.104,-3.013 7.996,-4.142c2.892,-1.129 6.375,-2.758 7.742,-3.621c5.625,-3.55 15.462,-12.104 26.196,-22.775c11.02,-10.954 13.9,-14.241 13.145,-15c-0.554,-0.55 -2.72,1.046 -12.225,9c-16.141,13.505 -21.612,16.888 -29.508,18.255c-5.254,0.904 -16.967,0.42 -21.075,-0.875c-6.333,-2 -10.917,-7.275 -10.896,-12.55c0.017,-3.721 0.679,-4.334 2.946,-2.725c1.033,0.741 2.033,1.195 2.213,1.012c0.183,-0.183 0.004,-1.7 -0.4,-3.375c-0.4,-1.675 -0.596,-3.179 -0.434,-3.342c0.163,-0.162 1.304,0.392 2.534,1.225c4.045,2.746 10.125,1.734 20.85,-3.462c10.325,-5 18.883,-10.8 31.166,-21.108c3.7,-3.109 6.629,-5.75 6.509,-5.871c-0.121,-0.121 -4.288,1.641 -9.259,3.921c-4.971,2.279 -10.916,4.82 -13.216,5.65c-12.967,4.675 -25.496,5.837 -28.675,2.658c-1.767,-1.767 -0.975,-2.158 3.033,-1.496c9.375,1.55 28.467,-4.621 47.675,-15.412c3.429,-1.93 5.929,-3.609 5.55,-3.734c-0.375,-0.125 -4.525,0.888 -9.217,2.254c-7.5,2.188 -9.254,2.488 -14.496,2.484c-9.762,-0.009 -16.945,-3.384 -22.116,-10.413c-2.479,-3.362 -2.692,-3.916 -2.35,-6.096c0.446,-2.833 3.591,-9.841 4.421,-9.841c0.32,-0 2.145,1.341 4.054,2.987c8.2,7.046 17.654,6.313 37.154,-2.891l5.067,-2.392l-9.242,-0.054c-10.904,-0.071 -16.408,-0.763 -19.842,-2.496c-2.521,-1.275 -10.125,-7.108 -9.754,-7.479c0.108,-0.109 3.125,1.029 6.704,2.529c9.634,4.037 12.8,4.642 21.7,4.15c4.1,-0.225 10,-0.729 13.113,-1.117l5.662,-0.704l-6.766,-2.342c-14.813,-5.125 -16.646,-8.87 -10.438,-21.366c1.579,-3.179 3.013,-5.775 3.183,-5.771c0.171,0.008 1.609,2.221 3.192,4.917c3.529,6.025 4.392,7.1 7.25,9.041c1.504,1.017 3.063,1.529 4.667,1.529c1.329,0 4.125,0.43 6.216,0.955c2.092,0.525 3.946,0.808 4.121,0.633c0.175,-0.175 -0.679,-1.933 -1.896,-3.908c-2.495,-4.046 -3.312,-8.188 -2.066,-10.517c1.496,-2.792 4.691,-3.392 16.766,-3.167c12.421,0.238 14.196,0.767 16.196,4.829c0.938,1.905 0.979,2.421 0.292,3.855c-1.075,2.258 -4.638,2.562 -7.633,0.658l-2.088,-1.329l3.204,-0.417c1.875,-0.246 3.671,-0.883 4.321,-1.537c1.025,-1.021 1.042,-1.225 0.188,-2.438c-1.271,-1.817 -3.755,-1.725 -12.484,0.463c-8.154,2.045 -9.516,2.179 -9.025,0.904c0.554,-1.446 -1.708,-2.284 -4.062,-1.509c-2.146,0.709 -2.709,1.559 -2.7,4.08c0.004,3.204 3.054,6.3 8.625,8.762c4.396,1.946 4.708,1.9 4.3,-0.617c-0.259,-1.595 -0.134,-2.083 0.541,-2.083c0.484,0 4.034,1.608 7.892,3.575c3.854,1.967 7.571,3.575 8.258,3.575c0.8,0 1.7,-0.754 2.484,-2.083c0.679,-1.15 1.633,-2.088 2.125,-2.088c1.187,0 2.316,2.196 1.916,3.729c-0.771,2.938 2.517,6.284 16.75,17.05c5.329,4.025 9.688,7.434 9.688,7.563c-0,0.133 -0.679,-0.067 -1.508,-0.442c-2.155,-0.983 -2.721,-0.104 -1.996,3.096c0.916,4.046 -0.363,15.604 -2.25,20.317c-0.675,1.691 -1.471,2.466 -3.246,3.179c-4.667,1.867 -8.092,0.762 -13.163,-4.246l-3.387,-3.342l-3.171,3.455c-6.692,7.291 -9.271,11.579 -8.592,14.283c0.538,2.142 2.334,2.854 8.521,3.375c6.467,0.546 8.459,1.442 10.813,4.85c1.808,2.617 7.133,8.071 9.479,9.704l1.333,0.933l-3.204,4.292c-5.442,7.296 -6.167,9.733 -3.962,13.35c2.462,4.033 6.195,4.738 11.22,2.108c1.221,-0.637 4.313,-2.27 6.871,-3.629c4.171,-2.216 5.079,-2.471 8.809,-2.471c4.641,0 6.541,0.646 11.17,3.788c4.18,2.837 8.2,3.962 14.071,3.95c5.125,-0.017 9.875,-1.529 9.875,-3.146c0,-0.458 -1.058,-1.312 -2.35,-1.892c-4.954,-2.233 -3.171,-3.891 4.179,-3.891l4.888,-0l-1.604,-1.263c-1.025,-0.804 -1.538,-1.716 -1.421,-2.533c0.158,-1.104 0.512,-1.246 2.683,-1.083c1.379,0.1 3.071,-0.117 3.759,-0.488c2.058,-1.1 3.57,-4.187 3.57,-7.3c0.005,-3.162 -0.6,-3.496 -2.975,-1.637c-2.004,1.562 -2.595,1.495 -4.966,-0.588c-2.988,-2.625 -8.288,-3.817 -15.154,-3.412c-5.917,0.35 -9.834,1.716 -10.171,3.545c-0.109,0.588 0.662,1.817 1.771,2.834l1.962,1.791l-2.171,0c-3.016,0 -3.958,-0.47 -5.008,-2.5c-1.263,-2.441 -0.579,-4.879 1.95,-6.966c1.275,-1.05 2.017,-2.138 1.892,-2.779c-0.271,-1.392 -6.25,-5.505 -8.696,-5.984c-3.071,-0.6 -4.729,0.154 -6.734,3.067c-3.066,4.454 -4.725,2.05 -2.366,-3.429c1.675,-3.896 1.296,-4.913 -1.638,-4.379c-5.262,0.95 -8.896,5.087 -8.179,9.316c0.446,2.642 -0.317,3.075 -1.767,1.004c-1.283,-1.833 -1.154,-6.754 0.259,-9.87c1.975,-4.35 6.141,-5.184 16.996,-3.4c6.72,1.104 10.675,1.133 11.55,0.083c0.45,-0.542 0.545,-2.546 0.291,-6.121c-0.5,-7.042 -0.3,-7.225 6.8,-6.233c6.938,0.966 12.65,3.541 12.65,5.704c0,0.387 -0.704,1.025 -1.562,1.417c-1.346,0.616 -1.509,0.966 -1.184,2.587c0.571,2.854 3.209,6.958 5.325,8.288c2.555,1.604 9.775,1.395 11.688,-0.334c1.525,-1.379 1.329,-2.271 -0.604,-2.725c-0.892,-0.208 -1.517,-0.837 -1.634,-1.641c-0.175,-1.2 0.042,-1.296 2.613,-1.184c2.533,0.109 2.962,-0.075 4.529,-1.95c1.717,-2.054 3.379,-6.241 2.738,-6.883c-0.184,-0.183 -1.905,-0.742 -3.821,-1.242c-3.8,-0.983 -5.571,-2.196 -5.571,-3.808c-0,-1.329 1.175,-1.758 4.796,-1.758c3.525,-0 4.033,-0.7 4.55,-6.255c0.629,-6.729 -2.138,-11.341 -7.734,-12.883c-3.337,-0.921 -8.429,-0.054 -13.975,2.379c-5.125,2.25 -8.991,2.888 -11.42,1.879c-3.738,-1.545 -2.68,-3.97 2.112,-4.862c2.875,-0.538 9.213,-3.979 9.629,-5.233c0.404,-1.205 -2.191,-0.68 -11.475,2.316c-10.379,3.346 -13.016,4.004 -19.271,4.796c-6.308,0.8 -11.945,-0.121 -16.583,-2.717c-2.037,-1.137 -4.279,-2.07 -4.979,-2.07c-2.813,-0 -4.304,-8.096 -2.054,-11.134c1.233,-1.666 4.662,-3.862 7.25,-4.637c2.021,-0.609 2.408,1.2 0.846,3.921c-2.317,4.02 -1.196,7.445 3.004,9.183c3.533,1.458 12.729,1.354 19.937,-0.229c6.479,-1.425 18.963,-6.171 17.196,-6.538c-2.35,-0.487 -13.754,0.296 -15.208,1.046c-0.821,0.425 -2.342,1.746 -3.384,2.938l-1.891,2.17l-1.459,-3.279c-4.491,-10.087 -3.529,-13.916 6.317,-25.125c5.796,-6.596 8.442,-7.975 17.104,-8.912c3.446,-0.371 8.075,-0.525 10.296,-0.342c4.183,0.35 5.958,1.129 15.642,6.863c5.637,3.337 10.221,4.866 14.579,4.866c3.275,0 3.796,-0.183 5.937,-2.116c2.142,-1.942 2.396,-2.03 2.921,-1.042c1.442,2.687 2.546,13.887 1.375,13.887c-0.283,0 -0.671,-1.516 -0.862,-3.37c-0.192,-1.855 -0.663,-3.567 -1.046,-3.8c-0.383,-0.238 -2.075,-0.067 -3.758,0.383c-1.684,0.446 -3.817,0.817 -4.742,0.821c-1.279,0.004 -1.638,0.258 -1.483,1.05c0.283,1.496 8.154,7.233 10.533,7.679c1.933,0.362 1.996,0.458 1.7,2.658c-0.338,2.5 0.125,3.134 2.729,3.754c0.917,0.221 1.817,0.796 2.004,1.284c0.446,1.158 -0.833,2.654 -2.271,2.654c-1.775,-0 -1.995,1.65 -0.829,6.217c1.346,5.275 5.871,17.108 7.809,20.412c1.775,3.038 1.829,4.125 0.237,4.979c-2.296,1.225 -2.437,3.059 -0.858,11.004c1.116,5.592 1.45,9.017 1.358,13.85c-0.133,6.846 0.417,10.092 1.404,8.325c1.134,-2.02 1.667,-42.887 1.684,-128.712l0.016,-88.658l-270.787,-0l0.421,189.391c0.433,193.196 1.062,281.196 2.129,296.079c0.8,11.163 1.525,15.317 4.225,24.142c18.433,60.292 73.171,118.829 151.062,161.554c24.929,13.675 57.338,27.784 83.321,36.279c11.433,3.738 25.754,7.709 27.992,7.763l1.637,0.037Zm-55.433,-527.425c-0,-0.695 2.6,-1.166 4.462,-0.812c0.817,0.158 1.338,0.521 1.159,0.812c-0.425,0.688 -5.621,0.688 -5.621,0Zm-31.663,-2.666c-4.104,-1.688 -8.995,-4.646 -9.325,-5.634c-0.32,-0.958 4.259,0.838 9.567,3.755c6.154,3.383 6.017,4.454 -0.242,1.879Zm-15.166,-11.259c-4.529,-4.975 -5.217,-5.812 -4.796,-5.812c0.637,-0 7.521,6.629 7.521,7.242c-0,0.995 -0.988,0.475 -2.725,-1.43Zm-13.604,-41.92c-0.2,-0.517 -0.192,-1.617 0.016,-2.442c0.467,-1.863 1.388,-0.717 1.4,1.746c0.009,1.783 -0.837,2.204 -1.416,0.696Zm94.075,-17.838c-4.046,-5.333 -9.205,-10.104 -15.859,-14.667c-3.891,-2.666 -7.221,-5.087 -7.4,-5.37c-1.237,-2.005 6.588,1.816 11.492,5.612c4.467,3.454 11.637,10.892 12.942,13.425c1.541,2.992 0.808,3.613 -1.175,1Zm-47.646,-24.133c1.646,-0.709 9.929,-0.709 11.025,-0c0.604,0.387 -1.221,0.566 -5.663,0.541c-4.212,-0.02 -6.129,-0.216 -5.362,-0.541Zm211.241,488.75c0.021,-6.721 -0.204,-12.596 -0.495,-13.059c-0.709,-1.116 -3.313,3.996 -4.605,9.034c-1.533,5.987 -0.112,13.625 3.217,17.304c0.963,1.062 1.017,1.062 1.425,0.021c0.233,-0.596 0.442,-6.579 0.458,-13.3Zm4.992,11.462c1.65,-1.825 3.379,-6.3 3.392,-8.791c0.012,-2.809 -1.75,-9.513 -3.613,-13.721c-1.237,-2.788 -1.337,-2.871 -1.762,-1.467c-0.542,1.788 -0.725,22.746 -0.209,24.092c0.467,1.216 1.017,1.187 2.192,-0.113Zm-15.137,-16.529c2.695,-2.921 5.77,-8.804 5.137,-9.825c-0.204,-0.333 -0.875,-0.604 -1.483,-0.604c-3.267,-0 -11.067,11.037 -9.917,14.033c0.304,0.804 0.542,0.809 2.025,0.038c0.925,-0.475 2.833,-2.117 4.238,-3.642Zm28.675,2.967c-0,-1.142 -3.775,-8.504 -5.213,-10.163c-1.571,-1.821 -4.179,-3.396 -4.892,-2.954c-0.912,0.563 -0.762,3.125 0.317,5.392c1.133,2.391 7.533,8.633 8.85,8.633c0.517,0 0.938,-0.408 0.938,-0.908Zm-173,-12.871c-2.584,-1.925 -2.142,-3.35 1.55,-4.983c3.812,-1.684 5.15,-3.955 5.162,-8.746c0.004,-1.754 0.692,-5.325 1.525,-7.934c1.496,-4.683 1.533,-7.791 0.083,-7.325c-0.395,0.125 -1.154,1.15 -1.683,2.275c-0.533,1.125 -1.671,3.521 -2.537,5.325c-0.863,1.805 -3.534,5.475 -5.934,8.159c-4.537,5.075 -6.129,8.366 -5.416,11.204c0.558,2.229 2.47,3.287 5.891,3.267l2.996,-0.017l-1.637,-1.221l-0,-0.004Zm167.279,-4.2c5.75,-1.967 3.891,-4.896 -3.759,-5.925c-6.975,-0.942 -18.858,-0.463 -21.366,0.858c-3.329,1.759 -2.417,4.725 1.791,5.817c2.913,0.754 20.596,0.187 23.334,-0.75Zm-38.1,-15.504c0.683,-5.129 4.112,-8.317 7.921,-7.359c2.65,0.667 5.737,4.525 7.937,9.917l2.033,4.996l0.546,-4.454c1.213,-9.896 -3.608,-23.55 -9.975,-28.271c-2.4,-1.779 -8.541,-1.708 -12.621,0.146c-3.887,1.762 -5.995,3.825 -8.029,7.846c-3.846,7.6 -3.216,9.933 4.942,18.32l6.067,6.23l0.404,-2.292c0.221,-1.263 0.571,-3.546 0.775,-5.079Zm37.712,0.991c1.392,-2.62 3.342,-5.5 4.329,-6.4c3.771,-3.437 7.663,-1.366 10.125,5.38c1.567,4.304 2.405,5.175 4.48,4.654c4.008,-1.004 10.925,-11.909 10.237,-16.138c-1.242,-7.666 -9.342,-14.808 -16.833,-14.85c-8.2,-0.041 -14.104,8.229 -16.684,23.379c-1.725,10.121 0.159,11.846 4.346,3.975Zm-12.666,-29.775c-0,-16.183 -0.188,-29.612 -0.417,-29.841c-0.579,-0.579 -10.471,7.866 -12.821,10.954c-4.792,6.279 -4.262,10.458 3.321,26.179c4.721,9.783 8.425,19.754 8.425,22.675c-0,0.758 0.15,0.8 0.746,0.204c0.575,-0.579 0.746,-7.425 0.746,-30.171Zm5.095,26.642c1.284,-6.246 4.184,-14.042 8.809,-23.683c4.475,-9.325 4.575,-9.634 4.575,-14.104c-0,-4.121 -0.179,-4.817 -1.813,-7.15c-1.608,-2.3 -10.196,-9.796 -12.941,-11.296c-0.984,-0.538 -1.042,0.779 -1.038,24.037c0,25.021 0.396,36.421 1.238,35.904c0.254,-0.162 0.783,-1.829 1.17,-3.708Zm-193.054,-49.429c1.117,-4.442 3.471,-4.154 4.034,0.492c0.133,1.075 3.991,1.845 7.958,1.587c5.925,-0.383 9.008,-1.925 14.687,-7.35c6.921,-6.612 9.088,-10.717 5.271,-9.987c-1.104,0.212 -1.796,-0.209 -3.054,-1.859c-1.833,-2.404 -3.175,-2.658 -5.229,-0.996c-1.984,1.605 -2.013,6.463 -0.059,8.546c1.338,1.421 1.342,1.446 0.188,2.488c-1.604,1.454 -5.042,1.458 -6.637,0.012c-2.371,-2.146 -4.271,-6.05 -3.859,-7.921c0.208,-0.95 2.479,-4.054 5.058,-6.92c4.58,-5.084 5.825,-7.138 4.738,-7.813c-0.908,-0.562 -0.613,-4.821 0.396,-5.658c0.771,-0.642 1.221,-0.604 2.625,0.225c0.929,0.55 2.146,1 2.7,1c1.454,-0 5.066,-3.817 5.066,-5.354c0,-1.134 -0.229,-1.25 -1.795,-0.905c-1.642,0.363 -1.821,0.242 -2.159,-1.441c-0.241,-1.204 -0.725,-1.838 -1.4,-1.838c-1.725,0 -6.225,3.867 -10.091,8.671c-4.059,5.046 -5.546,7.646 -6.588,11.517c-0.979,3.633 -2.946,5.441 -5.921,5.441c-2.954,0 -3.471,-0.754 -1.887,-2.766c1.654,-2.104 1.571,-2.625 -0.7,-4.496c-1.821,-1.496 -1.942,-1.838 -1.942,-5.363l0,-3.766l-5.746,0.037c-7.746,0.05 -8.55,0.584 -9.058,6.017c-0.242,2.617 -0.792,4.621 -1.546,5.642c-0.646,0.87 -1.008,1.745 -0.804,1.945c0.575,0.575 7.079,0.425 8.733,-0.2c1.288,-0.491 1.517,-0.391 1.675,0.725c0.175,1.2 0.854,1.759 5.959,4.909c2.1,1.291 4.816,4.891 4.47,5.916c-0.133,0.396 -1.725,0.559 -4.216,0.425c-4.65,-0.245 -6.059,0.58 -6.688,3.93c-0.741,3.97 1.942,9.004 4.317,8.091c0.458,-0.175 1.133,-1.516 1.504,-2.983Zm-118.708,-25.717c5.225,-1.154 5.954,-2.246 2.796,-4.196c-2.4,-1.487 -4.817,-1.6 -7.767,-0.366c-1.175,0.491 -2.425,0.891 -2.779,0.891c-0.354,0 -1.971,-1.241 -3.596,-2.762l-2.954,-2.763l-0,4.059c-0,5.504 0.716,6.254 5.904,6.179c2.162,-0.029 5.937,-0.5 8.396,-1.042Zm239.016,-19.2c0,-9.196 -0.204,-13.675 -0.629,-13.675c-0.896,0 -3.291,5.534 -4.5,10.384c-0.887,3.558 -0.925,4.62 -0.287,7.716c1.033,4.996 3.733,10.288 4.887,9.575c0.292,-0.179 0.529,-6.479 0.529,-14Zm8.113,6.142c0.758,-2.596 0.792,-3.708 0.204,-6.554c-0.921,-4.463 -4.104,-13.263 -4.796,-13.263c-0.65,0 -0.741,25.829 -0.095,26.475c0.783,0.784 3.741,-3.416 4.687,-6.658Zm123.754,1c0.467,-2.017 0.179,-12.1 -0.558,-19.625l-0.384,-3.875l-2.262,6.854c-3.063,9.271 -3.013,12.646 0.262,17.467c1.413,2.075 2.334,1.821 2.942,-0.821Zm9.4,-3.863c1.096,-2.245 1.121,-2.65 0.329,-5.662c-1.008,-3.858 -4.404,-13.6 -5.179,-14.867c-0.337,-0.554 -0.483,3.979 -0.383,11.921c0.087,7.046 0.404,13.192 0.704,13.658c0.438,0.675 0.821,0.5 1.946,-0.895c0.771,-0.955 1.933,-2.825 2.583,-4.155Zm-151.283,-8.462c2.483,-2.588 5.475,-8.229 5.008,-9.446c-1.058,-2.754 -6.091,1.046 -8.937,6.746c-2.013,4.037 -1.992,4.937 0.116,4.937c1.146,0 2.334,-0.695 3.813,-2.237Zm28.492,1.325c-0,-1.783 -3.53,-7.867 -5.642,-9.721c-2.271,-1.992 -4.313,-2.437 -4.846,-1.05c-0.467,1.217 2.525,6.858 5.008,9.446c2.284,2.379 5.48,3.15 5.48,1.325Zm104.187,-3.746c2.092,-1.583 4.892,-5.837 4.892,-7.429c-0,-1.283 -2.192,-2.754 -3.567,-2.396c-1.804,0.475 -3.396,2.621 -5.092,6.883c-1.833,4.6 -1.687,6.28 0.45,5.15c0.746,-0.395 2.238,-1.387 3.317,-2.208Zm28.504,2.008c0.521,-1.362 -3.325,-7.962 -5.946,-10.212c-5.383,-4.604 -6.987,-0.808 -2.287,5.408c3.421,4.529 7.437,6.871 8.233,4.804Zm-321.104,-8.7c1.692,-1.695 3.4,-5.779 2.704,-6.479c-0.604,-0.6 -2.366,0.988 -4.575,4.125c-1.229,1.75 -2.233,3.4 -2.233,3.671c-0,1.142 2.421,0.363 4.104,-1.317Zm184.158,-5.491c0.875,-0.421 1.659,-1.35 1.767,-2.1c0.15,-1.071 -0.279,-1.559 -2.087,-2.359c-3.45,-1.525 -23.475,-1.52 -26.267,0.005c-2.058,1.125 -2.517,2.787 -1.096,3.966c0.463,0.384 2.542,0.938 4.621,1.234c5.129,0.725 21.062,0.208 23.062,-0.75l0,0.004Zm130.355,-3.459c3.825,-0.687 5.554,-1.429 4.891,-2.091c-1.687,-1.688 -23.383,-3.425 -27.875,-2.234c-1.75,0.463 -2.116,0.85 -2.266,2.396c-0.155,1.542 0.087,1.946 1.487,2.496c2.017,0.792 18.383,0.4 23.763,-0.567Zm-150.521,-6.858c0.916,-2.412 0.691,-5.458 -0.879,-11.95c-3.471,-14.325 -8.738,-20.092 -17.421,-19.071c-4.592,0.542 -7.817,2.088 -10.45,5.013c-5.759,6.391 -4.888,16.646 1.954,23.046c1.587,1.487 3.425,2.704 4.083,2.704c1.888,-0 3.575,-2.317 3.996,-5.492c0.213,-1.592 0.904,-3.558 1.542,-4.367c0.971,-1.233 1.662,-1.466 4.341,-1.466c3.775,-0 6.075,1.562 7.609,5.175c0.533,1.25 1.504,3.55 2.162,5.104c1.342,3.183 2.209,3.55 3.063,1.304Zm6.466,-39.812c0.067,-20.871 -0.033,-23.713 -0.816,-23.413c-0.492,0.188 -2.867,1.675 -5.279,3.304c-8.513,5.742 -11.771,11.309 -10.517,17.967c0.596,3.171 2.15,6.637 7.329,16.379c3.221,6.05 4.85,11.025 6.354,19.371c0.654,3.637 1.4,6.933 1.65,7.321c0.704,1.083 1.192,-14.634 1.279,-40.929Zm11.721,38.912c0.479,-0.925 0.871,-2.442 0.871,-3.362c0,-2.717 1.975,-5.68 4.775,-7.159c3.25,-1.716 4.879,-1.712 6.904,0.029c1.396,1.205 1.663,1.984 1.979,5.813c0.434,5.158 0.792,5.917 2.796,5.917c6.292,-0 14.225,-12.4 12.221,-19.096c-1.467,-4.896 -11.579,-13.079 -16.158,-13.079c-2.484,-0 -7.421,2.675 -9.425,5.108c-3.629,4.4 -8.454,18.196 -8.454,24.167c-0,4.291 2.629,5.262 4.491,1.662Zm132.596,-5.171c2.917,-5.916 4.713,-8.2 6.871,-8.741c4.342,-1.092 10.208,5.916 8.571,10.229c-0.888,2.329 0.087,2.837 3.316,1.737c4.067,-1.383 7.105,-4.062 8.634,-7.616c2.983,-6.934 1.983,-14.255 -2.463,-18.063c-4.25,-3.633 -11.121,-5.667 -15.333,-4.533c-6.771,1.825 -11.458,10.691 -13.829,26.154c-1.3,8.496 0.3,8.808 4.233,0.833Zm-37.667,2.671c0.346,-0.417 1.084,-2.567 1.642,-4.779c1.621,-6.463 4.983,-8.396 9.479,-5.45c0.809,0.529 2.388,2.887 3.504,5.242c3.146,6.629 5.159,7.504 5.159,2.241c-0,-7 -3.088,-17.404 -6.496,-21.887c-2.954,-3.884 -5.9,-5.321 -10.788,-5.254c-6.733,0.095 -12.42,3.57 -14.679,8.975c-1.212,2.904 -1.016,8.95 0.388,12.041c3.075,6.788 9.508,11.621 11.791,8.871Zm-102.412,-2.937c0.021,-2.271 3.954,-12.667 8.075,-21.342c6.817,-14.338 7.454,-18.617 3.633,-24.329c-1.646,-2.454 -10.087,-9.888 -13.104,-11.534c-1.079,-0.587 -1.1,0.175 -0.733,25.825c0.404,28.121 0.712,34.613 1.591,33.225c0.292,-0.458 0.534,-1.287 0.538,-1.845Zm126.921,-26.025c0.35,-10.371 0.758,-21.875 0.912,-25.563c0.171,-4.017 0.054,-6.708 -0.283,-6.708c-0.309,-0 -2.379,1.108 -4.596,2.458c-9.396,5.721 -11.483,8.017 -11.483,12.629c-0,3.909 2.412,11.359 6.475,19.988c4.95,10.5 6.437,14.458 7.025,18.666l0.445,3.18l0.438,-2.896c0.237,-1.592 0.721,-11.384 1.067,-21.754Zm10.387,8.262c0.838,-1.804 3.017,-5.829 4.846,-8.942c3.187,-5.429 5.679,-11.812 5.667,-14.516c-0.009,-2.088 -2.68,-7.104 -4.838,-9.088c-2.137,-1.962 -9.787,-8.016 -11.196,-8.862c-0.721,-0.434 -0.791,3.433 -0.483,27.158c0.196,15.217 0.554,28.183 0.796,28.813c0.312,0.816 0.9,-0.625 2.062,-5.071c0.892,-3.417 2.309,-7.692 3.146,-9.492Zm-142.204,-104.317c0.087,-7.325 -0.071,-13.55 -0.354,-13.833c-0.679,-0.679 -3.446,5.546 -4.671,10.508c-0.8,3.242 -0.85,4.505 -0.279,7.35c0.825,4.125 3.5,9.842 4.458,9.525c0.483,-0.162 0.733,-4.154 0.846,-13.55Zm6.737,8.859c2.096,-4.104 2.513,-7.617 1.455,-12.196c-1.046,-4.5 -3.505,-10.363 -4.35,-10.363c-1.13,0 -1.45,22.1 -0.367,25.546c0.367,1.179 1.817,-0.15 3.262,-2.987Zm125.455,-9.829c-0.238,-6.771 -0.63,-12.846 -0.875,-13.5c-0.35,-0.95 -0.859,-0.171 -2.48,3.808c-1.704,4.183 -2.041,5.746 -2.029,9.479c0.004,3.179 0.329,5.071 1.113,6.554c1.304,2.471 3.854,5.963 4.354,5.963c0.192,-0 0.154,-5.538 -0.083,-12.304Zm6.691,7.975c1.725,-1.838 3.113,-5.334 3.113,-7.842c-0,-2.258 -2.55,-10.892 -4.063,-13.758l-0.941,-1.788l-0.446,2.383c-0.954,5.134 -0.45,22.355 0.658,22.355c0.225,-0 0.979,-0.609 1.679,-1.35Zm-149.225,-11.8c1.979,-1.742 5.713,-8.2 5.713,-9.896c-0,-0.496 -0.704,-0.796 -1.867,-0.796c-1.362,-0 -2.4,0.562 -3.829,2.075c-2.379,2.525 -5.3,8.3 -4.821,9.537c0.55,1.438 2.554,1.055 4.804,-0.92Zm28.696,0.266c-1.312,-5.229 -5.621,-10.958 -8.242,-10.958c-1.795,-0 -2.204,0.867 -1.55,3.3c0.888,3.312 6.884,9.208 9.371,9.212c0.575,0.005 0.696,-0.445 0.421,-1.554Zm102.638,-1.746c2.8,-1.962 6.762,-9.45 5.812,-10.987c-0.958,-1.554 -7.075,3.854 -9.054,8.004c-1.629,3.408 0.212,5.1 3.242,2.983Zm30.266,-0.72c-1.016,-4.121 -6.412,-10.875 -8.687,-10.875c-1.684,-0 -1.534,2.616 0.362,6.425c1.896,3.8 4.496,6.091 6.921,6.091c1.671,0 1.775,-0.125 1.404,-1.641Zm-136.521,-13.805c2.221,-0.529 2.613,-2.1 0.784,-3.141c-1.938,-1.104 -25.821,-1.121 -27.75,-0.021c-1.479,0.846 -1.75,2.179 -0.596,2.921c1.692,1.096 23.196,1.279 27.562,0.241Zm132.471,-2.333c0.834,-0.462 1.342,-1.304 1.342,-2.225c-0,-2.471 -2.083,-2.883 -14.6,-2.883c-12.5,-0 -14.604,0.412 -14.604,2.866c-0,2.8 2.567,3.296 16.091,3.121c6.976,-0.091 10.875,-0.383 11.771,-0.879Zm-152.779,-8.65c0.425,-2.171 0.258,-4.25 -0.733,-9.287c-1.563,-7.921 -3.192,-12.413 -5.688,-15.684c-2.896,-3.8 -5.271,-4.933 -10.221,-4.891c-12.2,0.112 -19.333,10.237 -15.129,21.475c1.7,4.55 6.117,9.183 8.746,9.183c2.271,-0 3.163,-1.213 4.588,-6.258c1.212,-4.305 2.312,-5.663 4.587,-5.663c4.413,0 7.383,2.708 9.396,8.563c2.275,6.604 3.521,7.32 4.454,2.562Zm17.267,1.246c0.471,-0.738 1.262,-2.729 1.754,-4.425c1.246,-4.267 1.967,-5.446 4.158,-6.783c2.321,-1.413 5.625,-1.496 7.492,-0.188c1.667,1.163 3.05,4.254 3.05,6.796c-0,4.967 3.35,5.654 7.375,1.517c3.692,-3.8 7.162,-10.621 6.733,-13.246c-0.875,-5.396 -5.258,-11.492 -9.846,-13.696c-2.762,-1.325 -8.279,-1.758 -11.004,-0.858c-4.787,1.579 -9.104,9.004 -12.091,20.783c-2.009,7.908 -1.884,11.442 0.408,11.442c0.612,-0 1.5,-0.605 1.971,-1.342Zm133.666,-6.588c4.096,-8.154 6.642,-9.737 10.967,-6.82c3.454,2.329 4.875,5.829 3.863,9.533c-0.405,1.487 -0.3,1.637 1.133,1.637c3.933,0 9.179,-4.295 11.542,-9.45c2.72,-5.95 1.083,-13.641 -3.821,-17.95c-3.217,-2.82 -5.904,-3.791 -10.396,-3.745c-5.013,0.05 -7.8,1.245 -10,4.283c-3.604,4.971 -7.117,16.162 -7.688,24.479c-0.325,4.771 -0.283,5.017 0.696,4.204c0.571,-0.475 2.238,-3.25 3.704,-6.171Zm-145.291,-22.525c0.037,-12 -0.109,-24.67 -0.321,-28.158l-0.388,-6.35l-3.337,2.779c-9.788,8.15 -12.188,11.488 -12.142,16.884c0.038,4.145 1.15,7.154 5.371,14.554c3.825,6.7 6.925,14.487 8.138,20.441c0.454,2.225 1.041,5.117 1.304,6.43l0.483,2.383l0.413,-3.575c0.229,-1.967 0.445,-13.392 0.479,-25.388Zm5.7,20.438c1.966,-7.763 4.266,-13.588 8.637,-21.875c4.104,-7.783 4.925,-10.125 4.892,-14c-0.021,-3.358 -1.071,-5.667 -4.079,-8.996c-2.825,-3.125 -9.359,-8.296 -10.484,-8.296c-0.491,0 -1.087,0.738 -1.32,1.642c-0.517,1.983 -0.446,55.7 0.075,57.058c0.204,0.525 0.45,0.879 0.545,0.779c0.096,-0.095 0.875,-2.937 1.734,-6.312Zm101.562,4.929c0.65,-0.829 1.371,-2.637 1.604,-4.021c0.813,-4.9 2.642,-6.987 6.117,-6.987c2.633,-0 4.767,2.083 7.042,6.883c2.541,5.354 3.575,6.367 4.816,4.717c1.813,-2.409 -0.345,-12.704 -4.32,-20.596c-3.805,-7.567 -6.5,-9.613 -12.763,-9.692c-4.862,-0.058 -7.704,1.317 -11.567,5.613c-3.595,4.004 -4.983,8.321 -3.97,12.383c0.908,3.646 2.937,7.05 5.916,9.946c3.738,3.625 5.342,4.021 7.125,1.754Zm24.45,-35.596c0.042,-13.358 -0.075,-24.287 -0.262,-24.287c-0.192,-0 -2.213,1.108 -4.492,2.462c-5.354,3.184 -8.546,6.792 -9.492,10.738c-1.341,5.596 -0.1,10.571 4.725,18.929c3.68,6.383 5.85,11.971 6.967,17.937c0.458,2.459 1.029,5.142 1.263,5.963c0.808,2.842 1.212,-7.054 1.291,-31.742Zm9.038,19.546c0.7,-1.979 3.421,-8.071 6.046,-13.533c8,-16.667 7.416,-19.388 -6.309,-29.425l-4.716,-3.446l0.383,27.658c0.212,15.217 0.571,28.334 0.8,29.154c0.354,1.246 0.592,0.809 1.471,-2.662c0.575,-2.279 1.621,-5.767 2.325,-7.746Zm-259.846,-25.379c2.396,-1.221 3.65,-3.671 2.479,-4.846c-1.304,-1.3 -9.679,3.8 -9.679,5.892c-0,1.204 3.9,0.637 7.2,-1.046Zm-14.946,-7.083c0,-1.205 -3.096,-6.259 -5.208,-8.509c-1.029,-1.096 -1.571,-2.421 -1.696,-4.166c-0.208,-2.975 -1.825,-4.655 -4.471,-4.655c-1.579,0 -1.683,0.134 -1.354,1.78c0.279,1.391 0.117,1.866 -0.758,2.191c-1.609,0.592 -1.992,1.384 -2,4.117c-0.009,1.933 0.429,2.937 2.141,4.937c3.146,3.675 8.588,6.196 12.004,5.563c0.763,-0.142 1.342,-0.683 1.342,-1.258Zm202.017,-62.48c-0.025,-7.133 -0.254,-13.5 -0.509,-14.154c-0.42,-1.075 -0.562,-0.996 -1.512,0.842c-3.15,6.092 -4.688,15.258 -3.367,20.1c0.609,2.242 3.759,6.175 4.946,6.175c0.263,-0 0.463,-5.833 0.442,-12.963Zm6.771,7.892c1.491,-4.771 1.054,-10.783 -1.296,-17.692c-3.017,-8.887 -3.117,-8.683 -2.842,5.775c0.138,7.213 0.45,13.73 0.696,14.484c0.762,2.371 2.246,1.266 3.442,-2.567Zm-16.784,-13.8c2.638,-2.842 4.471,-7.462 3.729,-9.392c-0.2,-0.52 -0.962,-0.941 -1.7,-0.941c-2.291,-0 -9.295,11.2 -8.425,13.471c0.28,0.733 0.68,0.691 2.58,-0.288c1.233,-0.633 2.954,-1.917 3.816,-2.85Zm26.129,-2.25c-2.9,-5.942 -5.795,-8.925 -7.879,-8.129c-0.866,0.329 -1.296,0.942 -1.208,1.717c0.242,2.204 3.167,7.654 5.108,9.516c1.875,1.8 5.9,3.367 6.271,2.446c0.104,-0.258 -0.925,-2.758 -2.292,-5.55Zm-218.979,-1.225c1.134,-1.133 1.354,-1.737 0.925,-2.542c-1.054,-1.97 -2.962,-3.225 -5.387,-3.549c-2.267,-0.305 -6.017,0.666 -6.017,1.558c0,0.217 1.133,0.787 2.517,1.267c1.496,0.52 2.808,1.454 3.225,2.3c1.371,2.758 2.679,3.025 4.737,0.966Zm216.804,-11.204c1.809,-0.792 2.238,-1.275 2.084,-2.342c-0.292,-2.054 -2.759,-2.862 -10.946,-3.587c-12.929,-1.146 -20.121,0.546 -19.125,4.508c0.604,2.409 2.671,2.771 14.683,2.588c8.717,-0.134 11.504,-0.379 13.304,-1.167Zm-20.475,-11.092c1.625,-6.029 -3.366,-23.1 -8.037,-27.487c-1.367,-1.284 -2.233,-1.509 -6.475,-1.688c-7.05,-0.296 -9.563,0.546 -13.388,4.471c-4.008,4.117 -5.733,7.804 -5.2,11.125c0.909,5.696 7.109,14.113 10.392,14.113c2.129,-0 2.833,-0.821 3.967,-4.634c2.908,-9.791 13.396,-8.412 14.871,1.954c0.704,4.959 2.8,6.121 3.87,2.146Zm18.571,-1.75c2.921,-7.008 4.842,-9.033 8.584,-9.037c4.237,-0.004 7.562,5.525 6.191,10.296c-0.762,2.666 0.125,3.283 2.854,1.983c3.888,-1.854 7.767,-5.588 9.509,-9.142c4.258,-8.708 0.229,-19.171 -8.071,-20.95c-3.217,-0.691 -11.038,-0.029 -13.175,1.117c-3.063,1.642 -7.075,9.558 -9.317,18.404c-1.558,6.138 -1.741,8.496 -0.8,10.259c0.938,1.745 2.821,0.441 4.225,-2.93Zm-12.183,-20.775c0.133,-11.412 0.029,-25.258 -0.233,-30.766l-0.475,-10.017l-6.084,5.1c-11.712,9.817 -12.133,13.371 -3.733,31.738c5.092,11.137 6.654,15.254 8.054,21.204c0.692,2.925 1.3,4.416 1.658,4.058c0.325,-0.325 0.671,-9.338 0.813,-21.317Zm5.221,15.463c1.771,-7.567 4.366,-14.246 9.096,-23.396c4.775,-9.246 5.637,-12.475 4.366,-16.325c-0.821,-2.492 -5.312,-7.608 -10.387,-11.833c-5.534,-4.609 -5.388,-5.121 -5.638,19.683c-0.212,20.633 0.246,36.488 1.054,36.488c0.238,-0 0.913,-2.08 1.509,-4.617Z" style="fill-rule:nonzero;"/></g><g><path d="M844.769,308.921l3.224,24.18l0.303,2.519l-0.303,1.008c-0.336,0.604 -0.839,0.94 -1.511,1.007c-0.806,0.067 -2.015,-1.34 -3.627,-4.22c-12.572,-21.971 -29.615,-32.957 -51.129,-32.957c-17.143,0 -30.656,5.265 -40.539,15.794c-9.883,10.529 -14.824,24.913 -14.824,43.154c-0,20.991 5.496,38.142 16.487,51.454c10.992,13.312 25.127,19.968 42.406,19.968c10.084,0 20,-2.694 29.748,-8.084c9.748,-5.39 16.505,-11.924 20.269,-19.604c1.746,-3.572 3.09,-5.391 4.03,-5.458c1.075,-0.067 1.612,0.574 1.612,1.925l-0.101,1.113l-0.403,2.229l-2.317,12.355l-0.403,1.822c-0.269,1.747 -1.847,3.56 -4.735,5.441c-15.516,9.873 -32.609,14.81 -51.282,14.81c-21.627,0 -39.057,-6.41 -52.289,-19.23c-13.232,-12.82 -19.847,-29.7 -19.847,-50.641c-0,-20.941 6.85,-38.342 20.551,-52.202c13.701,-13.86 30.894,-20.79 51.579,-20.79c14.171,0 27.2,3.191 39.088,9.571l4.03,2.116l1.612,0.705l1.712,0.605c0.336,-0 0.841,-0.269 1.513,-0.806c1.48,-1.075 2.489,-1.612 3.027,-1.612c1.077,-0 1.784,1.276 2.119,3.828Z" style="fill:#d4ae21;fill-rule:nonzero;"/><path d="M912.473,390.428l0,-12.421c0,-7.679 -1.444,-12.987 -4.332,-15.924c-3.896,-4.007 -9.135,-6.011 -15.717,-6.011c-8.866,0 -13.299,3.73 -13.299,11.19c-0,2.197 0.437,4.728 1.31,7.592c0.403,1.199 0.638,2.264 0.705,3.197c0.067,1.199 -0.6,1.798 -2.001,1.798c-3.135,0 -5.986,-0.672 -8.554,-2.015c-2.568,-1.343 -3.852,-2.821 -3.852,-4.433c-0,-4.146 2.25,-8.627 6.75,-13.442c6.045,-6.487 14.071,-9.73 24.079,-9.73c9.135,-0 16.221,2.029 21.258,6.087c5.038,4.059 7.557,9.777 7.557,17.156l-0,39.445c-0,6.238 0.755,10.682 2.266,13.332c1.512,2.65 4.047,3.975 7.607,3.975c1.007,-0 1.813,-0.058 2.418,-0.173c1.209,-0.288 2.015,-0.432 2.418,-0.432c1.142,-0.067 1.679,0.403 1.612,1.411c-0.067,1.209 -1.651,2.435 -4.75,3.677c-3.1,1.243 -6.132,1.864 -9.095,1.864c-5.526,0 -10.512,-3.425 -14.958,-10.276c-9.722,7.388 -18.739,11.082 -27.052,11.082c-6.301,0 -11.312,-1.696 -15.033,-5.088c-3.721,-3.392 -5.581,-7.942 -5.581,-13.651c-0,-7.724 3.519,-13.719 10.556,-17.984c7.037,-4.265 18.933,-7.674 35.688,-10.226Zm0,4.03c-10.414,0.935 -18.458,3.289 -24.132,7.063c-5.674,3.774 -8.511,8.601 -8.511,14.48c0,4.608 1.352,8.265 4.055,10.971c2.704,2.705 6.359,4.058 10.965,4.058c5.607,-0 10.313,-1.836 14.119,-5.508c2.336,-2.336 3.504,-6.042 3.504,-11.116l0,-19.948Z" style="fill:#d4ae21;fill-rule:nonzero;"/><path d="M980.076,368.565c7.791,-12.224 14.978,-18.336 21.56,-18.336c2.083,-0 4.82,1.242 8.212,3.727c3.391,2.486 5.155,4.501 5.289,6.045c0.067,0.997 -1.004,2.842 -3.215,5.535c-2.21,2.692 -3.784,4.071 -4.721,4.137c-0.469,0 -1.942,-0.806 -4.42,-2.418c-2.88,-2.015 -5.626,-3.022 -8.238,-3.022c-4.086,-0 -7.501,1.48 -10.247,4.44c-2.746,2.96 -4.119,6.652 -4.119,11.075l-0,35.899c-0,5.631 0.755,9.637 2.267,12.016c1.511,2.38 4.147,3.737 7.908,4.072l5.239,0.403c2.15,0.135 3.224,0.806 3.224,2.015c0,1.343 -0.942,2.015 -2.827,2.015c-0.471,0 -2.053,-0.168 -4.746,-0.504c-1.279,-0.134 -3.165,-0.201 -5.656,-0.201l-7.272,-0.101l-4.444,0c-5.25,0 -8.986,0.168 -11.208,0.504c-1.75,0.269 -2.963,0.436 -3.636,0.504c-1.818,0.067 -2.727,-0.589 -2.727,-1.968c0,-1.116 1.041,-1.87 3.123,-2.264c2.889,-0.671 4.752,-1.914 5.592,-3.728c0.84,-1.813 1.259,-5.675 1.259,-11.586l0,-43.221c0,-7.724 -3.694,-11.587 -11.082,-11.587l-3.426,0.101c-1.544,0 -2.317,-0.689 -2.317,-2.068c0,-0.827 0.504,-1.448 1.511,-1.861c0.605,-0.134 1.344,-0.235 2.217,-0.302c6.314,-0.605 13.769,-3.56 22.366,-8.866c0.873,-0.47 1.646,-0.739 2.318,-0.806c1.544,-0.067 2.317,1.074 2.317,3.425l-0.101,1.914l0,15.012Z" style="fill:#d4ae21;fill-rule:nonzero;"/><path d="M1066.02,350.229c12.09,-0 22.468,4.243 31.132,12.73c8.665,8.486 12.997,18.6 12.997,30.34c-0,12.747 -4.265,23.28 -12.795,31.599c-8.531,8.32 -19.311,12.479 -32.341,12.479c-12.762,0 -23.256,-4.042 -31.484,-12.126c-8.228,-8.084 -12.342,-18.432 -12.342,-31.045c-0,-12.211 4.366,-22.593 13.097,-31.147c8.732,-8.553 19.311,-12.83 31.736,-12.83Zm-2.566,4.03c-8.381,-0 -15.136,3.106 -20.266,9.319c-5.13,6.213 -7.695,14.357 -7.695,24.432c0,12.829 3.202,23.558 9.606,32.189c6.404,8.631 14.366,12.947 23.887,12.947c8.315,-0 14.87,-3.056 19.665,-9.169c4.794,-6.112 7.191,-14.407 7.191,-24.885c0,-13.231 -3.017,-24.012 -9.052,-32.34c-6.035,-8.329 -13.814,-12.493 -23.336,-12.493Z" style="fill:#d4ae21;fill-rule:nonzero;"/><path d="M1144.66,293.31l-0,118.261c-0,5.512 0.638,9.747 1.914,12.704c1.477,3.36 5.642,5.612 12.493,6.755c1.88,0.328 2.854,1.017 2.921,2.067c0.068,1.51 -0.639,2.265 -2.12,2.265c-0.607,0 -1.482,-0.134 -2.626,-0.403c-1.01,-0.201 -2.525,-0.302 -4.545,-0.302l-8.787,0.101l-5.251,-0c-6.396,-0 -10.335,0.1 -11.816,0.302c-2.155,0.336 -3.434,0.504 -3.838,0.504c-1.751,-0 -2.66,-0.657 -2.727,-1.971c-0.067,-1.116 0.873,-1.937 2.821,-2.462c3.023,-0.873 5.054,-2.032 6.095,-3.476c1.042,-1.444 1.562,-3.778 1.562,-7.002l0,-111.732c0,-6.179 -2.149,-9.269 -6.448,-9.269l-5.037,0.202c-0.672,-0 -1.243,-0.069 -1.713,-0.206c-0.806,-0.344 -1.209,-0.896 -1.209,-1.655c-0,-0.964 0.876,-1.687 2.629,-2.169c2.292,-0.537 4.381,-1.175 6.268,-1.914l6.168,-2.519c4.719,-1.881 7.988,-3.493 9.807,-4.836c0.81,-0.537 1.484,-0.806 2.023,-0.806c1.011,-0.067 1.516,1.412 1.516,4.436l-0.1,3.125Z" style="fill:#d4ae21;fill-rule:nonzero;"/><path d="M1192.87,308.619c1.622,0 3.277,1.35 4.965,4.049l2.431,3.847c0.676,0.946 1.014,1.79 1.014,2.532c0.067,1.552 -1.081,3.711 -3.445,6.478c-2.364,2.767 -4.256,4.151 -5.675,4.151c-1.35,-0 -3.14,-1.35 -5.369,-4.05c-2.229,-2.7 -3.344,-4.826 -3.344,-6.378c0,-1.552 1.233,-3.711 3.699,-6.478c2.465,-2.767 4.374,-4.151 5.724,-4.151Zm6.294,109.801c0,4.775 0.521,7.969 1.562,9.583c1.041,1.614 3.24,2.656 6.599,3.128l4.634,0.503c2.418,0.329 3.594,1.182 3.527,2.559c-0.068,1.115 -0.976,1.673 -2.727,1.673c-1.145,-0 -3.334,-0.154 -6.566,-0.461c-1.818,-0.154 -4.174,-0.23 -7.07,-0.23l-6.465,-0.115l-7.374,0.403c-1.346,0.067 -2.39,0.168 -3.131,0.302c-1.75,0.202 -2.963,0.302 -3.636,0.302c-1.818,0 -2.727,-0.62 -2.727,-1.86c0,-1.033 0.605,-1.756 1.814,-2.17l1.914,-0.603c2.149,-0.737 3.644,-2.012 4.483,-3.823c0.84,-1.812 1.26,-4.729 1.26,-8.753l-0,-43.864c-0,-5.567 -0.538,-9.189 -1.612,-10.866c-1.075,-1.676 -3.392,-2.515 -6.952,-2.515c-2.552,0 -3.795,-0.525 -3.728,-1.577c0.067,-0.919 1.787,-1.905 5.159,-2.956c3.777,-1.276 8.565,-3.426 14.365,-6.448l5.361,-2.519c0.873,0.067 1.31,0.874 1.31,2.421l0,67.886Z" style="fill:#d4ae21;fill-rule:nonzero;"/><path d="M1253.37,366.248c9.001,-10.68 18.337,-16.019 28.009,-16.019c10.746,-0 19.243,4.404 25.489,13.214c4.299,6.053 6.448,15.266 6.448,27.64l0,24.109l-0.1,3.027l0.302,4.841c0.739,4.439 3.56,7.029 8.463,7.768l4.231,0.605c1.814,0.262 2.754,0.918 2.821,1.968c0.067,1.442 -1.038,2.163 -3.315,2.163c-0.738,-0 -2.044,-0.115 -3.92,-0.345c-2.21,-0.308 -6.296,-0.461 -12.258,-0.461l-9.949,0.302l-3.818,-0l-2.915,0.201l-1.406,-0.31c-0.469,-0.276 -0.704,-0.793 -0.704,-1.552c0,-1.035 0.605,-1.69 1.814,-1.966l3.022,-0.804c2.687,-0.671 4.03,-3.086 4.03,-7.245l0,-34.71c0,-9.323 -2.154,-16.517 -6.462,-21.581c-4.308,-5.063 -10.433,-7.595 -18.375,-7.595c-5.588,-0 -10.552,1.645 -14.894,4.936c-4.342,3.292 -6.513,7.053 -6.513,11.284l0,38.455l0.101,3.029l0.101,5.045c0.336,5.653 5.004,8.748 14.004,9.287c2.217,0.206 3.325,0.93 3.325,2.169c-0,1.24 -0.773,1.861 -2.317,1.861c-1.142,-0 -2.855,-0.192 -5.139,-0.577c-1.276,-0.153 -4.433,-0.229 -9.47,-0.229c-10.68,-0 -17.06,0.153 -19.143,0.461c-2.082,0.23 -3.425,0.345 -4.03,0.345c-1.276,-0 -1.88,-0.553 -1.813,-1.658c0.067,-0.829 0.705,-1.486 1.914,-1.969c3.426,-1.207 5.726,-2.683 6.902,-4.427c1.175,-1.744 1.763,-4.561 1.763,-8.45l-0,-45.475c-0,-4.762 -0.571,-7.998 -1.713,-9.709c-1.142,-1.71 -3.291,-2.565 -6.448,-2.565l-4.332,0.101c-0.605,-0 -1.142,-0.138 -1.612,-0.414c-0.605,-0.276 -0.907,-0.759 -0.907,-1.448c-0,-0.966 0.873,-1.621 2.619,-1.967c4.501,-0.806 8.833,-2.182 12.997,-4.13l5.34,-2.62c2.082,-1.007 3.392,-1.645 3.929,-1.914c0.94,-0.537 1.746,-0.806 2.418,-0.806c1.209,0 1.746,0.974 1.612,2.922c-0.067,1.074 -0.101,2.351 -0.101,3.828l0,11.385Z" style="fill:#d4ae21;fill-rule:nonzero;"/><path d="M1350.49,437.742l-0,-0.703c-4.567,-3.489 -6.851,-7.279 -6.851,-11.372c-0,-7.849 3.929,-14.525 11.788,-20.026c-8.933,-5.306 -13.4,-13.601 -13.4,-24.885c0,-8.732 2.939,-16.003 8.816,-21.812c5.877,-5.81 13.248,-8.715 22.114,-8.715c7.993,-0 15.18,2.015 21.561,6.045c2.283,1.477 3.929,2.216 4.936,2.216c2.418,0 5.139,-0.856 8.161,-2.569c3.022,-1.713 4.836,-3.409 5.44,-5.088l1.31,-3.828c0.202,-0.739 0.739,-1.142 1.612,-1.209c1.142,-0.067 1.713,0.742 1.713,2.429c-0,1.348 -0.521,3.962 -1.562,7.842c-1.041,3.879 -1.964,6.594 -2.77,8.145c-1.142,2.227 -3.124,3.746 -5.945,4.555c-1.276,0.402 -1.914,1.005 -1.914,1.808c0,0.47 0.101,1.106 0.302,1.91c0.605,2.144 0.907,4.992 0.907,8.543c0,7.638 -3.123,14.305 -9.369,20c-6.247,5.695 -13.534,8.542 -21.863,8.542c-3.56,0 -7.556,-0.403 -11.989,-1.209c-1.276,-0.268 -2.351,-0.403 -3.224,-0.403c-2.106,0 -4.143,1.17 -6.113,3.509c-1.97,2.339 -2.955,4.779 -2.955,7.319c0,3.476 1.85,5.949 5.551,7.419c3.7,1.47 9.991,2.205 18.872,2.205c13.253,0 22.622,1.377 28.105,4.131c5.483,2.754 8.224,7.489 8.224,14.206c0,7.724 -3.845,14.273 -11.536,19.646c-7.69,5.373 -17.11,8.06 -28.26,8.06c-10.746,0 -19.461,-1.844 -26.144,-5.532c-6.683,-3.688 -10.025,-8.549 -10.025,-14.583c0,-7.778 4.836,-13.31 14.508,-16.596Zm22.876,-84.088c-5.078,0 -9.371,2.275 -12.879,6.824c-3.508,4.55 -5.262,10.037 -5.262,16.46c0,8.364 1.888,15.221 5.663,20.574c3.775,5.352 8.569,8.028 14.382,8.028c5.479,0 9.906,-2.157 13.28,-6.473c3.374,-4.315 5.061,-9.986 5.061,-17.011c-0,-8.163 -1.921,-14.937 -5.763,-20.323c-3.843,-5.386 -8.67,-8.079 -14.482,-8.079Zm-18.443,85.617c-6.381,2.823 -9.571,7.461 -9.571,13.913c-0,5.376 2.241,9.594 6.723,12.652c4.483,3.058 10.633,4.587 18.452,4.587c9.167,0 16.817,-1.763 22.951,-5.289c6.133,-3.527 9.2,-7.943 9.2,-13.249c0,-6.246 -4.735,-9.37 -14.205,-9.37c-1.277,0 -4.836,-0.201 -10.68,-0.604l-10.679,-0.712c-5.038,-0.338 -9.101,-0.98 -12.191,-1.928Z" style="fill:#d4ae21;fill-rule:nonzero;"/><path d="M1447.26,308.619c1.622,0 3.277,1.35 4.965,4.049l2.431,3.847c0.676,0.946 1.014,1.79 1.014,2.532c0.067,1.552 -1.082,3.711 -3.446,6.478c-2.364,2.767 -4.255,4.151 -5.674,4.151c-1.351,-0 -3.14,-1.35 -5.37,-4.05c-2.229,-2.7 -3.343,-4.826 -3.343,-6.378c-0,-1.552 1.233,-3.711 3.698,-6.478c2.466,-2.767 4.374,-4.151 5.725,-4.151Zm6.294,109.801c-0,4.775 0.52,7.969 1.561,9.583c1.042,1.614 3.241,2.656 6.6,3.128l4.634,0.503c2.418,0.329 3.593,1.182 3.526,2.559c-0.067,1.115 -0.976,1.673 -2.726,1.673c-1.145,-0 -3.334,-0.154 -6.566,-0.461c-1.818,-0.154 -4.175,-0.23 -7.07,-0.23l-6.465,-0.115l-7.374,0.403c-1.347,0.067 -2.39,0.168 -3.131,0.302c-1.751,0.202 -2.963,0.302 -3.637,0.302c-1.817,0 -2.726,-0.62 -2.726,-1.86c-0,-1.033 0.604,-1.756 1.813,-2.17l1.915,-0.603c2.149,-0.737 3.643,-2.012 4.483,-3.823c0.84,-1.812 1.259,-4.729 1.259,-8.753l0,-43.864c0,-5.567 -0.537,-9.189 -1.612,-10.866c-1.074,-1.676 -3.392,-2.515 -6.951,-2.515c-2.553,0 -3.795,-0.525 -3.728,-1.577c0.067,-0.919 1.787,-1.905 5.159,-2.956c3.777,-1.276 8.565,-3.426 14.364,-6.448l5.362,-2.519c0.873,0.067 1.31,0.874 1.31,2.421l-0,67.886Z" style="fill:#d4ae21;fill-rule:nonzero;"/><path d="M1527.51,390.428l0,-12.421c0,-7.679 -1.444,-12.987 -4.332,-15.924c-3.896,-4.007 -9.135,-6.011 -15.717,-6.011c-8.866,0 -13.299,3.73 -13.299,11.19c-0,2.197 0.436,4.728 1.31,7.592c0.403,1.199 0.638,2.264 0.705,3.197c0.067,1.199 -0.6,1.798 -2.001,1.798c-3.135,0 -5.986,-0.672 -8.554,-2.015c-2.568,-1.343 -3.852,-2.821 -3.852,-4.433c-0,-4.146 2.25,-8.627 6.75,-13.442c6.045,-6.487 14.071,-9.73 24.079,-9.73c9.135,-0 16.221,2.029 21.258,6.087c5.038,4.059 7.556,9.777 7.556,17.156l0,39.445c0,6.238 0.756,10.682 2.267,13.332c1.512,2.65 4.047,3.975 7.607,3.975c1.007,-0 1.813,-0.058 2.418,-0.173c1.209,-0.288 2.015,-0.432 2.418,-0.432c1.142,-0.067 1.679,0.403 1.612,1.411c-0.067,1.209 -1.651,2.435 -4.75,3.677c-3.1,1.243 -6.132,1.864 -9.095,1.864c-5.526,0 -10.512,-3.425 -14.958,-10.276c-9.722,7.388 -18.739,11.082 -27.052,11.082c-6.301,0 -11.312,-1.696 -15.033,-5.088c-3.721,-3.392 -5.581,-7.942 -5.581,-13.651c-0,-7.724 3.519,-13.719 10.556,-17.984c7.037,-4.265 18.933,-7.674 35.688,-10.226Zm0,4.03c-10.414,0.935 -18.458,3.289 -24.132,7.063c-5.674,3.774 -8.511,8.601 -8.511,14.48c0,4.608 1.352,8.265 4.055,10.971c2.704,2.705 6.359,4.058 10.965,4.058c5.607,-0 10.313,-1.836 14.119,-5.508c2.336,-2.336 3.504,-6.042 3.504,-11.116l0,-19.948Z" style="fill:#d4ae21;fill-rule:nonzero;"/><path d="M1595.11,366.248c9,-10.68 18.336,-16.019 28.008,-16.019c10.747,-0 19.244,4.404 25.49,13.214c4.299,6.053 6.448,15.266 6.448,27.64l-0,24.109l-0.101,3.027l0.302,4.841c0.739,4.439 3.56,7.029 8.463,7.768l4.232,0.605c1.813,0.262 2.754,0.918 2.821,1.968c0.067,1.442 -1.038,2.163 -3.315,2.163c-0.738,-0 -2.045,-0.115 -3.92,-0.345c-2.21,-0.308 -6.296,-0.461 -12.259,-0.461l-9.949,0.302l-3.817,-0l-2.915,0.201l-1.406,-0.31c-0.469,-0.276 -0.704,-0.793 -0.704,-1.552c0,-1.035 0.605,-1.69 1.814,-1.966l3.022,-0.804c2.687,-0.671 4.03,-3.086 4.03,-7.245l0,-34.71c0,-9.323 -2.154,-16.517 -6.462,-21.581c-4.308,-5.063 -10.433,-7.595 -18.376,-7.595c-5.587,-0 -10.552,1.645 -14.893,4.936c-4.342,3.292 -6.513,7.053 -6.513,11.284l-0,38.455l0.101,3.029l0.1,5.045c0.336,5.653 5.004,8.748 14.005,9.287c2.216,0.206 3.324,0.93 3.324,2.169c0,1.24 -0.772,1.861 -2.317,1.861c-1.142,-0 -2.854,-0.192 -5.138,-0.577c-1.276,-0.153 -4.433,-0.229 -9.471,-0.229c-10.679,-0 -17.06,0.153 -19.142,0.461c-2.082,0.23 -3.425,0.345 -4.03,0.345c-1.276,-0 -1.881,-0.553 -1.813,-1.658c0.067,-0.829 0.705,-1.486 1.914,-1.969c3.425,-1.207 5.726,-2.683 6.901,-4.427c1.176,-1.744 1.763,-4.561 1.763,-8.45l0,-45.475c0,-4.762 -0.571,-7.998 -1.712,-9.709c-1.142,-1.71 -3.292,-2.565 -6.448,-2.565l-4.333,0.101c-0.604,-0 -1.141,-0.138 -1.612,-0.414c-0.604,-0.276 -0.906,-0.759 -0.906,-1.448c-0,-0.966 0.873,-1.621 2.619,-1.967c4.5,-0.806 8.832,-2.182 12.997,-4.13l5.34,-2.62c2.082,-1.007 3.391,-1.645 3.929,-1.914c0.94,-0.537 1.746,-0.806 2.418,-0.806c1.209,0 1.746,0.974 1.612,2.922c-0.067,1.074 -0.101,2.351 -0.101,3.828l-0,11.385Z" style="fill:#d4ae21;fill-rule:nonzero;"/><path d="M1803.46,365.714l27.807,40.999l3.224,4.823c8.597,12.594 16.523,19.126 23.777,19.595l3.224,0.204c1.209,0.069 1.78,0.548 1.713,1.438c-0.068,1.025 -1.562,1.948 -4.484,2.769c-2.921,0.82 -6.229,1.231 -9.924,1.231c-6.045,-0 -11.468,-1.663 -16.271,-4.987c-4.802,-3.325 -9.688,-8.749 -14.659,-16.272l-25.086,-38.284l-1.411,-2.217c-1.612,-2.754 -4.231,-4.131 -7.858,-4.131l-13.4,0l-2.216,0.405c-0.806,0.471 -1.209,1.55 -1.209,3.235l-0,31.538l0.1,4.042c0,5.796 0.286,9.755 0.857,11.878c0.571,2.123 1.931,4.027 4.08,5.711c2.888,2.291 7.355,3.74 13.4,4.346c2.418,0.263 3.66,1.017 3.727,2.264c0.135,1.312 -0.973,1.968 -3.324,1.968c-0.941,-0 -2.922,-0.149 -5.945,-0.447c-2.753,-0.299 -7.018,-0.449 -12.795,-0.449l-9.672,-0.112l-5.239,0.101c-2.283,0 -5.037,0.168 -8.261,0.504c-2.62,0.269 -4.433,0.403 -5.441,0.403c-1.679,-0 -2.518,-0.688 -2.518,-2.064c-0,-0.983 0.839,-1.639 2.518,-1.966c5.374,-1.009 8.9,-3.447 10.579,-7.315c1.679,-3.869 2.519,-11.487 2.519,-22.855l-0,-72.45l-0.202,-10.494c0,-10.494 -3.66,-16.347 -10.981,-17.557l-4.736,-0.707c-2.149,-0.393 -3.224,-1.181 -3.224,-2.364c0,-1.379 1.142,-2.069 3.426,-2.069c0.537,0 2.888,0.135 7.052,0.403c2.418,0.202 5.407,0.303 8.967,0.303c3.09,-0 8.362,-0.235 15.818,-0.706c5.373,-0.335 10.108,-0.503 14.205,-0.503c15.449,-0 27.102,2.908 34.961,8.723c7.858,5.816 11.787,14.472 11.787,25.969c0,15.128 -8.295,26.827 -24.885,35.097Zm-29.604,-2.186l11.408,-0c8.818,-0 15.751,-2.426 20.799,-7.279c5.049,-4.852 7.573,-11.49 7.573,-19.913c-0,-9.771 -3.433,-17.808 -10.299,-24.109c-6.865,-6.301 -15.616,-9.451 -26.251,-9.451c-3.971,-0 -6.714,0.657 -8.229,1.971c-1.514,1.314 -2.271,3.689 -2.271,7.126l0.101,3.336l-0,41.041c-0,3.167 0.42,5.172 1.261,6.014c0.841,0.843 2.811,1.264 5.908,1.264Z" style="fill:#d4ae21;fill-rule:nonzero;"/><path d="M1909.75,350.229c12.09,-0 22.467,4.243 31.132,12.73c8.664,8.486 12.996,18.6 12.996,30.34c0,12.747 -4.265,23.28 -12.795,31.599c-8.53,8.32 -19.31,12.479 -32.341,12.479c-12.761,0 -23.256,-4.042 -31.484,-12.126c-8.228,-8.084 -12.342,-18.432 -12.342,-31.045c0,-12.211 4.366,-22.593 13.098,-31.147c8.731,-8.553 19.31,-12.83 31.736,-12.83Zm-2.566,4.03c-8.381,-0 -15.137,3.106 -20.266,9.319c-5.13,6.213 -7.695,14.357 -7.695,24.432c-0,12.829 3.202,23.558 9.606,32.189c6.404,8.631 14.366,12.947 23.887,12.947c8.315,-0 14.87,-3.056 19.664,-9.169c4.795,-6.112 7.192,-14.407 7.192,-24.885c-0,-13.231 -3.018,-24.012 -9.053,-32.34c-6.035,-8.329 -13.813,-12.493 -23.335,-12.493Z" style="fill:#d4ae21;fill-rule:nonzero;"/><path d="M2004.45,420.451l15.199,-41.609c1.621,-4.501 2.432,-8.463 2.432,-11.889c-0,-3.224 -0.739,-5.558 -2.217,-7.002c-1.477,-1.444 -4.332,-2.67 -8.563,-3.677c-1.612,-0.345 -2.418,-1.068 -2.418,-2.171c-0,-1.24 0.669,-1.826 2.008,-1.759c0.87,0.068 2.209,0.168 4.018,0.303c1.473,0.134 4.486,0.201 9.039,0.201c5.022,0 8.537,-0.067 10.545,-0.201c2.277,-0.135 3.783,-0.202 4.52,-0.202c1.406,0 2.109,0.586 2.109,1.757c0,0.895 -0.705,1.653 -2.115,2.273c-2.62,1.008 -4.484,2.15 -5.592,3.426c-1.108,1.276 -2.267,3.56 -3.476,6.851l-35.665,100.548l-1.008,3.224c-0.537,1.746 -1.175,2.754 -1.914,3.022c-0.739,0.269 -3.09,0.403 -7.052,0.403c-4.568,0 -6.851,-0.484 -6.851,-1.453c-0,-0.554 0.403,-1.211 1.209,-1.972c4.634,-4.62 8.715,-10.161 12.241,-16.622c3.526,-6.462 5.289,-11.634 5.289,-15.517c0,-2.017 -1.276,-6.019 -3.828,-12.004l-25.289,-58.708c-1.679,-3.901 -3.173,-6.591 -4.483,-8.071c-1.31,-1.479 -3.14,-2.521 -5.491,-3.127c-1.477,-0.393 -2.216,-1.016 -2.216,-1.867c-0,-1.442 0.971,-2.163 2.914,-2.163c1.407,0 3.182,0.101 5.325,0.302c1.608,0.202 4.991,0.303 10.149,0.303c6.297,-0 10.718,-0.101 13.264,-0.303c1.674,-0.134 2.88,-0.201 3.618,-0.201c1.808,-0.067 2.712,0.59 2.712,1.971c0,1.183 -1.813,2.037 -5.44,2.563c-4.03,0.605 -6.045,2.287 -6.045,5.045c-0,2.422 1.079,6.156 3.238,11.201l19.834,47.125Z" style="fill:#d4ae21;fill-rule:nonzero;"/><path d="M2092.41,390.428l-0,-12.421c-0,-7.679 -1.444,-12.987 -4.332,-15.924c-3.896,-4.007 -9.135,-6.011 -15.717,-6.011c-8.866,0 -13.299,3.73 -13.299,11.19c-0,2.197 0.436,4.728 1.31,7.592c0.403,1.199 0.638,2.264 0.705,3.197c0.067,1.199 -0.6,1.798 -2.001,1.798c-3.135,0 -5.986,-0.672 -8.554,-2.015c-2.568,-1.343 -3.852,-2.821 -3.852,-4.433c-0,-4.146 2.25,-8.627 6.75,-13.442c6.045,-6.487 14.071,-9.73 24.079,-9.73c9.135,-0 16.221,2.029 21.258,6.087c5.038,4.059 7.556,9.777 7.556,17.156l0,39.445c0,6.238 0.756,10.682 2.267,13.332c1.512,2.65 4.047,3.975 7.607,3.975c1.007,-0 1.813,-0.058 2.418,-0.173c1.209,-0.288 2.015,-0.432 2.418,-0.432c1.142,-0.067 1.679,0.403 1.612,1.411c-0.067,1.209 -1.651,2.435 -4.75,3.677c-3.1,1.243 -6.132,1.864 -9.095,1.864c-5.526,0 -10.512,-3.425 -14.958,-10.276c-9.722,7.388 -18.739,11.082 -27.052,11.082c-6.301,0 -11.312,-1.696 -15.033,-5.088c-3.721,-3.392 -5.581,-7.942 -5.581,-13.651c-0,-7.724 3.519,-13.719 10.556,-17.984c7.037,-4.265 18.933,-7.674 35.688,-10.226Zm-0,4.03c-10.414,0.935 -18.458,3.289 -24.132,7.063c-5.674,3.774 -8.511,8.601 -8.511,14.48c0,4.608 1.352,8.265 4.055,10.971c2.704,2.705 6.359,4.058 10.965,4.058c5.607,-0 10.313,-1.836 14.119,-5.508c2.336,-2.336 3.504,-6.042 3.504,-11.116l-0,-19.948Z" style="fill:#d4ae21;fill-rule:nonzero;"/><path d="M2158.1,293.31l-0,118.261c-0,5.512 0.638,9.747 1.914,12.704c1.478,3.36 5.642,5.612 12.493,6.755c1.881,0.328 2.854,1.017 2.922,2.067c0.067,1.51 -0.64,2.265 -2.121,2.265c-0.606,0 -1.482,-0.134 -2.626,-0.403c-1.01,-0.201 -2.525,-0.302 -4.544,-0.302l-8.788,0.101l-5.251,-0c-6.396,-0 -10.334,0.1 -11.816,0.302c-2.155,0.336 -3.434,0.504 -3.838,0.504c-1.751,-0 -2.66,-0.657 -2.727,-1.971c-0.067,-1.116 0.873,-1.937 2.821,-2.462c3.023,-0.873 5.055,-2.032 6.096,-3.476c1.041,-1.444 1.561,-3.778 1.561,-7.002l0,-111.732c0,-6.179 -2.149,-9.269 -6.448,-9.269l-5.037,0.202c-0.672,-0 -1.243,-0.069 -1.713,-0.206c-0.806,-0.344 -1.209,-0.896 -1.209,-1.655c0,-0.964 0.876,-1.687 2.629,-2.169c2.292,-0.537 4.382,-1.175 6.269,-1.914l6.167,-2.519c4.719,-1.881 7.988,-3.493 9.808,-4.836c0.809,-0.537 1.483,-0.806 2.023,-0.806c1.01,-0.067 1.515,1.412 1.515,4.436l-0.1,3.125Z" style="fill:#d4ae21;fill-rule:nonzero;"/><path d="M2204.35,362.419l-0,50.677c-0,6.583 0.94,10.848 2.821,12.796c2.754,2.888 6.683,4.332 11.788,4.332c4.097,-0 7.556,-0.739 10.377,-2.217l5.239,-2.518l0.604,-0.202c0.806,0 1.209,0.366 1.209,1.099c0,2.199 -2.653,4.58 -7.959,7.145c-5.306,2.564 -10.243,3.846 -14.81,3.846c-15.448,0 -23.173,-8.049 -23.173,-24.147l0,-50.811l-8.966,0c-1.747,0 -2.62,-0.509 -2.62,-1.527c0,-0.943 0.873,-2.156 2.62,-3.638c7.858,-6.669 13.87,-13.338 18.034,-20.008c1.813,-2.965 3.089,-4.447 3.828,-4.447c0.941,0 1.411,0.873 1.411,2.62l-0.403,17.429l21.459,0c2.956,0 5.239,-0.537 6.851,-1.612c1.008,-0.739 1.747,-1.142 2.217,-1.209c0.739,-0.134 1.075,0.239 1.007,1.12c0,0.337 -0.302,1.184 -0.906,2.539l-2.318,5.788c-0.738,1.964 -2.216,2.945 -4.433,2.945l-23.877,0Z" style="fill:#d4ae21;fill-rule:nonzero;"/><path d="M2290.68,420.451l15.199,-41.609c1.622,-4.501 2.432,-8.463 2.432,-11.889c0,-3.224 -0.738,-5.558 -2.216,-7.002c-1.478,-1.444 -4.332,-2.67 -8.564,-3.677c-1.612,-0.345 -2.418,-1.068 -2.418,-2.171c0,-1.24 0.67,-1.826 2.009,-1.759c0.87,0.068 2.209,0.168 4.017,0.303c1.474,0.134 4.487,0.201 9.039,0.201c5.022,0 8.537,-0.067 10.546,-0.201c2.276,-0.135 3.783,-0.202 4.52,-0.202c1.406,0 2.109,0.586 2.109,1.757c0,0.895 -0.705,1.653 -2.116,2.273c-2.619,1.008 -4.483,2.15 -5.591,3.426c-1.109,1.276 -2.267,3.56 -3.476,6.851l-35.666,100.548l-1.007,3.224c-0.537,1.746 -1.175,2.754 -1.914,3.022c-0.739,0.269 -3.09,0.403 -7.053,0.403c-4.567,0 -6.851,-0.484 -6.851,-1.453c0,-0.554 0.403,-1.211 1.209,-1.972c4.635,-4.62 8.715,-10.161 12.241,-16.622c3.527,-6.462 5.29,-11.634 5.29,-15.517c-0,-2.017 -1.276,-6.019 -3.829,-12.004l-25.288,-58.708c-1.679,-3.901 -3.174,-6.591 -4.483,-8.071c-1.31,-1.479 -3.14,-2.521 -5.491,-3.127c-1.478,-0.393 -2.217,-1.016 -2.217,-1.867c0,-1.442 0.972,-2.163 2.914,-2.163c1.408,0 3.183,0.101 5.326,0.302c1.608,0.202 4.991,0.303 10.149,0.303c6.297,-0 10.718,-0.101 13.264,-0.303c1.674,-0.134 2.88,-0.201 3.618,-0.201c1.808,-0.067 2.712,0.59 2.712,1.971c-0,1.183 -1.814,2.037 -5.441,2.563c-4.03,0.605 -6.044,2.287 -6.044,5.045c-0,2.422 1.079,6.156 3.238,11.201l19.833,47.125Z" style="fill:#d4ae21;fill-rule:nonzero;"/><path d="M2454.3,365.714l27.806,40.999l3.224,4.823c8.598,12.594 16.523,19.126 23.777,19.595l3.224,0.204c1.209,0.069 1.78,0.548 1.713,1.438c-0.067,1.025 -1.562,1.948 -4.483,2.769c-2.922,0.82 -6.23,1.231 -9.924,1.231c-6.045,-0 -11.469,-1.663 -16.271,-4.987c-4.803,-3.325 -9.689,-8.749 -14.659,-16.272l-25.087,-38.284l-1.41,-2.217c-1.612,-2.754 -4.232,-4.131 -7.859,-4.131l-13.4,0l-2.216,0.405c-0.806,0.471 -1.209,1.55 -1.209,3.235l-0,31.538l0.101,4.042c-0,5.796 0.285,9.755 0.856,11.878c0.571,2.123 1.931,4.027 4.08,5.711c2.889,2.291 7.355,3.74 13.4,4.346c2.418,0.263 3.661,1.017 3.728,2.264c0.134,1.312 -0.974,1.968 -3.325,1.968c-0.94,-0 -2.922,-0.149 -5.944,-0.447c-2.754,-0.299 -7.019,-0.449 -12.795,-0.449l-9.672,-0.112l-5.239,0.101c-2.284,0 -5.038,0.168 -8.262,0.504c-2.619,0.269 -4.433,0.403 -5.44,0.403c-1.679,-0 -2.519,-0.688 -2.519,-2.064c0,-0.983 0.84,-1.639 2.519,-1.966c5.373,-1.009 8.899,-3.447 10.578,-7.315c1.68,-3.869 2.519,-11.487 2.519,-22.855l0,-72.45l-0.201,-10.494c-0,-10.494 -3.661,-16.347 -10.982,-17.557l-4.735,-0.707c-2.15,-0.393 -3.224,-1.181 -3.224,-2.364c-0,-1.379 1.142,-2.069 3.425,-2.069c0.538,0 2.888,0.135 7.053,0.403c2.418,0.202 5.407,0.303 8.966,0.303c3.09,-0 8.363,-0.235 15.818,-0.706c5.373,-0.335 10.109,-0.503 14.206,-0.503c15.448,-0 27.101,2.908 34.96,8.723c7.858,5.816 11.788,14.472 11.788,25.969c-0,15.128 -8.295,26.827 -24.885,35.097Zm-29.605,-2.186l11.408,-0c8.818,-0 15.751,-2.426 20.799,-7.279c5.049,-4.852 7.573,-11.49 7.573,-19.913c0,-9.771 -3.433,-17.808 -10.298,-24.109c-6.866,-6.301 -15.616,-9.451 -26.252,-9.451c-3.971,-0 -6.714,0.657 -8.228,1.971c-1.515,1.314 -2.272,3.689 -2.272,7.126l0.101,3.336l-0,41.041c-0,3.167 0.42,5.172 1.262,6.014c0.841,0.843 2.81,1.264 5.907,1.264Z" style="fill:#d4ae21;fill-rule:nonzero;"/><path d="M2530.16,384.685l-0.101,2.217c0,11.485 3.179,21.14 9.537,28.965c6.357,7.825 14.179,11.737 23.463,11.737c7.334,0 15.307,-3.291 23.919,-9.873c0.538,-0.403 1.043,-0.638 1.513,-0.705c0.942,-0.067 1.413,0.467 1.413,1.604c0,2.004 -2.35,4.845 -7.052,8.521c-8.732,6.817 -17.967,10.226 -27.706,10.226c-10.948,0 -20.133,-4.159 -27.555,-12.479c-7.422,-8.319 -11.133,-18.617 -11.133,-30.894c0,-11.673 3.828,-21.887 11.485,-30.642c7.657,-8.756 16.624,-13.133 26.901,-13.133c11.216,-0 20.183,4.668 26.9,14.004c1.612,2.284 3.257,5.373 4.936,9.269c1.68,3.896 2.519,6.616 2.519,8.161c0,2.216 -2.186,3.324 -6.56,3.324l-7.468,-0.1l-6.863,-0.202l-38.148,0Zm0.604,-5.541l34.155,-0c5.306,-0 7.959,-1.075 7.959,-3.224c-0,-5.239 -2.267,-10.109 -6.801,-14.609c-4.534,-4.5 -9.453,-6.75 -14.76,-6.75c-5.507,-0 -10.091,2.2 -13.752,6.599c-3.661,4.399 -5.927,10.394 -6.801,17.984Z" style="fill:#d4ae21;fill-rule:nonzero;"/><path d="M2613.99,437.742l-0,-0.703c-4.568,-3.489 -6.851,-7.279 -6.851,-11.372c-0,-7.849 3.929,-14.525 11.787,-20.026c-8.933,-5.306 -13.399,-13.601 -13.399,-24.885c-0,-8.732 2.938,-16.003 8.815,-21.812c5.877,-5.81 13.249,-8.715 22.115,-8.715c7.993,-0 15.179,2.015 21.56,6.045c2.284,1.477 3.929,2.216 4.937,2.216c2.418,0 5.138,-0.856 8.161,-2.569c3.022,-1.713 4.836,-3.409 5.44,-5.088l1.31,-3.828c0.201,-0.739 0.739,-1.142 1.612,-1.209c1.142,-0.067 1.713,0.742 1.713,2.429c-0,1.348 -0.521,3.962 -1.562,7.842c-1.041,3.879 -1.965,6.594 -2.771,8.145c-1.141,2.227 -3.123,3.746 -5.944,4.555c-1.276,0.402 -1.914,1.005 -1.914,1.808c-0,0.47 0.101,1.106 0.302,1.91c0.605,2.144 0.907,4.992 0.907,8.543c-0,7.638 -3.123,14.305 -9.37,20c-6.246,5.695 -13.534,8.542 -21.862,8.542c-3.56,0 -7.557,-0.403 -11.99,-1.209c-1.276,-0.268 -2.351,-0.403 -3.224,-0.403c-2.105,0 -4.142,1.17 -6.112,3.509c-1.97,2.339 -2.955,4.779 -2.955,7.319c-0,3.476 1.85,5.949 5.551,7.419c3.7,1.47 9.991,2.205 18.871,2.205c13.254,0 22.622,1.377 28.105,4.131c5.483,2.754 8.225,7.489 8.225,14.206c-0,7.724 -3.845,14.273 -11.536,19.646c-7.691,5.373 -17.111,8.06 -28.26,8.06c-10.747,0 -19.462,-1.844 -26.145,-5.532c-6.683,-3.688 -10.024,-8.549 -10.024,-14.583c-0,-7.778 4.836,-13.31 14.508,-16.596Zm22.876,-84.088c-5.078,0 -9.371,2.275 -12.879,6.824c-3.508,4.55 -5.262,10.037 -5.262,16.46c-0,8.364 1.887,15.221 5.662,20.574c3.775,5.352 8.569,8.028 14.382,8.028c5.48,0 9.906,-2.157 13.28,-6.473c3.374,-4.315 5.061,-9.986 5.061,-17.011c0,-8.163 -1.921,-14.937 -5.763,-20.323c-3.842,-5.386 -8.669,-8.079 -14.481,-8.079Zm-18.443,85.617c-6.381,2.823 -9.572,7.461 -9.572,13.913c0,5.376 2.242,9.594 6.724,12.652c4.482,3.058 10.633,4.587 18.451,4.587c9.167,0 16.818,-1.763 22.951,-5.289c6.134,-3.527 9.201,-7.943 9.201,-13.249c-0,-6.246 -4.735,-9.37 -14.206,-9.37c-1.276,0 -4.836,-0.201 -10.679,-0.604l-10.68,-0.712c-5.037,-0.338 -9.101,-0.98 -12.19,-1.928Z" style="fill:#d4ae21;fill-rule:nonzero;"/><path d="M2710.76,308.619c1.621,0 3.276,1.35 4.965,4.049l2.43,3.847c0.676,0.946 1.014,1.79 1.014,2.532c0.067,1.552 -1.081,3.711 -3.445,6.478c-2.364,2.767 -4.255,4.151 -5.674,4.151c-1.351,-0 -3.141,-1.35 -5.37,-4.05c-2.229,-2.7 -3.343,-4.826 -3.343,-6.378c-0,-1.552 1.232,-3.711 3.698,-6.478c2.466,-2.767 4.374,-4.151 5.725,-4.151Zm6.293,109.801c0,4.775 0.521,7.969 1.562,9.583c1.041,1.614 3.241,2.656 6.599,3.128l4.635,0.503c2.418,0.329 3.593,1.182 3.526,2.559c-0.067,1.115 -0.976,1.673 -2.727,1.673c-1.145,-0 -3.333,-0.154 -6.566,-0.461c-1.817,-0.154 -4.174,-0.23 -7.069,-0.23l-6.466,-0.115l-7.373,0.403c-1.347,0.067 -2.391,0.168 -3.131,0.302c-1.751,0.202 -2.963,0.302 -3.637,0.302c-1.818,0 -2.726,-0.62 -2.726,-1.86c-0,-1.033 0.604,-1.756 1.813,-2.17l1.914,-0.603c2.15,-0.737 3.644,-2.012 4.484,-3.823c0.839,-1.812 1.259,-4.729 1.259,-8.753l0,-43.864c0,-5.567 -0.537,-9.189 -1.612,-10.866c-1.075,-1.676 -3.392,-2.515 -6.952,-2.515c-2.552,0 -3.795,-0.525 -3.727,-1.577c0.067,-0.919 1.786,-1.905 5.158,-2.956c3.777,-1.276 8.566,-3.426 14.365,-6.448l5.362,-2.519c0.873,0.067 1.309,0.874 1.309,2.421l0,67.886Z" style="fill:#d4ae21;fill-rule:nonzero;"/><path d="M2771.66,350.229c5.306,-0 9.873,0.695 13.702,2.084l4.433,1.489c1.813,0.661 2.72,1.687 2.72,3.076l-0,1.612c-0,0.941 0.067,1.881 0.201,2.821l0.403,3.929c0.202,1.411 0.303,2.687 0.303,3.829c-0,2.619 -0.756,3.963 -2.267,4.03c-0.824,0.067 -1.58,-0.806 -2.267,-2.62c-3.694,-10.209 -10.612,-15.314 -20.755,-15.314c-4.029,0 -7.337,1.146 -9.923,3.438c-2.586,2.291 -3.879,5.189 -3.879,8.693c-0,3.707 1.394,6.706 4.181,8.998c2.787,2.291 8.412,5.088 16.875,8.391c8.396,3.285 14.223,6.754 17.481,10.408c3.257,3.654 4.886,8.564 4.886,14.731c-0,7.576 -2.804,14.062 -8.413,19.459c-5.608,5.396 -12.308,8.094 -20.099,8.094c-5.575,0 -11.62,-1.578 -18.135,-4.735c-1.545,-0.739 -2.519,-1.108 -2.922,-1.108l-2.619,-0.303c-1.545,-0.133 -2.385,-0.969 -2.519,-2.509l-0.101,-4.315l-0.302,-12.845l0.206,-3.01c0.274,-1.806 1.028,-2.743 2.262,-2.81c1.234,-0.067 2.057,0.94 2.469,3.022c1.41,7.389 4.147,13.165 8.211,17.329c4.063,4.165 8.95,6.247 14.659,6.247c4.903,-0 8.916,-1.449 12.039,-4.345c3.124,-2.897 4.685,-6.601 4.685,-11.114c0,-6.871 -3.795,-11.991 -11.385,-15.36l-8.866,-3.94c-8.059,-3.485 -13.769,-7.088 -17.127,-10.808c-3.358,-3.72 -5.037,-8.26 -5.037,-13.622c-0,-6.434 2.585,-11.863 7.757,-16.287c5.172,-4.423 11.553,-6.635 19.143,-6.635Z" style="fill:#d4ae21;fill-rule:nonzero;"/><path d="M2835.43,362.419l0,50.677c0,6.583 0.941,10.848 2.821,12.796c2.754,2.888 6.683,4.332 11.788,4.332c4.097,-0 7.556,-0.739 10.377,-2.217l5.239,-2.518l0.605,-0.202c0.806,0 1.209,0.366 1.209,1.099c-0,2.199 -2.653,4.58 -7.96,7.145c-5.306,2.564 -10.242,3.846 -14.81,3.846c-15.448,0 -23.172,-8.049 -23.172,-24.147l-0,-50.811l-8.967,0c-1.746,0 -2.619,-0.509 -2.619,-1.527c-0,-0.943 0.873,-2.156 2.619,-3.638c7.859,-6.669 13.87,-13.338 18.034,-20.008c1.814,-2.965 3.09,-4.447 3.829,-4.447c0.94,0 1.41,0.873 1.41,2.62l-0.403,17.429l21.46,0c2.955,0 5.239,-0.537 6.851,-1.612c1.007,-0.739 1.746,-1.142 2.216,-1.209c0.739,-0.134 1.075,0.239 1.008,1.12c-0,0.337 -0.302,1.184 -0.907,2.539l-2.317,5.788c-0.739,1.964 -2.217,2.945 -4.433,2.945l-23.878,0Z" style="fill:#d4ae21;fill-rule:nonzero;"/><path d="M2901.62,368.565c7.791,-12.224 14.978,-18.336 21.56,-18.336c2.082,-0 4.819,1.242 8.211,3.727c3.392,2.486 5.155,4.501 5.29,6.045c0.067,0.997 -1.005,2.842 -3.215,5.535c-2.21,2.692 -3.784,4.071 -4.721,4.137c-0.469,0 -1.943,-0.806 -4.42,-2.418c-2.88,-2.015 -5.626,-3.022 -8.238,-3.022c-4.086,-0 -7.502,1.48 -10.248,4.44c-2.746,2.96 -4.119,6.652 -4.119,11.075l0,35.899c0,5.631 0.756,9.637 2.267,12.016c1.512,2.38 4.148,3.737 7.909,4.072l5.239,0.403c2.149,0.135 3.224,0.806 3.224,2.015c0,1.343 -0.942,2.015 -2.827,2.015c-0.471,0 -2.053,-0.168 -4.746,-0.504c-1.28,-0.134 -3.165,-0.201 -5.657,-0.201l-7.271,-0.101l-4.444,0c-5.25,0 -8.986,0.168 -11.208,0.504c-1.751,0.269 -2.963,0.436 -3.637,0.504c-1.817,0.067 -2.726,-0.589 -2.726,-1.968c-0,-1.116 1.041,-1.87 3.123,-2.264c2.888,-0.671 4.752,-1.914 5.592,-3.728c0.839,-1.813 1.259,-5.675 1.259,-11.586l0,-43.221c0,-7.724 -3.694,-11.587 -11.082,-11.587l-3.426,0.101c-1.545,0 -2.317,-0.689 -2.317,-2.068c-0,-0.827 0.504,-1.448 1.511,-1.861c0.605,-0.134 1.343,-0.235 2.217,-0.302c6.313,-0.605 13.769,-3.56 22.366,-8.866c0.873,-0.47 1.646,-0.739 2.317,-0.806c1.545,-0.067 2.317,1.074 2.317,3.425l-0.1,1.914l-0,15.012Z" style="fill:#d4ae21;fill-rule:nonzero;"/><path d="M2992.9,420.451l15.199,-41.609c1.621,-4.501 2.432,-8.463 2.432,-11.889c0,-3.224 -0.739,-5.558 -2.216,-7.002c-1.478,-1.444 -4.333,-2.67 -8.564,-3.677c-1.612,-0.345 -2.418,-1.068 -2.418,-2.171c-0,-1.24 0.669,-1.826 2.009,-1.759c0.87,0.068 2.209,0.168 4.017,0.303c1.473,0.134 4.486,0.201 9.039,0.201c5.022,0 8.537,-0.067 10.546,-0.201c2.276,-0.135 3.783,-0.202 4.519,-0.202c1.407,0 2.11,0.586 2.11,1.757c-0,0.895 -0.706,1.653 -2.116,2.273c-2.62,1.008 -4.483,2.15 -5.592,3.426c-1.108,1.276 -2.267,3.56 -3.476,6.851l-35.665,100.548l-1.007,3.224c-0.538,1.746 -1.176,2.754 -1.915,3.022c-0.738,0.269 -3.089,0.403 -7.052,0.403c-4.567,0 -6.851,-0.484 -6.851,-1.453c-0,-0.554 0.403,-1.211 1.209,-1.972c4.634,-4.62 8.715,-10.161 12.241,-16.622c3.526,-6.462 5.289,-11.634 5.289,-15.517c0,-2.017 -1.276,-6.019 -3.828,-12.004l-25.288,-58.708c-1.679,-3.901 -3.174,-6.591 -4.484,-8.071c-1.309,-1.479 -3.14,-2.521 -5.49,-3.127c-1.478,-0.393 -2.217,-1.016 -2.217,-1.867c0,-1.442 0.971,-2.163 2.914,-2.163c1.407,0 3.182,0.101 5.325,0.302c1.608,0.202 4.991,0.303 10.149,0.303c6.297,-0 10.719,-0.101 13.265,-0.303c1.674,-0.134 2.879,-0.201 3.617,-0.201c1.809,-0.067 2.713,0.59 2.713,1.971c-0,1.183 -1.814,2.037 -5.441,2.563c-4.03,0.605 -6.045,2.287 -6.045,5.045c0,2.422 1.08,6.156 3.238,11.201l19.834,47.125Z" style="fill:#d4ae21;fill-rule:nonzero;"/></g></svg>