<?xml version="1.0" encoding="UTF-8" standalone="no"?><!DOCTYPE svg PUBLIC "-//W3C//DTD SVG 1.1//EN" "http://www.w3.org/Graphics/SVG/1.1/DTD/svg11.dtd"><svg width="100%" height="100%" viewBox="0 0 767 200" version="1.1" xmlns="http://www.w3.org/2000/svg" xmlns:xlink="http://www.w3.org/1999/xlink" xml:space="preserve" xmlns:serif="http://www.serif.com/" style="fill-rule:evenodd;clip-rule:evenodd;stroke-linejoin:round;stroke-miterlimit:2;"><rect id="Artboard1" x="0" y="0" width="766.396" height="199.018" style="fill:none;"/><g id="Layer-1" serif:id="Layer 1"><path id="path964" d="M83.125,192.617c-9.735,-2.67 -15.907,-4.923 -23.315,-8.511c-10.436,-5.056 -19.215,-11.072 -26.378,-18.076c-6.744,-6.595 -11.07,-12.686 -14.181,-19.969c-0.755,-1.767 -1.573,-4.103 -2.632,-7.516l-0.725,-2.341l-0.142,-52.499c-0.079,-28.874 -0.143,-56.152 -0.144,-60.617l-0.002,-8.118l137.184,0l-0.002,8.404c-0.001,4.622 -0.066,31.911 -0.144,60.64l-0.142,52.236l-0.991,3.124c-1.55,4.891 -2.287,6.773 -3.936,10.062c-2.933,5.851 -6.54,10.622 -12.34,16.319c-4.099,4.027 -8.299,7.407 -13.415,10.793c-11.082,7.335 -23.066,12.612 -35.548,15.654c-2.585,0.63 -2.437,0.61 -3.147,0.415l-0,0Zm-0,-18.627l-0,-15.643l-1.097,-0.092c-0.603,-0.051 -1.131,-0.127 -1.172,-0.168c-0.041,-0.041 0.219,-0.379 0.578,-0.75c0.886,-0.919 1.405,-1.736 1.405,-2.212c-0,-0.328 -0.062,-0.396 -0.363,-0.396c-0.199,0 -0.68,0.161 -1.068,0.358c-0.388,0.197 -0.945,0.357 -1.237,0.357c-0.45,0 -0.637,-0.108 -1.213,-0.706c-0.415,-0.431 -0.741,-0.927 -0.833,-1.272c-0.171,-0.633 -0.625,-1.005 -1.376,-1.126c-0.739,-0.12 -0.969,0.146 -0.857,0.991c0.11,0.836 -0.131,1.008 -0.862,0.615c-0.768,-0.414 -1.271,-1.268 -1.299,-2.208c-0.013,-0.44 -0.029,-0.856 -0.035,-0.924c-0.019,-0.196 -2.467,-0.025 -2.945,0.205c-0.341,0.165 -0.438,0.313 -0.472,0.719c-0.052,0.621 0.27,0.989 0.615,0.702c0.118,-0.098 0.215,-0.303 0.215,-0.456c-0,-0.219 0.083,-0.268 0.393,-0.233c0.326,0.038 0.401,0.124 0.438,0.503c0.137,1.419 -1.644,1.772 -2.82,0.559c-0.567,-0.586 -0.754,-1.295 -0.52,-1.976c0.431,-1.254 1.901,-2.461 3.267,-2.683c0.45,-0.074 0.883,-0.173 0.96,-0.221c0.266,-0.164 0.143,-0.763 -0.213,-1.043c-0.456,-0.359 -0.692,-0.964 -0.51,-1.304c0.107,-0.2 0.396,-0.277 1.323,-0.354c2.081,-0.173 4.171,-0.79 4.979,-1.47c0.521,-0.438 0.537,-0.7 0.07,-1.133c-0.665,-0.616 -0.417,-0.942 0.856,-1.127c1.629,-0.237 2.057,-0.908 2.626,-4.118c0.15,-0.845 0.25,-1.537 0.222,-1.537c-0.028,-0 -0.506,0.68 -1.064,1.511c-1.637,2.44 -2.022,2.736 -6.339,4.876c-2.952,1.463 -3.728,2.028 -3.598,2.62c0.203,0.924 -0.814,0.886 -1.367,-0.05c-0.742,-1.258 -2.493,-0.918 -3.287,0.639c-0.426,0.836 -0.38,1.04 0.21,0.929c0.603,-0.113 0.763,0.095 0.374,0.484c-0.207,0.206 -0.479,0.292 -0.93,0.292c-0.776,-0 -1.994,0.437 -2.758,0.99c-0.778,0.564 -1.396,0.869 -1.76,0.869c-1.198,0 -2.224,-2.061 -1.424,-2.861c0.432,-0.432 0.976,-0.378 1.082,0.108c0.148,0.676 0.19,0.751 0.422,0.751c0.34,-0 0.91,-0.689 1.009,-1.22c0.13,-0.691 0.029,-1.007 -0.301,-0.947c-0.155,0.028 -0.732,0.059 -1.282,0.068c-1.648,0.026 -2.692,-0.733 -2.22,-1.616c0.217,-0.406 0.567,-0.321 0.86,0.21c0.182,0.331 0.352,0.439 0.739,0.472c0.795,0.068 1.118,-0.675 0.393,-0.906c-0.15,-0.047 -0.273,-0.14 -0.273,-0.207c0,-0.22 0.919,-0.902 1.717,-1.273c0.678,-0.316 0.944,-0.36 1.931,-0.32c2.736,0.111 2.662,0.117 2.952,-0.27c0.147,-0.196 0.404,-0.808 0.572,-1.359c0.255,-0.838 0.303,-1.35 0.296,-3.138c-0.01,-2.454 0.003,-2.497 1.201,-3.79l0.803,-0.868l-0.838,-0.001c-1.127,-0 -1.819,-0.213 -2.423,-0.743c-1.297,-1.139 -1.219,-2.497 0.227,-3.943c0.327,-0.328 0.815,-0.675 1.084,-0.772c0.269,-0.098 0.489,-0.256 0.489,-0.353c-0,-0.222 -0.913,-0.98 -1.54,-1.277c-0.448,-0.213 -0.513,-0.209 -1.029,0.06c-0.302,0.157 -0.588,0.248 -0.636,0.201c-0.205,-0.205 -0.055,-0.729 0.308,-1.075c0.552,-0.527 1.134,-0.713 1.898,-0.608c0.636,0.088 0.662,0.076 1.005,-0.456c0.207,-0.32 0.488,-0.565 0.68,-0.592c0.298,-0.042 0.325,0.004 0.295,0.507c-0.018,0.305 0.015,0.632 0.074,0.726c0.188,0.305 1.013,0.202 1.363,-0.171c0.381,-0.405 1.273,-0.658 2.33,-0.659c1.911,-0.003 3.677,-0.566 3.69,-1.177c0,-0.058 -0.465,-0.067 -1.035,-0.019c-1.849,0.156 -2.629,-0.436 -2.508,-1.902c0.103,-1.234 0.572,-1.431 1.928,-0.81l0.544,0.249l-0.521,0.049c-0.948,0.091 -1.347,1.036 -0.438,1.036c0.9,0 2.763,-1.762 2.973,-2.813c0.144,-0.715 -0.228,-0.955 -1.305,-0.839c-0.989,0.106 -1.721,-0.112 -2.354,-0.701c-0.483,-0.449 -0.908,-0.654 -1.356,-0.654c-0.35,0 -0.368,0.033 -0.28,0.501c0.121,0.645 -0.107,0.658 -0.942,0.053c-0.585,-0.424 -0.628,-0.434 -0.808,-0.187c-0.326,0.445 -0.224,0.927 0.301,1.422c0.544,0.514 1.106,0.681 1.623,0.485c0.386,-0.147 0.603,-0.063 0.603,0.233c0,0.515 -1.33,0.66 -2.473,0.271c-1.164,-0.397 -1.981,-1.712 -1.691,-2.722c0.43,-1.5 2.014,-2.848 3.664,-3.118c0.443,-0.073 0.717,-0.021 1.216,0.232c0.529,0.269 0.721,0.485 1.081,1.216c0.846,1.716 1.343,1.885 2.411,0.818c0.7,-0.701 0.988,-1.391 0.764,-1.832c-0.118,-0.23 -0.245,-0.256 -0.892,-0.18c-1.02,0.12 -1.211,-0.099 -0.718,-0.825c0.449,-0.662 0.468,-1.483 0.066,-2.931c-0.38,-1.373 -0.641,-1.856 -1.095,-2.029c-0.563,-0.214 -1.301,0.086 -1.646,0.67c-0.303,0.514 -0.402,0.569 -0.626,0.345c-0.369,-0.368 -1.858,1.213 -3.647,3.874c-1.837,2.733 -2.442,4.414 -1.937,5.39c0.286,0.553 0.286,0.603 0.005,0.603c-0.124,0 -0.414,-0.188 -0.644,-0.418c-0.323,-0.323 -0.418,-0.548 -0.418,-0.993c0,-0.316 -0.07,-0.618 -0.156,-0.671c-0.221,-0.137 -1.267,0.933 -1.845,1.886c-0.392,0.648 -0.489,0.958 -0.495,1.586c-0.006,0.625 0.053,0.829 0.293,1.024c0.381,0.309 0.482,0.596 0.319,0.912c-0.178,0.347 -0.451,0.313 -0.963,-0.117c-0.594,-0.501 -1.032,-0.422 -1.196,0.215c-0.26,1.006 0.112,1.751 0.968,1.943c1.012,0.226 1.014,0.228 0.632,0.439c-0.714,0.396 -1.414,0.175 -2.27,-0.715c-0.271,-0.282 -0.582,-0.513 -0.692,-0.513c-0.11,-0 -0.46,0.223 -0.778,0.495c-0.439,0.375 -0.842,0.554 -1.666,0.737c-1.002,0.223 -1.148,0.304 -1.879,1.043c-0.749,0.755 -1.716,2.067 -1.716,2.327c0,0.172 0.971,0.145 1.311,-0.037c0.159,-0.085 0.416,-0.44 0.57,-0.788c0.154,-0.348 0.44,-0.738 0.637,-0.867c0.856,-0.561 2.284,0.496 3.513,2.6c0.918,1.573 1.209,2.504 1.001,3.199c-0.149,0.496 -1.621,2.306 -1.875,2.306c-0.062,-0 -0.159,-0.525 -0.215,-1.166c-0.056,-0.641 -0.162,-1.325 -0.235,-1.519l-0.134,-0.352l-0.463,0.377c-0.254,0.208 -0.672,0.485 -0.929,0.616c-0.434,0.222 -0.514,0.223 -1.144,0.004c-1.025,-0.356 -1.848,-0.427 -3.11,-0.266c-2.473,0.314 -3.461,0.931 -3.863,2.414c-0.122,0.452 -0.289,1.07 -0.372,1.375c-0.082,0.304 -0.319,0.711 -0.527,0.903c-0.342,0.317 -0.386,0.477 -0.454,1.664c-0.042,0.723 -0.125,1.39 -0.185,1.482c-0.06,0.092 -0.43,0.274 -0.823,0.405c-0.818,0.272 -0.881,0.47 -0.427,1.358c0.531,1.042 0.245,1.717 -0.728,1.717c-0.299,-0 -0.639,0.1 -0.764,0.224c-0.316,0.316 -0.08,0.697 0.751,1.208c1.521,0.937 1.653,1.178 0.776,1.421c-0.687,0.191 -2.384,0.192 -3.068,0.002c-1.17,-0.325 -2.141,-2.213 -2.156,-4.191c-0.012,-1.47 0.218,-2.138 0.981,-2.854c0.354,-0.331 0.961,-1.062 1.349,-1.623c0.712,-1.028 1.857,-3.239 1.857,-3.585c0,-0.413 -0.568,-0.165 -0.965,0.421l-0.413,0.608l-1.101,-0.041c-1.167,-0.042 -1.13,-0.063 -1.305,0.731l-0.089,0.404l-2.764,-0.093l-0.15,0.517c-0.403,1.383 -1.464,1.453 -2.904,0.191c-0.875,-0.767 -0.851,-0.846 -0.477,1.581l0.264,1.717l-0.994,-1.073c-1.938,-2.091 -2.259,-3.187 -1.381,-4.717c0.542,-0.946 2.546,-2.965 3.074,-3.097c0.327,-0.082 0.629,-0.018 1.586,0.339c0.097,0.036 0.001,-0.247 -0.215,-0.629c-0.358,-0.635 -0.391,-0.821 -0.389,-2.196c0.002,-1.834 0.175,-2.226 1.247,-2.837c1.202,-0.684 3.261,-1.484 3.597,-1.399c0.173,0.044 0.453,0.361 0.651,0.737c0.582,1.106 2.008,2.133 3.468,2.501c1.265,0.319 2.784,-0.54 5.196,-2.935c1.856,-1.844 3.565,-3.898 4.913,-5.902c1.128,-1.679 1.586,-2.605 1.962,-3.969c0.173,-0.629 0.401,-1.353 0.506,-1.607c0.419,-1.016 -0.325,-0.923 -2.108,0.263c-0.461,0.306 -0.918,0.557 -1.016,0.557c-0.405,0.001 -0.124,-0.453 0.786,-1.272c0.81,-0.728 0.912,-0.868 0.635,-0.871c-0.743,-0.005 -1.305,-0.63 -1.029,-1.144c0.132,-0.248 0.255,-0.274 0.97,-0.206c1.398,0.133 1.921,-0.389 3.78,-3.775c0.574,-1.047 1.467,-2.471 1.983,-3.165c1.078,-1.45 1.635,-2.6 1.927,-3.977c0.5,-2.361 0.011,-3.416 -2.421,-5.221l-1.16,-0.86l-0.097,2.056c-0.17,3.592 -0.778,7.878 -1.56,10.989c-0.416,1.654 -0.846,2.505 -0.846,1.673c-0,-0.219 0.164,-1.112 0.365,-1.985c0.637,-2.764 1.208,-7.692 1.208,-10.416c0,-1.063 -0.198,-1.996 -0.425,-1.996c-0.165,0 -0.29,0.776 -0.29,1.801c0,1.268 -0.358,3.731 -0.935,6.429c-0.552,2.578 -1.028,4.094 -1.587,5.048c-0.565,0.963 -2.54,2.951 -3.711,3.734c-0.874,0.584 -1.968,1.013 -2.142,0.839c-0.027,-0.027 0.17,-0.632 0.438,-1.345c0.764,-2.033 1.274,-5.245 1.782,-11.213c0.338,-3.968 0.517,-7.694 0.364,-7.552c-0.158,0.146 -0.548,2.144 -1.37,7.022c-1.407,8.355 -3.046,15.31 -3.654,15.509c-0.227,0.074 -0.027,-1.058 0.721,-4.087c1.532,-6.198 2.954,-14.659 2.932,-17.444l-0.01,-1.244l-0.349,0.903c-0.372,0.961 -0.806,3.205 -1.431,7.394c-0.212,1.416 -0.434,2.704 -0.494,2.861c-0.1,0.258 -0.181,0.212 -0.839,-0.481c-0.785,-0.826 -0.845,-0.812 -0.517,0.117c0.456,1.294 0.539,2.312 0.302,3.689c-0.467,2.706 -2.643,9.574 -3.813,12.033c-0.927,1.95 -1.674,2.969 -3.344,4.566c-1.491,1.426 -1.891,1.601 -2.034,0.89c-0.124,-0.622 -0.385,-0.531 -0.927,0.321c-1.495,2.352 -4.399,4.192 -6.169,3.909c-1.099,-0.176 -3.117,-1.406 -3.491,-2.129c-0.234,-0.453 -0.07,-0.814 0.37,-0.814c0.804,-0 2.44,-1.686 4.101,-4.226c2.331,-3.564 5.78,-10.76 5.78,-12.061c0,-0.608 0.619,-2.599 1.954,-6.289c1.634,-4.518 2.879,-8.212 2.986,-8.864l0.088,-0.532l-0.288,0.43c-0.158,0.236 -1.09,2.296 -2.07,4.577c-3.096,7.206 -4.458,9.997 -6.854,14.044c-2.191,3.701 -4.488,6.512 -6.749,8.258c-2.089,1.614 -2.245,1.675 -1.107,0.439c0.577,-0.627 1.295,-1.559 1.596,-2.07c0.301,-0.512 0.988,-1.438 1.526,-2.059c1.807,-2.085 2.525,-3.011 3.559,-4.593c3.236,-4.952 5.992,-10.843 8.317,-17.778c0.429,-1.281 0.758,-2.44 0.73,-2.575c-0.092,-0.451 -0.826,1.032 -1.617,3.269c-1.126,3.182 -2.772,6.286 -3.665,6.912c-0.314,0.219 -0.349,0.219 -0.516,-0.009c-0.098,-0.135 -0.18,-0.442 -0.181,-0.682c-0.005,-0.959 -0.251,-0.832 -0.434,0.224c-0.456,2.638 -2.381,6.676 -4.075,8.552c-0.618,0.684 -0.978,0.738 -1.264,0.192l-0.206,-0.393l-0.107,0.57c-0.081,0.429 -0.305,0.764 -0.909,1.358c-1.471,1.446 -3.586,2.411 -5.407,2.465c-0.849,0.026 -1.078,-0.025 -1.662,-0.367c-1.299,-0.761 -2.613,-2.9 -2.04,-3.32c0.167,-0.121 0.379,-0.126 0.789,-0.016c0.77,0.205 1.502,-0.141 2.487,-1.177c1.486,-1.562 3.869,-5.065 6.145,-9.036c4.353,-7.594 9.722,-18.873 8.984,-18.873c-0.197,-0 -0.76,0.858 -2.439,3.719c-3.957,6.741 -7.951,12.518 -10.235,14.802c-0.552,0.553 -1.582,1.396 -2.288,1.875c-1.328,0.899 -4.053,2.416 -4.156,2.314c-0.129,-0.129 3.232,-3.065 4.329,-3.783c0.644,-0.421 1.534,-1.167 1.978,-1.657c3.072,-3.389 9.265,-12.902 10.441,-16.037c0.712,-1.899 0.115,-1.334 -2.382,2.254c-3.579,5.142 -4.988,6.669 -6.154,6.669c-0.292,0 -0.453,0.108 -0.607,0.406c-0.427,0.825 -2.664,1.532 -4.511,1.425c-2.03,-0.117 -4.133,-1.444 -4.38,-2.762c-0.143,-0.761 0.019,-2.011 0.329,-2.543c0.368,-0.633 0.826,-0.672 1.336,-0.114c0.229,0.251 0.545,0.441 0.733,0.44c1.715,-0.008 6.243,-4.155 9.913,-9.082c0.95,-1.276 3.604,-5.161 4.154,-6.08c0.07,-0.118 -0.957,0.804 -2.283,2.049c-3.478,3.267 -6.133,5.257 -8.81,6.605c-2.075,1.045 -3.202,1.277 -4.046,0.833l-0.458,-0.241l0.358,-0.102c0.196,-0.057 0.601,-0.11 0.898,-0.117c0.696,-0.019 1.323,-0.285 2.143,-0.911c0.361,-0.276 1.225,-0.723 1.919,-0.994c0.694,-0.271 1.53,-0.662 1.858,-0.869c1.35,-0.852 3.711,-2.905 6.287,-5.466c2.645,-2.629 3.336,-3.418 3.155,-3.6c-0.133,-0.132 -0.653,0.251 -2.934,2.16c-3.874,3.241 -5.187,4.053 -7.082,4.381c-1.261,0.217 -4.072,0.101 -5.058,-0.21c-1.52,-0.48 -2.62,-1.746 -2.615,-3.012c0.004,-0.893 0.163,-1.04 0.707,-0.654c0.248,0.178 0.488,0.287 0.531,0.243c0.044,-0.044 0.001,-0.408 -0.096,-0.81c-0.096,-0.402 -0.143,-0.763 -0.104,-0.802c0.039,-0.039 0.313,0.094 0.608,0.294c0.971,0.659 2.43,0.416 5.004,-0.831c2.478,-1.2 4.532,-2.592 7.48,-5.066c0.888,-0.746 1.591,-1.38 1.562,-1.409c-0.029,-0.029 -1.029,0.394 -2.222,0.941c-1.193,0.547 -2.62,1.157 -3.172,1.356c-3.112,1.122 -6.119,1.401 -6.882,0.638c-0.424,-0.424 -0.234,-0.518 0.728,-0.359c2.25,0.372 6.832,-1.109 11.442,-3.699c0.823,-0.463 1.423,-0.866 1.332,-0.896c-0.09,-0.03 -1.086,0.213 -2.212,0.541c-1.8,0.525 -2.221,0.597 -3.479,0.596c-2.343,-0.002 -4.067,-0.812 -5.308,-2.499c-0.595,-0.807 -0.646,-0.94 -0.564,-1.463c0.107,-0.68 0.862,-2.362 1.061,-2.362c0.077,-0 0.515,0.322 0.973,0.717c1.968,1.691 4.237,1.515 8.917,-0.694l1.216,-0.574l-2.218,-0.013c-2.617,-0.017 -3.938,-0.183 -4.762,-0.599c-0.605,-0.306 -2.43,-1.706 -2.341,-1.795c0.026,-0.026 0.75,0.247 1.609,0.607c2.312,0.969 3.072,1.114 5.208,0.996c0.984,-0.054 2.4,-0.175 3.147,-0.268l1.359,-0.169l-1.624,-0.562c-3.555,-1.23 -3.995,-2.129 -2.505,-5.128c0.379,-0.763 0.723,-1.386 0.764,-1.385c0.041,0.002 0.386,0.533 0.766,1.18c0.847,1.446 1.054,1.704 1.74,2.17c0.361,0.244 0.735,0.367 1.12,0.367c0.319,-0 0.99,0.103 1.492,0.229c0.502,0.126 0.947,0.194 0.989,0.152c0.042,-0.042 -0.163,-0.464 -0.455,-0.938c-0.599,-0.971 -0.795,-1.965 -0.496,-2.524c0.359,-0.67 1.126,-0.814 4.024,-0.76c2.981,0.057 3.407,0.184 3.887,1.159c0.225,0.457 0.235,0.581 0.07,0.925c-0.258,0.542 -1.113,0.615 -1.832,0.158l-0.501,-0.319l0.769,-0.1c0.45,-0.059 0.881,-0.212 1.037,-0.369c0.246,-0.245 0.25,-0.294 0.045,-0.585c-0.305,-0.436 -0.901,-0.414 -2.996,0.111c-1.957,0.491 -2.284,0.523 -2.166,0.217c0.133,-0.347 -0.41,-0.548 -0.975,-0.362c-0.515,0.17 -0.65,0.374 -0.648,0.979c0.001,0.769 0.733,1.512 2.07,2.103c1.055,0.467 1.13,0.456 1.032,-0.148c-0.062,-0.383 -0.032,-0.5 0.13,-0.5c0.116,-0 0.968,0.386 1.894,0.858c0.925,0.472 1.817,0.858 1.982,0.858c0.192,0 0.408,-0.181 0.596,-0.5c0.163,-0.276 0.392,-0.501 0.51,-0.501c0.285,-0 0.556,0.527 0.46,0.895c-0.185,0.705 0.604,1.508 4.02,4.092c1.279,0.966 2.325,1.784 2.325,1.815c-0,0.032 -0.163,-0.016 -0.362,-0.106c-0.517,-0.236 -0.653,-0.025 -0.479,0.743c0.22,0.971 -0.087,3.745 -0.54,4.876c-0.162,0.406 -0.353,0.592 -0.779,0.763c-1.12,0.448 -1.942,0.183 -3.159,-1.019l-0.813,-0.802l-0.761,0.829c-1.606,1.75 -2.225,2.779 -2.062,3.428c0.129,0.514 0.56,0.685 2.045,0.81c1.552,0.131 2.03,0.346 2.595,1.164c0.434,0.628 1.712,1.937 2.275,2.329l0.32,0.224l-0.769,1.03c-1.306,1.751 -1.48,2.336 -0.951,3.204c0.591,0.968 1.487,1.137 2.693,0.506c0.293,-0.153 1.035,-0.545 1.649,-0.871c1.001,-0.532 1.219,-0.593 2.114,-0.593c1.114,0 1.57,0.155 2.681,0.909c1.003,0.681 1.968,0.951 3.377,0.948c1.23,-0.004 2.37,-0.367 2.37,-0.755c-0,-0.11 -0.254,-0.315 -0.564,-0.454c-1.189,-0.536 -0.761,-0.934 1.003,-0.934l1.173,-0l-0.385,-0.303c-0.246,-0.193 -0.369,-0.412 -0.341,-0.608c0.038,-0.265 0.123,-0.299 0.644,-0.26c0.331,0.024 0.737,-0.028 0.902,-0.117c0.494,-0.264 0.857,-1.005 0.857,-1.752c0.001,-0.759 -0.144,-0.839 -0.714,-0.393c-0.481,0.375 -0.623,0.359 -1.192,-0.141c-0.717,-0.63 -1.989,-0.916 -3.637,-0.819c-1.42,0.084 -2.36,0.412 -2.441,0.851c-0.026,0.141 0.159,0.436 0.425,0.68l0.471,0.43l-0.521,0c-0.724,0 -0.95,-0.113 -1.202,-0.6c-0.303,-0.586 -0.139,-1.171 0.468,-1.672c0.306,-0.252 0.484,-0.513 0.454,-0.667c-0.065,-0.334 -1.5,-1.321 -2.087,-1.436c-0.737,-0.144 -1.135,0.037 -1.616,0.736c-0.736,1.069 -1.134,0.492 -0.568,-0.823c0.402,-0.935 0.311,-1.179 -0.393,-1.051c-1.263,0.228 -2.135,1.221 -1.963,2.236c0.107,0.634 -0.076,0.738 -0.424,0.241c-0.308,-0.44 -0.277,-1.621 0.062,-2.369c0.474,-1.044 1.474,-1.244 4.079,-0.816c1.613,0.265 2.562,0.272 2.772,0.02c0.108,-0.13 0.131,-0.611 0.07,-1.469c-0.12,-1.69 -0.072,-1.734 1.632,-1.496c1.665,0.232 3.036,0.85 3.036,1.369c-0,0.093 -0.169,0.246 -0.375,0.34c-0.323,0.148 -0.362,0.232 -0.284,0.621c0.137,0.685 0.77,1.67 1.278,1.989c0.613,0.385 2.346,0.335 2.805,-0.08c0.366,-0.331 0.319,-0.545 -0.145,-0.654c-0.214,-0.05 -0.364,-0.201 -0.392,-0.394c-0.042,-0.288 0.01,-0.311 0.627,-0.284c0.608,0.026 0.711,-0.018 1.087,-0.468c0.412,-0.493 0.811,-1.498 0.657,-1.652c-0.044,-0.044 -0.457,-0.178 -0.917,-0.298c-0.912,-0.236 -1.337,-0.527 -1.337,-0.914c-0,-0.319 0.282,-0.422 1.151,-0.422c0.846,-0 0.968,-0.168 1.092,-1.501c0.151,-1.615 -0.513,-2.722 -1.856,-3.092c-0.801,-0.221 -2.023,-0.013 -3.354,0.571c-1.23,0.54 -2.158,0.693 -2.741,0.451c-0.897,-0.371 -0.643,-0.953 0.507,-1.167c0.69,-0.129 2.211,-0.955 2.311,-1.256c0.097,-0.289 -0.526,-0.163 -2.754,0.556c-2.491,0.803 -3.124,0.961 -4.625,1.151c-1.514,0.192 -2.867,-0.029 -3.98,-0.652c-0.489,-0.273 -1.027,-0.497 -1.195,-0.497c-0.675,-0 -1.033,-1.943 -0.493,-2.672c0.296,-0.4 1.119,-0.927 1.74,-1.113c0.485,-0.146 0.578,0.288 0.203,0.941c-0.556,0.965 -0.287,1.787 0.721,2.204c0.848,0.35 3.055,0.325 4.785,-0.055c1.555,-0.342 4.551,-1.481 4.127,-1.569c-0.564,-0.117 -3.301,0.071 -3.65,0.251c-0.197,0.102 -0.562,0.419 -0.812,0.705l-0.454,0.521l-0.35,-0.787c-1.078,-2.421 -0.847,-3.34 1.516,-6.03c1.391,-1.583 2.026,-1.914 4.105,-2.139c0.827,-0.089 1.938,-0.126 2.471,-0.082c1.004,0.084 1.43,0.271 3.754,1.647c1.353,0.801 2.453,1.168 3.499,1.168c0.786,0 0.911,-0.044 1.425,-0.508c0.514,-0.466 0.575,-0.487 0.701,-0.25c0.346,0.645 0.611,3.333 0.33,3.333c-0.068,0 -0.161,-0.364 -0.207,-0.809c-0.046,-0.445 -0.159,-0.856 -0.251,-0.912c-0.092,-0.057 -0.498,-0.016 -0.902,0.092c-0.404,0.107 -0.916,0.196 -1.138,0.197c-0.307,0.001 -0.393,0.062 -0.356,0.252c0.068,0.359 1.957,1.736 2.528,1.843c0.464,0.087 0.479,0.11 0.408,0.638c-0.081,0.6 0.03,0.752 0.655,0.901c0.22,0.053 0.436,0.191 0.481,0.308c0.107,0.278 -0.2,0.637 -0.545,0.637c-0.426,0 -0.479,0.396 -0.199,1.492c0.323,1.266 1.409,4.106 1.874,4.899c0.426,0.729 0.439,0.99 0.057,1.195c-0.551,0.294 -0.585,0.734 -0.206,2.641c0.268,1.342 0.348,2.164 0.326,3.324c-0.032,1.643 0.1,2.422 0.337,1.998c0.272,-0.485 0.4,-10.293 0.404,-30.891l0.004,-21.278l-64.989,-0l0.101,45.454c0.104,46.367 0.255,67.487 0.511,71.059c0.192,2.679 0.366,3.676 1.014,5.794c4.424,14.47 17.561,28.519 36.255,38.773c5.983,3.282 13.761,6.668 19.997,8.707c2.744,0.897 6.181,1.85 6.718,1.863l0.393,0.009l-0,-15.643Zm-13.304,-110.939c0,-0.167 0.624,-0.28 1.071,-0.195c0.196,0.038 0.321,0.125 0.278,0.195c-0.102,0.165 -1.349,0.165 -1.349,0l0,0Zm-7.599,-0.64c-0.985,-0.405 -2.159,-1.115 -2.238,-1.352c-0.077,-0.23 1.022,0.201 2.296,0.901c1.477,0.812 1.444,1.069 -0.058,0.451l0,0Zm-3.64,-2.702c-1.087,-1.194 -1.252,-1.395 -1.151,-1.395c0.153,-0 1.805,1.591 1.805,1.738c-0,0.239 -0.237,0.114 -0.654,-0.343Zm-3.265,-10.061c-0.048,-0.124 -0.046,-0.388 0.004,-0.586c0.112,-0.447 0.333,-0.172 0.336,0.419c0.002,0.428 -0.201,0.529 -0.34,0.167l0,0Zm22.578,-4.281c-0.971,-1.28 -2.209,-2.425 -3.806,-3.52c-0.934,-0.64 -1.733,-1.221 -1.776,-1.289c-0.297,-0.481 1.581,0.436 2.758,1.347c1.072,0.829 2.793,2.614 3.106,3.222c0.37,0.718 0.194,0.867 -0.282,0.24Zm-11.435,-5.792c0.395,-0.17 2.383,-0.17 2.646,-0c0.145,0.093 -0.293,0.136 -1.359,0.13c-1.011,-0.005 -1.471,-0.052 -1.287,-0.13Zm50.698,117.3c0.005,-1.613 -0.049,-3.023 -0.119,-3.134c-0.17,-0.268 -0.795,0.959 -1.105,2.168c-0.368,1.437 -0.027,3.27 0.772,4.153c0.231,0.255 0.244,0.255 0.342,0.005c0.056,-0.143 0.106,-1.579 0.11,-3.192l0,-0Zm1.198,2.751c0.396,-0.438 0.811,-1.512 0.814,-2.11c0.003,-0.674 -0.42,-2.283 -0.867,-3.293c-0.297,-0.669 -0.321,-0.689 -0.423,-0.352c-0.13,0.429 -0.174,5.459 -0.05,5.782c0.112,0.292 0.244,0.285 0.526,-0.027l0,0Zm-3.633,-3.967c0.647,-0.701 1.385,-2.113 1.233,-2.358c-0.049,-0.08 -0.21,-0.145 -0.356,-0.145c-0.784,-0 -2.656,2.649 -2.38,3.368c0.073,0.193 0.13,0.194 0.486,0.009c0.222,-0.114 0.68,-0.508 1.017,-0.874l0,0Zm6.882,0.712c0,-0.274 -0.906,-2.041 -1.251,-2.439c-0.377,-0.437 -1.003,-0.815 -1.174,-0.709c-0.219,0.135 -0.183,0.75 0.076,1.294c0.272,0.574 1.808,2.072 2.124,2.072c0.124,-0 0.225,-0.098 0.225,-0.218l0,-0Zm-41.52,-3.089c-0.62,-0.462 -0.514,-0.804 0.372,-1.196c0.915,-0.404 1.236,-0.949 1.239,-2.099c0.001,-0.421 0.166,-1.278 0.366,-1.904c0.359,-1.124 0.368,-1.87 0.02,-1.758c-0.095,0.03 -0.277,0.276 -0.404,0.546c-0.128,0.27 -0.401,0.845 -0.609,1.278c-0.207,0.433 -0.848,1.314 -1.424,1.958c-1.089,1.218 -1.471,2.008 -1.3,2.689c0.134,0.535 0.593,0.789 1.414,0.784l0.719,-0.004l-0.393,-0.293l0,-0.001Zm40.147,-1.008c1.38,-0.472 0.934,-1.175 -0.902,-1.422c-1.674,-0.226 -4.526,-0.111 -5.128,0.206c-0.799,0.422 -0.58,1.134 0.43,1.396c0.699,0.181 4.943,0.045 5.6,-0.18Zm-9.144,-3.721c0.164,-1.231 0.987,-1.996 1.901,-1.766c0.636,0.16 1.377,1.086 1.905,2.38l0.488,1.199l0.131,-1.069c0.291,-2.375 -0.866,-5.652 -2.394,-6.785c-0.576,-0.427 -2.05,-0.41 -3.029,0.035c-0.933,0.423 -1.439,0.918 -1.927,1.883c-0.923,1.824 -0.772,2.384 1.186,4.397l1.456,1.495l0.097,-0.55c0.053,-0.303 0.137,-0.851 0.186,-1.219l-0,-0Zm9.051,0.238c0.334,-0.629 0.802,-1.32 1.039,-1.536c0.905,-0.825 1.839,-0.328 2.43,1.291c0.376,1.033 0.577,1.242 1.075,1.117c0.962,-0.241 2.622,-2.858 2.457,-3.873c-0.298,-1.84 -2.242,-3.554 -4.04,-3.564c-1.968,-0.01 -3.385,1.975 -4.004,5.611c-0.414,2.429 0.038,2.843 1.043,0.954Zm-3.04,-7.146c0,-3.884 -0.045,-7.107 -0.1,-7.162c-0.139,-0.139 -2.513,1.888 -3.077,2.629c-1.15,1.507 -1.023,2.51 0.797,6.283c1.133,2.348 2.022,4.741 2.022,5.442c0,0.182 0.036,0.192 0.179,0.049c0.138,-0.139 0.179,-1.782 0.179,-7.241l0,-0Zm1.223,6.394c0.308,-1.499 1.004,-3.37 2.114,-5.684c1.074,-2.238 1.098,-2.312 1.098,-3.385c-0,-0.989 -0.043,-1.156 -0.435,-1.716c-0.386,-0.552 -2.447,-2.351 -3.106,-2.711c-0.236,-0.129 -0.25,0.187 -0.249,5.769c0,6.005 0.095,8.741 0.297,8.617c0.061,-0.039 0.188,-0.439 0.281,-0.89Zm-46.333,-11.863c0.268,-1.066 0.833,-0.997 0.968,0.118c0.032,0.258 0.958,0.443 1.91,0.381c1.422,-0.092 2.162,-0.462 3.525,-1.764c1.661,-1.587 2.181,-2.572 1.265,-2.397c-0.265,0.051 -0.431,-0.05 -0.733,-0.446c-0.44,-0.577 -0.762,-0.638 -1.255,-0.239c-0.476,0.385 -0.483,1.551 -0.014,2.051c0.321,0.341 0.322,0.347 0.045,0.597c-0.385,0.349 -1.21,0.35 -1.593,0.003c-0.569,-0.515 -1.025,-1.452 -0.926,-1.901c0.05,-0.228 0.595,-0.973 1.214,-1.661c1.099,-1.22 1.398,-1.713 1.137,-1.875c-0.218,-0.135 -0.147,-1.157 0.095,-1.358c0.185,-0.154 0.293,-0.145 0.63,0.054c0.223,0.132 0.515,0.24 0.648,0.24c0.349,-0 1.216,-0.916 1.216,-1.285c-0,-0.272 -0.055,-0.3 -0.431,-0.217c-0.394,0.087 -0.437,0.058 -0.518,-0.346c-0.058,-0.289 -0.174,-0.441 -0.336,-0.441c-0.414,-0 -1.494,0.928 -2.422,2.081c-0.974,1.211 -1.331,1.835 -1.581,2.764c-0.235,0.872 -0.707,1.306 -1.421,1.306c-0.709,-0 -0.833,-0.181 -0.453,-0.664c0.397,-0.505 0.377,-0.63 -0.168,-1.079c-0.437,-0.359 -0.466,-0.441 -0.466,-1.287l-0,-0.904l-1.379,0.009c-1.859,0.012 -2.052,0.14 -2.174,1.444c-0.058,0.628 -0.19,1.109 -0.371,1.354c-0.155,0.209 -0.242,0.419 -0.193,0.467c0.138,0.138 1.699,0.102 2.096,-0.048c0.309,-0.118 0.364,-0.094 0.402,0.174c0.042,0.288 0.205,0.422 1.43,1.178c0.504,0.31 1.156,1.174 1.073,1.42c-0.032,0.095 -0.414,0.134 -1.012,0.102c-1.116,-0.059 -1.454,0.139 -1.605,0.943c-0.178,0.953 0.466,2.161 1.036,1.942c0.11,-0.042 0.272,-0.364 0.361,-0.716l0,0Zm-28.49,-6.172c1.254,-0.277 1.429,-0.539 0.671,-1.007c-0.576,-0.357 -1.156,-0.384 -1.864,-0.088c-0.282,0.118 -0.582,0.214 -0.667,0.214c-0.085,0 -0.473,-0.298 -0.863,-0.663l-0.709,-0.663l-0,0.974c-0,1.321 0.172,1.501 1.417,1.483c0.519,-0.007 1.425,-0.12 2.015,-0.25Zm57.364,-4.608c-0,-2.207 -0.049,-3.282 -0.151,-3.282c-0.215,-0 -0.79,1.328 -1.08,2.492c-0.213,0.854 -0.222,1.109 -0.069,1.852c0.248,1.199 0.896,2.469 1.173,2.298c0.07,-0.043 0.127,-1.555 0.127,-3.36Zm1.947,1.474c0.182,-0.623 0.19,-0.89 0.049,-1.573c-0.221,-1.071 -0.985,-3.183 -1.151,-3.183c-0.156,-0 -0.178,6.199 -0.023,6.354c0.188,0.188 0.898,-0.82 1.125,-1.598l-0,0Zm29.701,0.24c0.112,-0.484 0.043,-2.904 -0.134,-4.71l-0.092,-0.93l-0.543,1.645c-0.735,2.225 -0.723,3.035 0.063,4.192c0.339,0.498 0.56,0.437 0.706,-0.197Zm2.256,-0.927c0.263,-0.539 0.269,-0.636 0.079,-1.359c-0.242,-0.926 -1.057,-3.264 -1.243,-3.568c-0.081,-0.133 -0.116,0.955 -0.092,2.861c0.021,1.691 0.097,3.166 0.169,3.278c0.105,0.162 0.197,0.12 0.467,-0.215c0.185,-0.229 0.464,-0.678 0.62,-0.997l-0,-0Zm-36.308,-2.031c0.596,-0.621 1.314,-1.975 1.202,-2.267c-0.254,-0.661 -1.462,0.251 -2.145,1.619c-0.483,0.969 -0.478,1.185 0.028,1.185c0.275,-0 0.56,-0.167 0.915,-0.537l-0,0Zm6.838,0.318c0,-0.428 -0.847,-1.888 -1.354,-2.333c-0.545,-0.478 -1.035,-0.585 -1.163,-0.252c-0.112,0.292 0.606,1.646 1.202,2.267c0.548,0.571 1.315,0.756 1.315,0.318Zm25.005,-0.899c0.502,-0.38 1.174,-1.401 1.174,-1.783c-0,-0.308 -0.526,-0.661 -0.856,-0.575c-0.433,0.114 -0.815,0.629 -1.222,1.652c-0.44,1.104 -0.405,1.507 0.108,1.236c0.179,-0.095 0.537,-0.333 0.796,-0.53Zm6.841,0.482c0.125,-0.327 -0.798,-1.911 -1.427,-2.451c-1.292,-1.105 -1.677,-0.194 -0.549,1.298c0.821,1.087 1.785,1.649 1.976,1.153Zm-77.065,-2.088c0.406,-0.407 0.816,-1.387 0.649,-1.555c-0.145,-0.144 -0.568,0.237 -1.098,0.99c-0.295,0.42 -0.536,0.816 -0.536,0.881c-0,0.274 0.581,0.087 0.985,-0.316Zm44.198,-1.318c0.21,-0.101 0.398,-0.324 0.424,-0.504c0.036,-0.257 -0.067,-0.374 -0.501,-0.566c-0.828,-0.366 -5.634,-0.365 -6.304,0.001c-0.494,0.27 -0.604,0.669 -0.263,0.952c0.111,0.092 0.61,0.225 1.109,0.296c1.231,0.174 5.055,0.05 5.535,-0.18l0,0.001Zm31.285,-0.83c0.918,-0.165 1.333,-0.343 1.174,-0.502c-0.405,-0.405 -5.612,-0.822 -6.69,-0.536c-0.42,0.111 -0.508,0.204 -0.544,0.575c-0.037,0.37 0.021,0.467 0.357,0.599c0.484,0.19 4.412,0.096 5.703,-0.136Zm-36.125,-1.646c0.22,-0.579 0.166,-1.31 -0.211,-2.868c-0.833,-3.438 -2.097,-4.822 -4.181,-4.577c-1.102,0.13 -1.876,0.501 -2.508,1.203c-1.382,1.534 -1.173,3.995 0.469,5.531c0.381,0.357 0.822,0.649 0.98,0.649c0.453,-0 0.858,-0.556 0.959,-1.318c0.051,-0.382 0.217,-0.854 0.37,-1.048c0.233,-0.296 0.399,-0.352 1.042,-0.352c0.906,-0 1.458,0.375 1.826,1.242c0.128,0.3 0.361,0.852 0.519,1.225c0.322,0.764 0.53,0.852 0.735,0.313Zm1.552,-9.555c0.016,-5.009 -0.008,-5.691 -0.196,-5.619c-0.118,0.045 -0.688,0.402 -1.267,0.793c-2.043,1.378 -2.825,2.714 -2.524,4.312c0.143,0.761 0.516,1.593 1.759,3.931c0.773,1.452 1.164,2.646 1.525,4.649c0.157,0.873 0.336,1.664 0.396,1.757c0.169,0.26 0.286,-3.512 0.307,-9.823Zm2.813,9.339c0.115,-0.222 0.209,-0.586 0.209,-0.807c0,-0.652 0.474,-1.363 1.146,-1.718c0.78,-0.412 1.171,-0.411 1.657,0.007c0.335,0.289 0.399,0.476 0.475,1.395c0.104,1.238 0.19,1.42 0.671,1.42c1.51,-0 3.414,-2.976 2.933,-4.583c-0.352,-1.175 -2.779,-3.139 -3.878,-3.139c-0.596,-0 -1.781,0.642 -2.262,1.226c-0.871,1.056 -2.029,4.367 -2.029,5.8c-0,1.03 0.631,1.263 1.078,0.399l-0,0Zm31.823,-1.241c0.7,-1.42 1.131,-1.968 1.649,-2.098c1.042,-0.262 2.45,1.42 2.057,2.455c-0.213,0.559 0.021,0.681 0.796,0.417c0.976,-0.332 1.705,-0.975 2.072,-1.828c0.716,-1.664 0.476,-3.421 -0.591,-4.335c-1.02,-0.872 -2.669,-1.36 -3.68,-1.088c-1.625,0.438 -2.75,2.566 -3.319,6.277c-0.312,2.039 0.072,2.114 1.016,0.2Zm-9.04,0.641c0.083,-0.1 0.26,-0.616 0.394,-1.147c0.389,-1.551 1.196,-2.015 2.275,-1.308c0.194,0.127 0.573,0.693 0.841,1.258c0.755,1.591 1.238,1.801 1.238,0.538c0,-1.68 -0.741,-4.177 -1.559,-5.253c-0.709,-0.932 -1.416,-1.277 -2.589,-1.261c-1.616,0.023 -2.981,0.857 -3.523,2.154c-0.291,0.697 -0.244,2.148 0.093,2.89c0.738,1.629 2.282,2.789 2.83,2.129Zm-24.579,-0.705c0.005,-0.545 0.949,-3.04 1.938,-5.122c1.636,-3.441 1.789,-4.468 0.872,-5.839c-0.395,-0.589 -2.421,-2.373 -3.145,-2.768c-0.259,-0.141 -0.264,0.042 -0.176,6.198c0.097,6.749 0.171,8.307 0.382,7.974c0.07,-0.11 0.128,-0.309 0.129,-0.443Zm30.461,-6.246c0.084,-2.489 0.182,-5.25 0.219,-6.135c0.041,-0.964 0.013,-1.61 -0.068,-1.61c-0.074,0 -0.571,0.266 -1.103,0.59c-2.255,1.373 -2.756,1.924 -2.756,3.031c-0,0.938 0.579,2.726 1.554,4.797c1.188,2.52 1.545,3.47 1.686,4.48l0.107,0.763l0.105,-0.695c0.057,-0.382 0.173,-2.732 0.256,-5.221l0,-0Zm2.493,1.983c0.201,-0.433 0.724,-1.399 1.163,-2.146c0.765,-1.303 1.363,-2.835 1.36,-3.484c-0.002,-0.501 -0.643,-1.705 -1.161,-2.181c-0.513,-0.471 -2.349,-1.924 -2.687,-2.127c-0.173,-0.104 -0.19,0.824 -0.116,6.518c0.047,3.652 0.133,6.764 0.191,6.915c0.075,0.196 0.216,-0.15 0.495,-1.217c0.214,-0.82 0.554,-1.846 0.755,-2.278Zm-34.129,-25.036c0.021,-1.758 -0.017,-3.252 -0.085,-3.32c-0.163,-0.163 -0.827,1.331 -1.121,2.522c-0.192,0.778 -0.204,1.081 -0.067,1.764c0.198,0.99 0.84,2.362 1.07,2.286c0.116,-0.039 0.176,-0.997 0.203,-3.252l0,0Zm1.617,2.126c0.503,-0.985 0.603,-1.828 0.349,-2.927c-0.251,-1.08 -0.841,-2.487 -1.044,-2.487c-0.271,-0 -0.348,5.304 -0.088,6.131c0.088,0.283 0.436,-0.036 0.783,-0.717Zm30.109,-2.359c-0.057,-1.625 -0.151,-3.083 -0.21,-3.24c-0.084,-0.228 -0.206,-0.041 -0.595,0.914c-0.409,1.004 -0.49,1.379 -0.487,2.275c0.001,0.763 0.079,1.217 0.267,1.573c0.313,0.593 0.925,1.431 1.045,1.431c0.046,-0 0.037,-1.329 -0.02,-2.953l0,-0Zm1.606,1.914c0.414,-0.441 0.747,-1.28 0.747,-1.882c-0,-0.542 -0.612,-2.614 -0.975,-3.302l-0.226,-0.429l-0.107,0.572c-0.229,1.232 -0.108,5.365 0.158,5.365c0.054,-0 0.235,-0.146 0.403,-0.324Zm-35.814,-2.832c0.475,-0.418 1.371,-1.968 1.371,-2.375c-0,-0.119 -0.169,-0.191 -0.448,-0.191c-0.327,-0 -0.576,0.135 -0.919,0.498c-0.571,0.606 -1.272,1.992 -1.157,2.289c0.132,0.345 0.613,0.253 1.153,-0.221Zm6.887,0.064c-0.315,-1.255 -1.349,-2.63 -1.978,-2.63c-0.431,-0 -0.529,0.208 -0.372,0.792c0.213,0.795 1.652,2.21 2.249,2.211c0.138,0.001 0.167,-0.107 0.101,-0.373Zm24.633,-0.419c0.672,-0.471 1.623,-2.268 1.395,-2.637c-0.23,-0.373 -1.698,0.925 -2.173,1.921c-0.391,0.818 0.051,1.224 0.778,0.716Zm7.264,-0.173c-0.244,-0.989 -1.539,-2.61 -2.085,-2.61c-0.404,-0 -0.368,0.628 0.087,1.542c0.455,0.912 1.079,1.462 1.661,1.462c0.401,-0 0.426,-0.03 0.337,-0.394Zm-32.765,-3.313c0.533,-0.127 0.627,-0.504 0.188,-0.754c-0.465,-0.265 -6.197,-0.269 -6.66,-0.005c-0.355,0.203 -0.42,0.523 -0.143,0.701c0.406,0.263 5.567,0.307 6.615,0.058l0,-0Zm31.793,-0.56c0.2,-0.111 0.322,-0.313 0.322,-0.534c0,-0.593 -0.5,-0.692 -3.504,-0.692c-3,0 -3.505,0.099 -3.505,0.688c-0,0.672 0.616,0.791 3.862,0.749c1.674,-0.022 2.61,-0.092 2.825,-0.211Zm-36.667,-2.076c0.102,-0.521 0.062,-1.02 -0.176,-2.229c-0.375,-1.901 -0.766,-2.979 -1.365,-3.764c-0.695,-0.912 -1.265,-1.184 -2.453,-1.174c-2.928,0.027 -4.64,2.457 -3.631,5.154c0.408,1.092 1.468,2.204 2.099,2.204c0.545,0 0.759,-0.291 1.101,-1.502c0.291,-1.033 0.555,-1.359 1.101,-1.359c1.059,0 1.772,0.65 2.255,2.055c0.546,1.585 0.845,1.757 1.069,0.615Zm4.144,0.299c0.113,-0.177 0.303,-0.655 0.421,-1.062c0.299,-1.024 0.472,-1.307 0.998,-1.628c0.557,-0.339 1.35,-0.359 1.798,-0.045c0.4,0.279 0.732,1.021 0.732,1.631c0,1.192 0.804,1.357 1.77,0.364c0.886,-0.912 1.719,-2.549 1.616,-3.179c-0.21,-1.295 -1.262,-2.758 -2.363,-3.287c-0.663,-0.318 -1.987,-0.422 -2.641,-0.206c-1.149,0.379 -2.185,2.161 -2.902,4.988c-0.482,1.898 -0.452,2.746 0.098,2.746c0.147,-0 0.36,-0.145 0.473,-0.322l-0,-0Zm32.08,-1.581c0.983,-1.957 1.594,-2.337 2.632,-1.637c0.829,0.559 1.17,1.399 0.927,2.288c-0.097,0.357 -0.072,0.393 0.272,0.393c0.944,0 2.203,-1.031 2.77,-2.268c0.653,-1.428 0.26,-3.274 -0.917,-4.308c-0.772,-0.677 -1.417,-0.91 -2.495,-0.899c-1.203,0.012 -1.872,0.299 -2.4,1.028c-0.865,1.193 -1.708,3.879 -1.845,5.875c-0.078,1.145 -0.068,1.204 0.167,1.009c0.137,-0.114 0.537,-0.78 0.889,-1.481Zm-34.87,-5.406c0.009,-2.88 -0.026,-5.921 -0.077,-6.758l-0.093,-1.524l-0.801,0.667c-2.349,1.956 -2.925,2.757 -2.914,4.052c0.009,0.995 0.276,1.717 1.289,3.493c0.918,1.608 1.662,3.477 1.953,4.906c0.109,0.534 0.25,1.228 0.313,1.543l0.116,0.572l0.099,-0.858c0.055,-0.472 0.107,-3.214 0.115,-6.093l0,-0Zm1.368,4.905c0.472,-1.863 1.024,-3.261 2.073,-5.25c0.985,-1.868 1.182,-2.43 1.174,-3.36c-0.005,-0.806 -0.257,-1.36 -0.979,-2.159c-0.678,-0.75 -2.246,-1.991 -2.516,-1.991c-0.118,0 -0.261,0.177 -0.317,0.394c-0.124,0.476 -0.107,13.368 0.018,13.694c0.049,0.126 0.108,0.211 0.131,0.187c0.023,-0.023 0.21,-0.705 0.416,-1.515l-0,-0Zm24.375,1.183c0.156,-0.199 0.329,-0.633 0.385,-0.965c0.195,-1.176 0.634,-1.677 1.468,-1.677c0.632,0 1.144,0.5 1.69,1.652c0.61,1.285 0.858,1.528 1.156,1.132c0.435,-0.578 -0.083,-3.049 -1.037,-4.943c-0.913,-1.816 -1.56,-2.307 -3.063,-2.326c-1.167,-0.014 -1.849,0.316 -2.776,1.347c-0.863,0.961 -1.196,1.997 -0.953,2.972c0.218,0.875 0.705,1.692 1.42,2.387c0.897,0.87 1.282,0.965 1.71,0.421Zm5.868,-8.543c0.01,-3.206 -0.018,-5.829 -0.063,-5.829c-0.046,0 -0.531,0.266 -1.078,0.591c-1.285,0.764 -2.051,1.63 -2.278,2.577c-0.322,1.343 -0.024,2.537 1.134,4.543c0.883,1.532 1.404,2.873 1.672,4.305c0.11,0.59 0.247,1.234 0.303,1.431c0.194,0.682 0.291,-1.693 0.31,-7.618l0,0Zm2.169,4.691c0.168,-0.475 0.821,-1.937 1.451,-3.248c1.92,-4 1.78,-4.653 -1.514,-7.062l-1.132,-0.827l0.092,6.638c0.051,3.652 0.137,6.8 0.192,6.997c0.085,0.299 0.142,0.194 0.353,-0.639c0.138,-0.547 0.389,-1.384 0.558,-1.859Zm-62.363,-6.091c0.575,-0.293 0.876,-0.881 0.595,-1.163c-0.313,-0.312 -2.323,0.912 -2.323,1.414c0,0.289 0.936,0.153 1.728,-0.251Zm-3.587,-1.7c-0,-0.289 -0.743,-1.502 -1.25,-2.042c-0.247,-0.263 -0.377,-0.581 -0.407,-1c-0.05,-0.714 -0.438,-1.117 -1.073,-1.117c-0.379,-0 -0.404,0.032 -0.325,0.427c0.067,0.334 0.028,0.448 -0.182,0.526c-0.386,0.142 -0.478,0.332 -0.48,0.988c-0.002,0.464 0.103,0.705 0.514,1.185c0.755,0.882 2.061,1.487 2.881,1.335c0.183,-0.034 0.322,-0.164 0.322,-0.302Zm48.484,-14.995c-0.006,-1.712 -0.061,-3.24 -0.122,-3.397c-0.101,-0.258 -0.135,-0.239 -0.363,0.202c-0.756,1.462 -1.125,3.662 -0.808,4.824c0.146,0.538 0.902,1.482 1.187,1.482c0.063,0 0.111,-1.4 0.106,-3.111Zm1.625,1.894c0.358,-1.145 0.253,-2.588 -0.311,-4.246c-0.724,-2.133 -0.748,-2.084 -0.682,1.386c0.033,1.731 0.108,3.295 0.167,3.476c0.183,0.569 0.539,0.304 0.826,-0.616Zm-4.028,-3.312c0.633,-0.682 1.073,-1.791 0.895,-2.254c-0.048,-0.125 -0.231,-0.226 -0.408,-0.226c-0.55,-0 -2.231,2.688 -2.022,3.233c0.067,0.176 0.163,0.166 0.619,-0.069c0.296,-0.152 0.709,-0.46 0.916,-0.684l0,0Zm6.271,-0.54c-0.696,-1.426 -1.391,-2.142 -1.891,-1.951c-0.208,0.079 -0.311,0.226 -0.29,0.412c0.058,0.529 0.76,1.837 1.226,2.284c0.45,0.432 1.416,0.808 1.505,0.587c0.025,-0.062 -0.222,-0.662 -0.55,-1.332Zm-52.555,-0.294c0.272,-0.272 0.325,-0.417 0.222,-0.61c-0.253,-0.473 -0.711,-0.774 -1.293,-0.852c-0.544,-0.073 -1.444,0.16 -1.444,0.374c-0,0.052 0.272,0.189 0.604,0.304c0.359,0.125 0.674,0.349 0.774,0.552c0.329,0.662 0.643,0.726 1.137,0.232Zm52.033,-2.689c0.434,-0.19 0.537,-0.306 0.5,-0.562c-0.07,-0.493 -0.662,-0.687 -2.627,-0.861c-3.103,-0.275 -4.829,0.131 -4.59,1.082c0.145,0.578 0.641,0.665 3.524,0.621c2.092,-0.032 2.761,-0.091 3.193,-0.28Zm-4.914,-2.662c0.39,-1.447 -0.808,-5.544 -1.929,-6.597c-0.328,-0.308 -0.536,-0.362 -1.554,-0.405c-1.692,-0.071 -2.295,0.131 -3.213,1.073c-0.962,0.988 -1.376,1.873 -1.248,2.67c0.218,1.367 1.706,3.387 2.494,3.387c0.511,0 0.68,-0.197 0.952,-1.112c0.698,-2.35 3.215,-2.019 3.569,0.469c0.169,1.19 0.672,1.469 0.929,0.515Zm4.457,-0.42c0.701,-1.682 1.162,-2.168 2.06,-2.169c1.017,-0.001 1.815,1.326 1.486,2.471c-0.183,0.64 0.03,0.788 0.685,0.476c0.933,-0.445 1.864,-1.341 2.282,-2.194c1.022,-2.09 0.055,-4.601 -1.937,-5.028c-0.772,-0.166 -2.649,-0.007 -3.162,0.268c-0.735,0.394 -1.698,2.294 -2.236,4.417c-0.374,1.473 -0.418,2.039 -0.192,2.462c0.225,0.419 0.677,0.106 1.014,-0.703Zm-2.924,-4.986c0.032,-2.739 0.007,-6.062 -0.056,-7.384l-0.114,-2.404l-1.46,1.224c-2.811,2.356 -2.912,3.209 -0.896,7.617c1.222,2.673 1.597,3.661 1.933,5.089c0.166,0.702 0.312,1.06 0.398,0.974c0.078,-0.078 0.161,-2.241 0.195,-5.116l-0,0Zm1.253,3.711c0.425,-1.816 1.048,-3.419 2.183,-5.615c1.146,-2.219 1.353,-2.994 1.048,-3.918c-0.197,-0.598 -1.275,-1.826 -2.493,-2.84c-1.328,-1.106 -1.293,-1.229 -1.353,4.724c-0.051,4.952 0.059,8.757 0.253,8.757c0.057,0 0.219,-0.499 0.362,-1.108Z" style="fill-rule:nonzero;"/></g><g><path d="M200.723,63.773l0.781,5.86l0.073,0.61l-0.073,0.244c-0.081,0.146 -0.203,0.228 -0.366,0.244c-0.196,0.016 -0.489,-0.324 -0.879,-1.023c-3.047,-5.324 -7.176,-7.986 -12.39,-7.986c-4.154,0 -7.429,1.276 -9.824,3.827c-2.394,2.552 -3.592,6.038 -3.592,10.458c0,5.086 1.332,9.243 3.996,12.468c2.663,3.226 6.088,4.839 10.275,4.839c2.444,0 4.847,-0.653 7.209,-1.959c2.362,-1.306 4,-2.889 4.912,-4.751c0.423,-0.865 0.748,-1.306 0.976,-1.322c0.261,-0.016 0.391,0.139 0.391,0.466l-0.024,0.27l-0.098,0.54l-0.562,2.994l-0.097,0.442c-0.065,0.423 -0.448,0.862 -1.148,1.318c-3.76,2.393 -7.902,3.589 -12.426,3.589c-5.241,0 -9.465,-1.553 -12.671,-4.66c-3.207,-3.106 -4.81,-7.197 -4.81,-12.271c0,-5.075 1.66,-9.292 4.98,-12.65c3.32,-3.359 7.486,-5.038 12.499,-5.038c3.434,-0 6.591,0.773 9.472,2.319l0.976,0.513l0.391,0.171l0.415,0.146c0.081,0 0.204,-0.065 0.367,-0.195c0.358,-0.26 0.603,-0.391 0.733,-0.391c0.261,0 0.432,0.31 0.514,0.928Z" style="fill:#d4ae21;fill-rule:nonzero;"/><path d="M217.129,83.524l-0,-3.01c-0,-1.86 -0.35,-3.147 -1.05,-3.859c-0.944,-0.971 -2.213,-1.456 -3.808,-1.456c-2.149,-0 -3.223,0.904 -3.223,2.711c-0,0.533 0.106,1.146 0.317,1.84c0.098,0.291 0.155,0.549 0.171,0.775c0.016,0.29 -0.145,0.436 -0.485,0.436c-0.759,-0 -1.45,-0.163 -2.073,-0.489c-0.622,-0.325 -0.933,-0.683 -0.933,-1.074c-0,-1.005 0.545,-2.09 1.636,-3.257c1.465,-1.572 3.41,-2.358 5.835,-2.358c2.213,-0 3.93,0.492 5.151,1.475c1.221,0.983 1.831,2.369 1.831,4.157l0,9.559c0,1.511 0.183,2.588 0.549,3.23c0.367,0.643 0.981,0.964 1.844,0.964c0.244,-0 0.439,-0.014 0.586,-0.042c0.293,-0.07 0.488,-0.105 0.586,-0.105c0.276,-0.016 0.406,0.098 0.39,0.342c-0.016,0.293 -0.4,0.59 -1.151,0.891c-0.751,0.301 -1.486,0.452 -2.204,0.452c-1.339,-0 -2.547,-0.83 -3.625,-2.49c-2.355,1.79 -4.54,2.685 -6.555,2.685c-1.527,0 -2.741,-0.411 -3.643,-1.233c-0.901,-0.822 -1.352,-1.924 -1.352,-3.308c-0,-1.872 0.853,-3.324 2.558,-4.358c1.705,-1.033 4.588,-1.859 8.648,-2.478Zm-0,0.977c-2.524,0.226 -4.473,0.797 -5.848,1.711c-1.375,0.915 -2.062,2.084 -2.062,3.509c-0,1.117 0.327,2.003 0.982,2.659c0.656,0.655 1.541,0.983 2.657,0.983c1.359,-0 2.5,-0.445 3.422,-1.335c0.566,-0.566 0.849,-1.464 0.849,-2.693l-0,-4.834Z" style="fill:#d4ae21;fill-rule:nonzero;"/><path d="M233.511,78.226c1.888,-2.962 3.629,-4.443 5.224,-4.443c0.505,-0 1.168,0.301 1.99,0.903c0.822,0.602 1.249,1.091 1.282,1.465c0.016,0.242 -0.243,0.689 -0.779,1.341c-0.536,0.653 -0.917,0.987 -1.144,1.003c-0.114,-0 -0.471,-0.195 -1.071,-0.586c-0.698,-0.488 -1.364,-0.733 -1.996,-0.733c-0.991,0 -1.818,0.359 -2.484,1.076c-0.665,0.718 -0.998,1.612 -0.998,2.684l0,8.699c0,1.365 0.183,2.336 0.55,2.912c0.366,0.577 1.005,0.906 1.916,0.987l1.27,0.098c0.52,0.032 0.781,0.195 0.781,0.488c-0,0.325 -0.229,0.488 -0.685,0.488c-0.114,0 -0.498,-0.041 -1.15,-0.122c-0.31,-0.033 -0.767,-0.049 -1.371,-0.049l-1.762,-0.024l-1.077,-0c-1.272,-0 -2.178,0.04 -2.716,0.122c-0.424,0.065 -0.718,0.106 -0.881,0.122c-0.441,0.016 -0.661,-0.143 -0.661,-0.477c0,-0.27 0.252,-0.453 0.757,-0.548c0.7,-0.163 1.151,-0.464 1.355,-0.904c0.203,-0.439 0.305,-1.375 0.305,-2.807l0,-10.474c0,-1.872 -0.895,-2.808 -2.685,-2.808l-0.831,0.025c-0.374,-0 -0.561,-0.167 -0.561,-0.501c-0,-0.201 0.122,-0.351 0.366,-0.451c0.147,-0.033 0.326,-0.057 0.537,-0.074c1.53,-0.146 3.337,-0.862 5.42,-2.148c0.212,-0.114 0.399,-0.179 0.562,-0.195c0.374,-0.017 0.561,0.26 0.561,0.83l-0.024,0.464l-0,3.637Z" style="fill:#d4ae21;fill-rule:nonzero;"/><path d="M254.336,73.783c2.93,-0 5.444,1.028 7.544,3.085c2.1,2.056 3.149,4.507 3.149,7.352c0,3.089 -1.033,5.641 -3.1,7.657c-2.067,2.016 -4.68,3.024 -7.837,3.024c-3.093,0 -5.636,-0.979 -7.63,-2.938c-1.993,-1.959 -2.99,-4.467 -2.99,-7.523c-0,-2.959 1.058,-5.475 3.174,-7.548c2.115,-2.073 4.679,-3.109 7.69,-3.109Zm-0.622,0.976c-2.031,0 -3.668,0.753 -4.911,2.259c-1.243,1.505 -1.864,3.479 -1.864,5.92c-0,3.109 0.775,5.709 2.327,7.8c1.552,2.092 3.482,3.138 5.789,3.138c2.015,-0 3.603,-0.741 4.765,-2.222c1.162,-1.481 1.743,-3.491 1.743,-6.03c-0,-3.207 -0.732,-5.819 -2.194,-7.837c-1.463,-2.018 -3.347,-3.028 -5.655,-3.028Z" style="fill:#d4ae21;fill-rule:nonzero;"/><path d="M273.393,59.99l-0,28.658c-0,1.335 0.154,2.361 0.464,3.078c0.358,0.814 1.367,1.36 3.027,1.637c0.456,0.08 0.692,0.247 0.708,0.501c0.016,0.366 -0.155,0.549 -0.514,0.549c-0.147,-0 -0.359,-0.033 -0.636,-0.098c-0.245,-0.049 -0.612,-0.073 -1.102,-0.073l-2.129,0.024l-1.273,0c-1.549,0 -2.504,0.025 -2.863,0.074c-0.522,0.081 -0.832,0.122 -0.93,0.122c-0.424,-0 -0.644,-0.16 -0.661,-0.478c-0.016,-0.27 0.212,-0.469 0.684,-0.597c0.732,-0.211 1.225,-0.492 1.477,-0.842c0.252,-0.35 0.378,-0.915 0.378,-1.697l0,-27.075c0,-1.497 -0.52,-2.246 -1.562,-2.246l-1.221,0.049c-0.162,-0 -0.301,-0.017 -0.415,-0.05c-0.195,-0.084 -0.293,-0.217 -0.293,-0.401c0,-0.234 0.213,-0.409 0.637,-0.526c0.556,-0.13 1.062,-0.285 1.519,-0.464l1.495,-0.61c1.143,-0.456 1.936,-0.846 2.377,-1.172c0.196,-0.13 0.359,-0.195 0.49,-0.195c0.245,-0.016 0.367,0.342 0.367,1.075l-0.024,0.757Z" style="fill:#d4ae21;fill-rule:nonzero;"/><path d="M285.076,63.7c0.392,-0 0.793,0.327 1.203,0.981l0.589,0.932c0.163,0.229 0.245,0.434 0.245,0.614c0.017,0.376 -0.262,0.899 -0.835,1.57c-0.572,0.67 -1.031,1.005 -1.375,1.005c-0.327,0 -0.761,-0.327 -1.301,-0.981c-0.54,-0.654 -0.81,-1.169 -0.81,-1.545c0,-0.377 0.299,-0.9 0.896,-1.57c0.598,-0.671 1.06,-1.006 1.388,-1.006Zm1.525,26.607c-0,1.157 0.126,1.931 0.378,2.322c0.252,0.392 0.785,0.644 1.599,0.758l1.123,0.122c0.586,0.08 0.871,0.287 0.855,0.62c-0.017,0.271 -0.237,0.406 -0.661,0.406c-0.277,-0 -0.808,-0.037 -1.591,-0.112c-0.441,-0.037 -1.012,-0.056 -1.713,-0.056l-1.567,-0.027l-1.787,0.097c-0.326,0.016 -0.579,0.041 -0.759,0.073c-0.424,0.049 -0.717,0.074 -0.881,0.074c-0.44,-0 -0.66,-0.151 -0.66,-0.451c-0,-0.25 0.146,-0.426 0.439,-0.526l0.464,-0.146c0.521,-0.179 0.883,-0.488 1.086,-0.927c0.204,-0.439 0.306,-1.146 0.306,-2.121l-0,-10.629c-0,-1.349 -0.131,-2.227 -0.391,-2.633c-0.261,-0.406 -0.822,-0.609 -1.685,-0.609c-0.618,-0 -0.919,-0.128 -0.903,-0.383c0.016,-0.222 0.433,-0.461 1.25,-0.716c0.915,-0.309 2.076,-0.83 3.481,-1.562l1.299,-0.611c0.212,0.016 0.318,0.212 0.318,0.587l-0,16.45Z" style="fill:#d4ae21;fill-rule:nonzero;"/><path d="M299.735,77.665c2.181,-2.588 4.444,-3.882 6.788,-3.882c2.604,-0 4.663,1.067 6.176,3.202c1.042,1.467 1.563,3.699 1.563,6.698l-0,5.842l-0.025,0.734l0.074,1.173c0.179,1.075 0.862,1.703 2.05,1.882l1.026,0.147c0.439,0.063 0.667,0.222 0.683,0.476c0.017,0.35 -0.251,0.525 -0.803,0.525c-0.179,-0 -0.495,-0.028 -0.95,-0.084c-0.535,-0.074 -1.526,-0.112 -2.97,-0.112l-2.411,0.074l-0.925,-0l-0.707,0.048l-0.34,-0.075c-0.114,-0.067 -0.171,-0.192 -0.171,-0.376c0,-0.251 0.147,-0.409 0.439,-0.476l0.733,-0.195c0.651,-0.163 0.976,-0.748 0.976,-1.756l0,-8.411c0,-2.259 -0.522,-4.002 -1.565,-5.229c-1.044,-1.227 -2.529,-1.841 -4.453,-1.841c-1.354,-0 -2.557,0.399 -3.609,1.196c-1.053,0.798 -1.579,1.709 -1.579,2.735l0,9.318l0.025,0.734l0.024,1.223c0.082,1.369 1.213,2.12 3.394,2.25c0.537,0.05 0.805,0.225 0.805,0.526c0,0.3 -0.187,0.451 -0.561,0.451c-0.277,-0 -0.692,-0.047 -1.245,-0.14c-0.309,-0.037 -1.074,-0.056 -2.295,-0.056c-2.588,0 -4.134,0.038 -4.639,0.112c-0.504,0.056 -0.83,0.084 -0.976,0.084c-0.31,-0 -0.456,-0.134 -0.44,-0.402c0.016,-0.201 0.171,-0.36 0.464,-0.477c0.83,-0.293 1.388,-0.65 1.672,-1.073c0.285,-0.423 0.428,-1.105 0.428,-2.048l-0,-11.019c-0,-1.154 -0.139,-1.939 -0.415,-2.353c-0.277,-0.414 -0.798,-0.622 -1.563,-0.622l-1.05,0.025c-0.146,-0 -0.276,-0.034 -0.39,-0.1c-0.147,-0.067 -0.22,-0.184 -0.22,-0.351c-0,-0.234 0.212,-0.393 0.635,-0.477c1.09,-0.195 2.14,-0.529 3.149,-1.001l1.294,-0.635c0.505,-0.244 0.822,-0.398 0.952,-0.463c0.228,-0.131 0.423,-0.196 0.586,-0.196c0.293,0 0.423,0.236 0.391,0.708c-0.016,0.261 -0.025,0.57 -0.025,0.928l0,2.759Z" style="fill:#d4ae21;fill-rule:nonzero;"/><path d="M323.271,94.99l-0,-0.171c-1.107,-0.845 -1.661,-1.764 -1.661,-2.756c0,-1.902 0.953,-3.519 2.857,-4.852c-2.165,-1.286 -3.247,-3.296 -3.247,-6.031c-0,-2.116 0.712,-3.877 2.136,-5.285c1.424,-1.408 3.21,-2.112 5.359,-2.112c1.937,-0 3.678,0.488 5.225,1.465c0.553,0.358 0.952,0.537 1.196,0.537c0.586,-0 1.245,-0.208 1.977,-0.623c0.733,-0.415 1.172,-0.826 1.319,-1.233l0.317,-0.927c0.049,-0.179 0.179,-0.277 0.391,-0.293c0.276,-0.017 0.415,0.18 0.415,0.588c-0,0.327 -0.126,0.961 -0.379,1.901c-0.252,0.94 -0.476,1.598 -0.671,1.973c-0.277,0.54 -0.757,0.908 -1.44,1.104c-0.31,0.097 -0.464,0.244 -0.464,0.438c-0,0.114 0.024,0.268 0.073,0.463c0.146,0.52 0.22,1.21 0.22,2.07c-0,1.851 -0.757,3.467 -2.271,4.847c-1.514,1.38 -3.28,2.07 -5.298,2.07c-0.862,-0 -1.831,-0.098 -2.905,-0.293c-0.309,-0.065 -0.57,-0.098 -0.781,-0.098c-0.51,0 -1.004,0.284 -1.482,0.85c-0.477,0.567 -0.716,1.158 -0.716,1.774c0,0.842 0.449,1.441 1.346,1.798c0.896,0.356 2.421,0.534 4.573,0.534c3.211,0 5.481,0.334 6.81,1.001c1.329,0.668 1.993,1.815 1.993,3.443c0,1.871 -0.932,3.458 -2.795,4.76c-1.864,1.302 -4.147,1.953 -6.848,1.953c-2.605,0 -4.716,-0.446 -6.336,-1.34c-1.619,-0.894 -2.429,-2.072 -2.429,-3.534c-0,-1.885 1.172,-3.225 3.516,-4.021Zm5.543,-20.377c-1.231,-0 -2.271,0.551 -3.121,1.654c-0.85,1.102 -1.275,2.432 -1.275,3.988c0,2.027 0.457,3.689 1.372,4.986c0.915,1.297 2.077,1.945 3.485,1.945c1.328,0 2.401,-0.523 3.218,-1.568c0.818,-1.046 1.227,-2.42 1.227,-4.123c-0,-1.978 -0.466,-3.619 -1.397,-4.924c-0.931,-1.305 -2.101,-1.958 -3.509,-1.958Zm-4.469,20.747c-1.546,0.684 -2.32,1.808 -2.32,3.371c0,1.303 0.544,2.325 1.63,3.066c1.086,0.741 2.576,1.112 4.471,1.112c2.221,-0 4.075,-0.427 5.562,-1.282c1.486,-0.854 2.229,-1.925 2.229,-3.21c0,-1.514 -1.147,-2.271 -3.442,-2.271c-0.31,0 -1.172,-0.049 -2.588,-0.146l-2.588,-0.173c-1.221,-0.082 -2.206,-0.237 -2.954,-0.467Z" style="fill:#d4ae21;fill-rule:nonzero;"/><path d="M346.721,63.7c0.393,-0 0.794,0.327 1.203,0.981l0.589,0.932c0.164,0.229 0.246,0.434 0.246,0.614c0.016,0.376 -0.262,0.899 -0.835,1.57c-0.573,0.67 -1.031,1.005 -1.375,1.005c-0.327,0 -0.761,-0.327 -1.301,-0.981c-0.54,-0.654 -0.81,-1.169 -0.81,-1.545c-0,-0.377 0.298,-0.9 0.896,-1.57c0.597,-0.671 1.06,-1.006 1.387,-1.006Zm1.525,26.607c0,1.157 0.126,1.931 0.379,2.322c0.252,0.392 0.785,0.644 1.599,0.758l1.123,0.122c0.586,0.08 0.871,0.287 0.854,0.62c-0.016,0.271 -0.236,0.406 -0.66,0.406c-0.278,-0 -0.808,-0.037 -1.592,-0.112c-0.44,-0.037 -1.011,-0.056 -1.713,-0.056l-1.566,-0.027l-1.787,0.097c-0.327,0.016 -0.579,0.041 -0.759,0.073c-0.424,0.049 -0.718,0.074 -0.881,0.074c-0.441,-0 -0.661,-0.151 -0.661,-0.451c0,-0.25 0.147,-0.426 0.44,-0.526l0.463,-0.146c0.521,-0.179 0.883,-0.488 1.087,-0.927c0.203,-0.439 0.305,-1.146 0.305,-2.121l0,-10.629c0,-1.349 -0.13,-2.227 -0.391,-2.633c-0.26,-0.406 -0.822,-0.609 -1.684,-0.609c-0.619,-0 -0.92,-0.128 -0.904,-0.383c0.017,-0.222 0.433,-0.461 1.251,-0.716c0.915,-0.309 2.075,-0.83 3.48,-1.562l1.3,-0.611c0.211,0.016 0.317,0.212 0.317,0.587l0,16.45Z" style="fill:#d4ae21;fill-rule:nonzero;"/><path d="M366.166,83.524l0,-3.01c0,-1.86 -0.35,-3.147 -1.05,-3.859c-0.944,-0.971 -2.213,-1.456 -3.808,-1.456c-2.149,-0 -3.223,0.904 -3.223,2.711c0,0.533 0.106,1.146 0.317,1.84c0.098,0.291 0.155,0.549 0.171,0.775c0.017,0.29 -0.145,0.436 -0.485,0.436c-0.759,-0 -1.45,-0.163 -2.072,-0.489c-0.623,-0.325 -0.934,-0.683 -0.934,-1.074c0,-1.005 0.545,-2.09 1.636,-3.257c1.465,-1.572 3.41,-2.358 5.835,-2.358c2.213,-0 3.93,0.492 5.151,1.475c1.221,0.983 1.831,2.369 1.831,4.157l0,9.559c0,1.511 0.183,2.588 0.55,3.23c0.366,0.643 0.98,0.964 1.843,0.964c0.244,-0 0.439,-0.014 0.586,-0.042c0.293,-0.07 0.488,-0.105 0.586,-0.105c0.276,-0.016 0.407,0.098 0.39,0.342c-0.016,0.293 -0.4,0.59 -1.151,0.891c-0.751,0.301 -1.486,0.452 -2.204,0.452c-1.339,-0 -2.547,-0.83 -3.624,-2.49c-2.356,1.79 -4.541,2.685 -6.556,2.685c-1.527,0 -2.741,-0.411 -3.642,-1.233c-0.902,-0.822 -1.353,-1.924 -1.353,-3.308c0,-1.872 0.853,-3.324 2.558,-4.358c1.705,-1.033 4.588,-1.859 8.648,-2.478Zm0,0.977c-2.523,0.226 -4.473,0.797 -5.848,1.711c-1.375,0.915 -2.062,2.084 -2.062,3.509c-0,1.117 0.327,2.003 0.983,2.659c0.655,0.655 1.54,0.983 2.657,0.983c1.358,-0 2.499,-0.445 3.421,-1.335c0.566,-0.566 0.849,-1.464 0.849,-2.693l0,-4.834Z" style="fill:#d4ae21;fill-rule:nonzero;"/><path d="M382.548,77.665c2.181,-2.588 4.443,-3.882 6.787,-3.882c2.604,-0 4.663,1.067 6.177,3.202c1.041,1.467 1.562,3.699 1.562,6.698l0,5.842l-0.024,0.734l0.073,1.173c0.179,1.075 0.863,1.703 2.051,1.882l1.025,0.147c0.44,0.063 0.668,0.222 0.684,0.476c0.016,0.35 -0.252,0.525 -0.804,0.525c-0.178,-0 -0.495,-0.028 -0.949,-0.084c-0.536,-0.074 -1.526,-0.112 -2.971,-0.112l-2.411,0.074l-0.925,-0l-0.706,0.048l-0.341,-0.075c-0.114,-0.067 -0.17,-0.192 -0.17,-0.376c-0,-0.251 0.146,-0.409 0.439,-0.476l0.732,-0.195c0.651,-0.163 0.977,-0.748 0.977,-1.756l-0,-8.411c-0,-2.259 -0.522,-4.002 -1.566,-5.229c-1.044,-1.227 -2.528,-1.841 -4.453,-1.841c-1.354,-0 -2.557,0.399 -3.609,1.196c-1.052,0.798 -1.578,1.709 -1.578,2.735l-0,9.318l0.024,0.734l0.025,1.223c0.081,1.369 1.212,2.12 3.393,2.25c0.537,0.05 0.806,0.225 0.806,0.526c-0,0.3 -0.187,0.451 -0.562,0.451c-0.276,-0 -0.691,-0.047 -1.245,-0.14c-0.309,-0.037 -1.074,-0.056 -2.295,-0.056c-2.587,0 -4.134,0.038 -4.638,0.112c-0.505,0.056 -0.83,0.084 -0.977,0.084c-0.309,-0 -0.456,-0.134 -0.439,-0.402c0.016,-0.201 0.171,-0.36 0.464,-0.477c0.83,-0.293 1.387,-0.65 1.672,-1.073c0.285,-0.423 0.427,-1.105 0.427,-2.048l0,-11.019c0,-1.154 -0.138,-1.939 -0.415,-2.353c-0.277,-0.414 -0.797,-0.622 -1.562,-0.622l-1.05,0.025c-0.147,-0 -0.277,-0.034 -0.391,-0.1c-0.146,-0.067 -0.22,-0.184 -0.22,-0.351c0,-0.234 0.212,-0.393 0.635,-0.477c1.091,-0.195 2.141,-0.529 3.15,-1.001l1.294,-0.635c0.504,-0.244 0.822,-0.398 0.952,-0.463c0.228,-0.131 0.423,-0.196 0.586,-0.196c0.293,0 0.423,0.236 0.39,0.708c-0.016,0.261 -0.024,0.57 -0.024,0.928l-0,2.759Z" style="fill:#d4ae21;fill-rule:nonzero;"/><path d="M433.036,77.535l6.738,9.935l0.782,1.169c2.083,3.052 4.004,4.635 5.761,4.748l0.782,0.05c0.293,0.017 0.431,0.133 0.415,0.348c-0.017,0.249 -0.379,0.472 -1.087,0.671c-0.708,0.199 -1.509,0.299 -2.404,0.299c-1.465,-0 -2.78,-0.403 -3.943,-1.209c-1.164,-0.806 -2.348,-2.12 -3.553,-3.943l-6.079,-9.277l-0.341,-0.537c-0.391,-0.668 -1.026,-1.001 -1.905,-1.001l-3.247,-0l-0.537,0.098c-0.195,0.114 -0.293,0.375 -0.293,0.784l0,7.642l0.024,0.98c0,1.404 0.07,2.363 0.208,2.878c0.138,0.514 0.468,0.976 0.989,1.384c0.7,0.555 1.782,0.906 3.247,1.053c0.586,0.064 0.887,0.247 0.903,0.549c0.033,0.318 -0.236,0.477 -0.806,0.477c-0.227,-0 -0.708,-0.037 -1.44,-0.109c-0.667,-0.072 -1.701,-0.109 -3.101,-0.109l-2.343,-0.027l-1.27,0.025c-0.553,-0 -1.221,0.04 -2.002,0.122c-0.635,0.065 -1.074,0.098 -1.318,0.098c-0.407,-0 -0.61,-0.167 -0.61,-0.501c-0,-0.238 0.203,-0.397 0.61,-0.476c1.302,-0.244 2.156,-0.835 2.563,-1.773c0.407,-0.937 0.611,-2.783 0.611,-5.538l-0,-17.556l-0.049,-2.543c-0,-2.543 -0.887,-3.961 -2.661,-4.255l-1.148,-0.171c-0.521,-0.095 -0.781,-0.286 -0.781,-0.573c0,-0.334 0.277,-0.501 0.83,-0.501c0.13,-0 0.7,0.032 1.709,0.097c0.586,0.049 1.31,0.074 2.173,0.074c0.749,-0 2.026,-0.057 3.833,-0.171c1.302,-0.082 2.45,-0.122 3.442,-0.122c3.744,-0 6.568,0.704 8.472,2.114c1.904,1.409 2.856,3.507 2.856,6.293c0,3.665 -2.01,6.5 -6.03,8.504Zm-7.174,-0.529l2.765,-0c2.137,-0 3.817,-0.588 5.04,-1.764c1.223,-1.176 1.835,-2.784 1.835,-4.826c0,-2.367 -0.832,-4.315 -2.496,-5.842c-1.663,-1.527 -3.784,-2.29 -6.361,-2.29c-0.962,-0 -1.627,0.159 -1.994,0.477c-0.367,0.319 -0.55,0.895 -0.55,1.727l0.024,0.809l0,9.945c0,0.768 0.102,1.253 0.306,1.457c0.204,0.205 0.681,0.307 1.431,0.307Z" style="fill:#d4ae21;fill-rule:nonzero;"/><path d="M458.793,73.783c2.93,-0 5.444,1.028 7.544,3.085c2.1,2.056 3.149,4.507 3.149,7.352c0,3.089 -1.033,5.641 -3.1,7.657c-2.067,2.016 -4.68,3.024 -7.837,3.024c-3.093,0 -5.636,-0.979 -7.63,-2.938c-1.993,-1.959 -2.99,-4.467 -2.99,-7.523c-0,-2.959 1.058,-5.475 3.174,-7.548c2.115,-2.073 4.679,-3.109 7.69,-3.109Zm-0.622,0.976c-2.031,0 -3.668,0.753 -4.911,2.259c-1.243,1.505 -1.864,3.479 -1.864,5.92c-0,3.109 0.775,5.709 2.327,7.8c1.552,2.092 3.482,3.138 5.789,3.138c2.015,-0 3.603,-0.741 4.765,-2.222c1.162,-1.481 1.743,-3.491 1.743,-6.03c-0,-3.207 -0.732,-5.819 -2.194,-7.837c-1.462,-2.018 -3.347,-3.028 -5.655,-3.028Z" style="fill:#d4ae21;fill-rule:nonzero;"/><path d="M481.742,90.8l3.683,-10.084c0.393,-1.09 0.59,-2.05 0.59,-2.88c-0,-0.782 -0.179,-1.347 -0.537,-1.697c-0.358,-0.35 -1.05,-0.647 -2.076,-0.891c-0.39,-0.084 -0.586,-0.259 -0.586,-0.526c0,-0.301 0.163,-0.443 0.487,-0.426c0.211,0.016 0.536,0.04 0.974,0.073c0.357,0.032 1.087,0.049 2.19,0.049c1.217,-0 2.069,-0.017 2.556,-0.049c0.551,-0.033 0.916,-0.049 1.095,-0.049c0.341,0 0.511,0.142 0.511,0.426c-0,0.217 -0.171,0.4 -0.513,0.551c-0.634,0.244 -1.086,0.52 -1.355,0.83c-0.268,0.309 -0.549,0.862 -0.842,1.66l-8.643,24.365l-0.244,0.781c-0.13,0.423 -0.285,0.668 -0.464,0.733c-0.179,0.065 -0.748,0.097 -1.709,0.097c-1.106,0 -1.66,-0.117 -1.66,-0.352c0,-0.134 0.098,-0.293 0.293,-0.478c1.123,-1.119 2.112,-2.462 2.967,-4.028c0.854,-1.565 1.281,-2.819 1.281,-3.76c0,-0.489 -0.309,-1.458 -0.927,-2.909l-6.128,-14.226c-0.407,-0.945 -0.769,-1.597 -1.087,-1.956c-0.317,-0.358 -0.761,-0.611 -1.33,-0.757c-0.358,-0.096 -0.537,-0.247 -0.537,-0.453c-0,-0.349 0.235,-0.524 0.706,-0.524c0.341,0 0.771,0.024 1.29,0.073c0.39,0.049 1.21,0.073 2.459,0.073c1.526,0 2.598,-0.024 3.215,-0.073c0.405,-0.032 0.698,-0.049 0.876,-0.049c0.439,-0.016 0.658,0.143 0.658,0.478c-0,0.287 -0.44,0.494 -1.319,0.621c-0.976,0.147 -1.465,0.554 -1.465,1.223c0,0.587 0.262,1.491 0.785,2.714l4.806,11.42Z" style="fill:#d4ae21;fill-rule:nonzero;"/><path d="M503.056,83.524l-0,-3.01c-0,-1.86 -0.35,-3.147 -1.05,-3.859c-0.944,-0.971 -2.214,-1.456 -3.809,-1.456c-2.148,-0 -3.222,0.904 -3.222,2.711c-0,0.533 0.105,1.146 0.317,1.84c0.098,0.291 0.155,0.549 0.171,0.775c0.016,0.29 -0.145,0.436 -0.485,0.436c-0.76,-0 -1.451,-0.163 -2.073,-0.489c-0.622,-0.325 -0.933,-0.683 -0.933,-1.074c-0,-1.005 0.545,-2.09 1.635,-3.257c1.465,-1.572 3.41,-2.358 5.835,-2.358c2.214,-0 3.931,0.492 5.152,1.475c1.221,0.983 1.831,2.369 1.831,4.157l-0,9.559c-0,1.511 0.183,2.588 0.549,3.23c0.366,0.643 0.981,0.964 1.843,0.964c0.245,-0 0.44,-0.014 0.586,-0.042c0.293,-0.07 0.489,-0.105 0.586,-0.105c0.277,-0.016 0.407,0.098 0.391,0.342c-0.016,0.293 -0.4,0.59 -1.151,0.891c-0.751,0.301 -1.486,0.452 -2.204,0.452c-1.339,-0 -2.547,-0.83 -3.625,-2.49c-2.356,1.79 -4.541,2.685 -6.555,2.685c-1.527,0 -2.741,-0.411 -3.643,-1.233c-0.901,-0.822 -1.352,-1.924 -1.352,-3.308c-0,-1.872 0.852,-3.324 2.558,-4.358c1.705,-1.033 4.588,-1.859 8.648,-2.478Zm-0,0.977c-2.524,0.226 -4.473,0.797 -5.848,1.711c-1.375,0.915 -2.062,2.084 -2.062,3.509c-0,1.117 0.327,2.003 0.982,2.659c0.655,0.655 1.541,0.983 2.657,0.983c1.359,-0 2.499,-0.445 3.422,-1.335c0.566,-0.566 0.849,-1.464 0.849,-2.693l-0,-4.834Z" style="fill:#d4ae21;fill-rule:nonzero;"/><path d="M518.974,59.99l-0,28.658c-0,1.335 0.154,2.361 0.464,3.078c0.358,0.814 1.367,1.36 3.027,1.637c0.456,0.08 0.692,0.247 0.708,0.501c0.016,0.366 -0.155,0.549 -0.514,0.549c-0.147,-0 -0.359,-0.033 -0.636,-0.098c-0.245,-0.049 -0.612,-0.073 -1.102,-0.073l-2.129,0.024l-1.272,0c-1.55,0 -2.505,0.025 -2.864,0.074c-0.522,0.081 -0.832,0.122 -0.93,0.122c-0.424,-0 -0.644,-0.16 -0.661,-0.478c-0.016,-0.27 0.212,-0.469 0.684,-0.597c0.733,-0.211 1.225,-0.492 1.477,-0.842c0.252,-0.35 0.379,-0.915 0.379,-1.697l-0,-27.075c-0,-1.497 -0.521,-2.246 -1.563,-2.246l-1.221,0.049c-0.162,-0 -0.301,-0.017 -0.415,-0.05c-0.195,-0.084 -0.293,-0.217 -0.293,-0.401c0,-0.234 0.213,-0.409 0.637,-0.526c0.556,-0.13 1.062,-0.285 1.519,-0.464l1.495,-0.61c1.143,-0.456 1.936,-0.846 2.377,-1.172c0.196,-0.13 0.359,-0.195 0.49,-0.195c0.245,-0.016 0.367,0.342 0.367,1.075l-0.024,0.757Z" style="fill:#d4ae21;fill-rule:nonzero;"/><path d="M531.181,76.737l-0,12.28c-0,1.595 0.228,2.629 0.683,3.101c0.668,0.7 1.62,1.05 2.857,1.05c0.993,-0 1.831,-0.179 2.514,-0.537l1.27,-0.611l0.146,-0.049c0.196,0 0.293,0.089 0.293,0.267c0,0.532 -0.643,1.11 -1.928,1.731c-1.286,0.621 -2.482,0.932 -3.589,0.932c-3.744,0 -5.615,-1.95 -5.615,-5.851l-0,-12.313l-2.173,0c-0.423,0 -0.635,-0.123 -0.635,-0.37c-0,-0.229 0.212,-0.523 0.635,-0.882c1.904,-1.616 3.361,-3.232 4.37,-4.848c0.439,-0.719 0.749,-1.078 0.928,-1.078c0.227,0 0.341,0.212 0.341,0.635l-0.097,4.224l5.2,-0c0.716,-0 1.269,-0.131 1.66,-0.391c0.244,-0.179 0.423,-0.277 0.537,-0.293c0.179,-0.032 0.261,0.058 0.244,0.271c0,0.082 -0.073,0.287 -0.219,0.616l-0.562,1.402c-0.179,0.476 -0.537,0.714 -1.074,0.714l-5.786,0Z" style="fill:#d4ae21;fill-rule:nonzero;"/><path d="M550.102,90.8l3.683,-10.084c0.393,-1.09 0.589,-2.05 0.589,-2.88c0,-0.782 -0.179,-1.347 -0.537,-1.697c-0.358,-0.35 -1.05,-0.647 -2.075,-0.891c-0.391,-0.084 -0.586,-0.259 -0.586,-0.526c-0,-0.301 0.162,-0.443 0.487,-0.426c0.21,0.016 0.535,0.04 0.973,0.073c0.357,0.032 1.087,0.049 2.191,0.049c1.216,-0 2.068,-0.017 2.555,-0.049c0.552,-0.033 0.917,-0.049 1.095,-0.049c0.341,0 0.511,0.142 0.511,0.426c0,0.217 -0.171,0.4 -0.512,0.551c-0.635,0.244 -1.087,0.52 -1.355,0.83c-0.269,0.309 -0.55,0.862 -0.843,1.66l-8.642,24.365l-0.244,0.781c-0.131,0.423 -0.285,0.668 -0.464,0.733c-0.179,0.065 -0.749,0.097 -1.709,0.097c-1.107,0 -1.66,-0.117 -1.66,-0.352c-0,-0.134 0.097,-0.293 0.293,-0.478c1.123,-1.119 2.111,-2.462 2.966,-4.028c0.854,-1.565 1.282,-2.819 1.282,-3.76c-0,-0.489 -0.31,-1.458 -0.928,-2.909l-6.128,-14.226c-0.407,-0.945 -0.769,-1.597 -1.086,-1.956c-0.318,-0.358 -0.761,-0.611 -1.331,-0.757c-0.358,-0.096 -0.537,-0.247 -0.537,-0.453c-0,-0.349 0.235,-0.524 0.706,-0.524c0.341,0 0.771,0.024 1.291,0.073c0.389,0.049 1.209,0.073 2.459,0.073c1.526,0 2.597,-0.024 3.214,-0.073c0.406,-0.032 0.698,-0.049 0.877,-0.049c0.438,-0.016 0.657,0.143 0.657,0.478c0,0.287 -0.439,0.494 -1.318,0.621c-0.977,0.147 -1.465,0.554 -1.465,1.223c-0,0.587 0.261,1.491 0.784,2.714l4.807,11.42Z" style="fill:#d4ae21;fill-rule:nonzero;"/><path d="M589.75,77.535l6.738,9.935l0.782,1.169c2.083,3.052 4.003,4.635 5.761,4.748l0.782,0.05c0.293,0.017 0.431,0.133 0.415,0.348c-0.017,0.249 -0.379,0.472 -1.087,0.671c-0.708,0.199 -1.509,0.299 -2.405,0.299c-1.464,-0 -2.779,-0.403 -3.942,-1.209c-1.164,-0.806 -2.348,-2.12 -3.553,-3.943l-6.079,-9.277l-0.342,-0.537c-0.39,-0.668 -1.025,-1.001 -1.904,-1.001l-3.247,-0l-0.537,0.098c-0.195,0.114 -0.293,0.375 -0.293,0.784l-0,7.642l0.024,0.98c0,1.404 0.07,2.363 0.208,2.878c0.138,0.514 0.468,0.976 0.989,1.384c0.699,0.555 1.782,0.906 3.247,1.053c0.586,0.064 0.887,0.247 0.903,0.549c0.033,0.318 -0.236,0.477 -0.806,0.477c-0.228,-0 -0.708,-0.037 -1.44,-0.109c-0.667,-0.072 -1.701,-0.109 -3.101,-0.109l-2.343,-0.027l-1.27,0.025c-0.553,-0 -1.221,0.04 -2.002,0.122c-0.635,0.065 -1.074,0.098 -1.318,0.098c-0.407,-0 -0.611,-0.167 -0.611,-0.501c0,-0.238 0.204,-0.397 0.611,-0.476c1.302,-0.244 2.156,-0.835 2.563,-1.773c0.407,-0.937 0.611,-2.783 0.611,-5.538l-0,-17.556l-0.049,-2.543c-0,-2.543 -0.887,-3.961 -2.661,-4.255l-1.148,-0.171c-0.521,-0.095 -0.781,-0.286 -0.781,-0.573c-0,-0.334 0.277,-0.501 0.83,-0.501c0.13,-0 0.7,0.032 1.709,0.097c0.586,0.049 1.31,0.074 2.173,0.074c0.749,-0 2.026,-0.057 3.833,-0.171c1.302,-0.082 2.449,-0.122 3.442,-0.122c3.744,-0 6.568,0.704 8.472,2.114c1.904,1.409 2.856,3.507 2.856,6.293c0,3.665 -2.01,6.5 -6.03,8.504Zm-7.174,-0.529l2.765,-0c2.136,-0 3.816,-0.588 5.04,-1.764c1.223,-1.176 1.835,-2.784 1.835,-4.826c-0,-2.367 -0.832,-4.315 -2.496,-5.842c-1.663,-1.527 -3.784,-2.29 -6.361,-2.29c-0.962,-0 -1.627,0.159 -1.994,0.477c-0.367,0.319 -0.55,0.895 -0.55,1.727l0.024,0.809l-0,9.945c-0,0.768 0.102,1.253 0.306,1.457c0.204,0.205 0.681,0.307 1.431,0.307Z" style="fill:#d4ae21;fill-rule:nonzero;"/><path d="M608.134,82.133l-0.025,0.537c0,2.783 0.771,5.123 2.311,7.019c1.541,1.896 3.436,2.844 5.686,2.844c1.777,-0 3.709,-0.798 5.796,-2.393c0.131,-0.097 0.253,-0.154 0.367,-0.171c0.228,-0.016 0.342,0.114 0.342,0.389c0,0.486 -0.569,1.174 -1.709,2.065c-2.115,1.652 -4.353,2.478 -6.713,2.478c-2.653,0 -4.879,-1.008 -6.678,-3.024c-1.798,-2.016 -2.697,-4.511 -2.697,-7.486c-0,-2.829 0.927,-5.304 2.783,-7.426c1.855,-2.121 4.028,-3.182 6.518,-3.182c2.718,-0 4.891,1.131 6.519,3.393c0.39,0.554 0.789,1.303 1.196,2.247c0.407,0.944 0.61,1.603 0.61,1.977c0,0.537 -0.529,0.806 -1.589,0.806l-1.81,-0.025l-1.663,-0.048l-9.244,-0Zm0.146,-1.343l8.277,-0c1.286,-0 1.928,-0.261 1.928,-0.782c0,-1.269 -0.549,-2.449 -1.648,-3.54c-1.098,-1.09 -2.29,-1.635 -3.576,-1.635c-1.335,-0 -2.446,0.533 -3.333,1.599c-0.887,1.066 -1.436,2.519 -1.648,4.358Z" style="fill:#d4ae21;fill-rule:nonzero;"/><path d="M628.446,94.99l0,-0.171c-1.106,-0.845 -1.66,-1.764 -1.66,-2.756c0,-1.902 0.952,-3.519 2.857,-4.852c-2.165,-1.286 -3.247,-3.296 -3.247,-6.031c-0,-2.116 0.712,-3.877 2.136,-5.285c1.424,-1.408 3.21,-2.112 5.359,-2.112c1.937,-0 3.678,0.488 5.224,1.465c0.554,0.358 0.952,0.537 1.197,0.537c0.586,-0 1.245,-0.208 1.977,-0.623c0.733,-0.415 1.172,-0.826 1.318,-1.233l0.318,-0.927c0.049,-0.179 0.179,-0.277 0.39,-0.293c0.277,-0.017 0.416,0.18 0.416,0.588c-0,0.327 -0.127,0.961 -0.379,1.901c-0.252,0.94 -0.476,1.598 -0.671,1.973c-0.277,0.54 -0.757,0.908 -1.441,1.104c-0.309,0.097 -0.464,0.244 -0.464,0.438c0,0.114 0.025,0.268 0.074,0.463c0.146,0.52 0.219,1.21 0.219,2.07c0,1.851 -0.756,3.467 -2.27,4.847c-1.514,1.38 -3.28,2.07 -5.298,2.07c-0.863,-0 -1.831,-0.098 -2.905,-0.293c-0.309,-0.065 -0.57,-0.098 -0.781,-0.098c-0.511,0 -1.004,0.284 -1.482,0.85c-0.477,0.567 -0.716,1.158 -0.716,1.774c0,0.842 0.449,1.441 1.345,1.798c0.897,0.356 2.421,0.534 4.573,0.534c3.212,0 5.482,0.334 6.811,1.001c1.329,0.668 1.993,1.815 1.993,3.443c-0,1.871 -0.932,3.458 -2.795,4.76c-1.864,1.302 -4.147,1.953 -6.849,1.953c-2.604,0 -4.716,-0.446 -6.335,-1.34c-1.62,-0.894 -2.429,-2.072 -2.429,-3.534c-0,-1.885 1.172,-3.225 3.515,-4.021Zm5.544,-20.377c-1.231,-0 -2.271,0.551 -3.121,1.654c-0.85,1.102 -1.275,2.432 -1.275,3.988c-0,2.027 0.457,3.689 1.372,4.986c0.915,1.297 2.076,1.945 3.485,1.945c1.328,0 2.401,-0.523 3.218,-1.568c0.818,-1.046 1.227,-2.42 1.227,-4.123c-0,-1.978 -0.466,-3.619 -1.397,-4.924c-0.931,-1.305 -2.101,-1.958 -3.509,-1.958Zm-4.469,20.747c-1.547,0.684 -2.32,1.808 -2.32,3.371c0,1.303 0.543,2.325 1.629,3.066c1.087,0.741 2.577,1.112 4.472,1.112c2.221,-0 4.075,-0.427 5.561,-1.282c1.487,-0.854 2.23,-1.925 2.23,-3.21c-0,-1.514 -1.148,-2.271 -3.443,-2.271c-0.309,0 -1.171,-0.049 -2.587,-0.146l-2.588,-0.173c-1.221,-0.082 -2.206,-0.237 -2.954,-0.467Z" style="fill:#d4ae21;fill-rule:nonzero;"/><path d="M651.897,63.7c0.393,-0 0.794,0.327 1.203,0.981l0.589,0.932c0.164,0.229 0.246,0.434 0.246,0.614c0.016,0.376 -0.262,0.899 -0.835,1.57c-0.573,0.67 -1.031,1.005 -1.375,1.005c-0.328,0 -0.761,-0.327 -1.301,-0.981c-0.541,-0.654 -0.811,-1.169 -0.811,-1.545c0,-0.377 0.299,-0.9 0.897,-1.57c0.597,-0.671 1.06,-1.006 1.387,-1.006Zm1.525,26.607c-0,1.157 0.126,1.931 0.378,2.322c0.253,0.392 0.786,0.644 1.599,0.758l1.124,0.122c0.585,0.08 0.87,0.287 0.854,0.62c-0.016,0.271 -0.237,0.406 -0.661,0.406c-0.277,-0 -0.808,-0.037 -1.591,-0.112c-0.44,-0.037 -1.011,-0.056 -1.713,-0.056l-1.567,-0.027l-1.786,0.097c-0.327,0.016 -0.58,0.041 -0.759,0.073c-0.424,0.049 -0.718,0.074 -0.881,0.074c-0.441,-0 -0.661,-0.151 -0.661,-0.451c-0,-0.25 0.146,-0.426 0.439,-0.526l0.464,-0.146c0.521,-0.179 0.883,-0.488 1.087,-0.927c0.203,-0.439 0.305,-1.146 0.305,-2.121l-0,-10.629c-0,-1.349 -0.13,-2.227 -0.391,-2.633c-0.26,-0.406 -0.822,-0.609 -1.684,-0.609c-0.619,-0 -0.92,-0.128 -0.904,-0.383c0.017,-0.222 0.433,-0.461 1.25,-0.716c0.916,-0.309 2.076,-0.83 3.481,-1.562l1.3,-0.611c0.211,0.016 0.317,0.212 0.317,0.587l-0,16.45Z" style="fill:#d4ae21;fill-rule:nonzero;"/><path d="M666.654,73.783c1.286,-0 2.393,0.168 3.321,0.505l1.074,0.361c0.439,0.16 0.659,0.409 0.659,0.745l0,0.391c0,0.228 0.016,0.456 0.049,0.683l0.098,0.953c0.048,0.341 0.073,0.651 0.073,0.927c-0,0.635 -0.183,0.961 -0.55,0.977c-0.199,0.016 -0.382,-0.195 -0.549,-0.635c-0.895,-2.474 -2.571,-3.711 -5.029,-3.711c-0.977,0 -1.778,0.278 -2.405,0.833c-0.627,0.555 -0.94,1.258 -0.94,2.107c0,0.898 0.338,1.625 1.013,2.18c0.676,0.555 2.039,1.233 4.09,2.034c2.034,0.796 3.446,1.636 4.236,2.522c0.789,0.885 1.184,2.075 1.184,3.569c-0,1.836 -0.68,3.408 -2.039,4.716c-1.359,1.307 -2.983,1.961 -4.871,1.961c-1.35,0 -2.815,-0.382 -4.394,-1.147c-0.374,-0.179 -0.61,-0.269 -0.708,-0.269l-0.635,-0.073c-0.374,-0.032 -0.578,-0.235 -0.61,-0.608l-0.025,-1.046l-0.073,-3.113l0.05,-0.729c0.066,-0.438 0.249,-0.665 0.548,-0.681c0.299,-0.016 0.499,0.228 0.598,0.732c0.342,1.791 1.005,3.191 1.99,4.2c0.985,1.009 2.169,1.513 3.552,1.513c1.189,0 2.161,-0.351 2.918,-1.052c0.757,-0.702 1.135,-1.6 1.135,-2.694c0,-1.665 -0.919,-2.905 -2.759,-3.722l-2.148,-0.954c-1.953,-0.845 -3.337,-1.718 -4.15,-2.619c-0.814,-0.902 -1.221,-2.002 -1.221,-3.302c-0,-1.559 0.626,-2.874 1.88,-3.946c1.253,-1.072 2.799,-1.608 4.638,-1.608Z" style="fill:#d4ae21;fill-rule:nonzero;"/><path d="M682.108,76.737l0,12.28c0,1.595 0.228,2.629 0.684,3.101c0.667,0.7 1.62,1.05 2.856,1.05c0.993,-0 1.832,-0.179 2.515,-0.537l1.27,-0.611l0.146,-0.049c0.195,0 0.293,0.089 0.293,0.267c0,0.532 -0.643,1.11 -1.929,1.731c-1.285,0.621 -2.482,0.932 -3.588,0.932c-3.744,0 -5.616,-1.95 -5.616,-5.851l0,-12.313l-2.173,0c-0.423,0 -0.634,-0.123 -0.634,-0.37c-0,-0.229 0.211,-0.523 0.634,-0.882c1.905,-1.616 3.361,-3.232 4.371,-4.848c0.439,-0.719 0.748,-1.078 0.927,-1.078c0.228,0 0.342,0.212 0.342,0.635l-0.098,4.224l5.201,-0c0.716,-0 1.269,-0.131 1.66,-0.391c0.244,-0.179 0.423,-0.277 0.537,-0.293c0.179,-0.032 0.26,0.058 0.244,0.271c0,0.082 -0.073,0.287 -0.22,0.616l-0.561,1.402c-0.179,0.476 -0.537,0.714 -1.074,0.714l-5.787,0Z" style="fill:#d4ae21;fill-rule:nonzero;"/><path d="M694.584,82.133l-0.024,0.537c-0,2.783 0.77,5.123 2.311,7.019c1.54,1.896 3.435,2.844 5.685,2.844c1.778,-0 3.71,-0.798 5.796,-2.393c0.131,-0.097 0.253,-0.154 0.367,-0.171c0.228,-0.016 0.343,0.114 0.343,0.389c-0,0.486 -0.57,1.174 -1.709,2.065c-2.116,1.652 -4.354,2.478 -6.714,2.478c-2.653,0 -4.879,-1.008 -6.678,-3.024c-1.798,-2.016 -2.697,-4.511 -2.697,-7.486c-0,-2.829 0.927,-5.304 2.783,-7.426c1.855,-2.121 4.028,-3.182 6.518,-3.182c2.719,-0 4.891,1.131 6.519,3.393c0.391,0.554 0.789,1.303 1.196,2.247c0.407,0.944 0.611,1.603 0.611,1.977c-0,0.537 -0.53,0.806 -1.59,0.806l-1.81,-0.025l-1.663,-0.048l-9.244,-0Zm0.147,-1.343l8.276,-0c1.286,-0 1.929,-0.261 1.929,-0.782c-0,-1.269 -0.55,-2.449 -1.648,-3.54c-1.099,-1.09 -2.291,-1.635 -3.577,-1.635c-1.335,-0 -2.445,0.533 -3.333,1.599c-0.887,1.066 -1.436,2.519 -1.647,4.358Z" style="fill:#d4ae21;fill-rule:nonzero;"/><path d="M718.876,78.226c1.888,-2.962 3.63,-4.443 5.225,-4.443c0.504,-0 1.167,0.301 1.989,0.903c0.822,0.602 1.25,1.091 1.282,1.465c0.016,0.242 -0.243,0.689 -0.779,1.341c-0.535,0.653 -0.917,0.987 -1.144,1.003c-0.114,-0 -0.471,-0.195 -1.071,-0.586c-0.698,-0.488 -1.363,-0.733 -1.996,-0.733c-0.99,0 -1.818,0.359 -2.483,1.076c-0.666,0.718 -0.999,1.612 -0.999,2.684l0,8.699c0,1.365 0.184,2.336 0.55,2.912c0.366,0.577 1.005,0.906 1.916,0.987l1.27,0.098c0.521,0.032 0.781,0.195 0.781,0.488c0,0.325 -0.228,0.488 -0.685,0.488c-0.114,0 -0.498,-0.041 -1.15,-0.122c-0.31,-0.033 -0.767,-0.049 -1.371,-0.049l-1.762,-0.024l-1.077,-0c-1.272,-0 -2.177,0.04 -2.716,0.122c-0.424,0.065 -0.718,0.106 -0.881,0.122c-0.44,0.016 -0.661,-0.143 -0.661,-0.477c0,-0.27 0.253,-0.453 0.757,-0.548c0.7,-0.163 1.152,-0.464 1.355,-0.904c0.204,-0.439 0.305,-1.375 0.305,-2.807l0,-10.474c0,-1.872 -0.895,-2.808 -2.685,-2.808l-0.83,0.025c-0.375,-0 -0.562,-0.167 -0.562,-0.501c0,-0.201 0.122,-0.351 0.366,-0.451c0.147,-0.033 0.326,-0.057 0.537,-0.074c1.53,-0.146 3.337,-0.862 5.42,-2.148c0.212,-0.114 0.399,-0.179 0.562,-0.195c0.374,-0.017 0.561,0.26 0.561,0.83l-0.024,0.464l0,3.637Z" style="fill:#d4ae21;fill-rule:nonzero;"/><path d="M740.995,90.8l3.683,-10.084c0.393,-1.09 0.59,-2.05 0.59,-2.88c-0,-0.782 -0.179,-1.347 -0.537,-1.697c-0.359,-0.35 -1.05,-0.647 -2.076,-0.891c-0.39,-0.084 -0.586,-0.259 -0.586,-0.526c0,-0.301 0.163,-0.443 0.487,-0.426c0.211,0.016 0.535,0.04 0.974,0.073c0.357,0.032 1.087,0.049 2.19,0.049c1.217,-0 2.069,-0.017 2.556,-0.049c0.551,-0.033 0.916,-0.049 1.095,-0.049c0.341,0 0.511,0.142 0.511,0.426c-0,0.217 -0.171,0.4 -0.513,0.551c-0.635,0.244 -1.086,0.52 -1.355,0.83c-0.268,0.309 -0.549,0.862 -0.842,1.66l-8.643,24.365l-0.244,0.781c-0.13,0.423 -0.285,0.668 -0.464,0.733c-0.179,0.065 -0.748,0.097 -1.709,0.097c-1.106,0 -1.66,-0.117 -1.66,-0.352c0,-0.134 0.098,-0.293 0.293,-0.478c1.123,-1.119 2.112,-2.462 2.966,-4.028c0.855,-1.565 1.282,-2.819 1.282,-3.76c0,-0.489 -0.309,-1.458 -0.928,-2.909l-6.127,-14.226c-0.407,-0.945 -0.769,-1.597 -1.087,-1.956c-0.317,-0.358 -0.761,-0.611 -1.33,-0.757c-0.359,-0.096 -0.538,-0.247 -0.538,-0.453c0,-0.349 0.236,-0.524 0.707,-0.524c0.341,0 0.771,0.024 1.29,0.073c0.39,0.049 1.209,0.073 2.459,0.073c1.526,0 2.598,-0.024 3.215,-0.073c0.405,-0.032 0.698,-0.049 0.876,-0.049c0.438,-0.016 0.658,0.143 0.658,0.478c-0,0.287 -0.44,0.494 -1.319,0.621c-0.976,0.147 -1.465,0.554 -1.465,1.223c0,0.587 0.262,1.491 0.785,2.714l4.806,11.42Z" style="fill:#d4ae21;fill-rule:nonzero;"/></g></svg>